<?xml version="1.0" encoding="UTF-8"?>
<svg xmlns="http://www.w3.org/2000/svg" viewBox="0 0 2977.55 2839.06">
  <defs>
    <style>
      .cls-1, .cls-2, .cls-3, .cls-4, .cls-5, .cls-6, .cls-7, .cls-8, .cls-9, .cls-10, .cls-11 {
        fill: none;
        stroke-linecap: round;
        stroke-linejoin: round;
      }

      .cls-1, .cls-6, .cls-10, .cls-11 {
        stroke: #663925;
      }

      .cls-2 {
        stroke-width: 1.07px;
      }

      .cls-2, .cls-3, .cls-12, .cls-7 {
        stroke: #c8906c;
      }

      .cls-3, .cls-11 {
        stroke-width: 1.07px;
      }

      .cls-4 {
        stroke: #442646;
      }

      .cls-4, .cls-5, .cls-6, .cls-7, .cls-8, .cls-9 {
        stroke-width: 2.04px;
      }

      .cls-5, .cls-13 {
        stroke: #8d2828;
      }

      .cls-14 {
        stroke: #8c583e;
      }

      .cls-14, .cls-13, .cls-12, .cls-15 {
        stroke-miterlimit: 10;
      }

      .cls-14, .cls-16 {
        fill: #f5b991;
      }

      .cls-13, .cls-17 {
        fill: #cd3636;
      }

      .cls-12, .cls-15, .cls-18 {
        fill: #f8b890;
      }

      .cls-15, .cls-9 {
        stroke: #c79473;
      }

      .cls-8 {
        stroke: #2b1e2f;
      }

      .cls-10 {
        stroke-width: 2.15px;
      }

      .cls-19, .cls-18, .cls-20, .cls-21, .cls-22, .cls-23, .cls-24, .cls-25, .cls-17, .cls-26, .cls-27, .cls-28, .cls-29, .cls-30, .cls-16, .cls-31 {
        stroke-width: 0px;
      }

      .cls-20 {
        fill: #633566;
      }

      .cls-21 {
        fill: #353032;
      }

      .cls-22 {
        fill: #402d23;
      }

      .cls-23 {
        fill: #402d46;
      }

      .cls-24 {
        fill: #c4c6c6;
      }

      .cls-25 {
        fill: #cd340d;
      }

      .cls-26 {
        fill: #b86447;
      }

      .cls-27 {
        fill: #fff;
      }

      .cls-28 {
        fill: #f4e8e7;
      }

      .cls-29 {
        fill: #f5ba91;
      }

      .cls-30 {
        fill: red;
      }

      .cls-31 {
        fill: #f5af91;
      }
    </style>
  </defs>
  <g id="Background">
    <ellipse class="cls-24" cx="1364.54" cy="2495.05" rx="470.65" ry="121.23"/>
  </g>
  <g id="Design">
    <g id="Front">
      <g>
        <g id="R_U_H" data-name="R U H">
          <g id="Layer_1" data-name="Layer 1">
            <g>
              <path class="cls-18" d="m1554.37,880.75c1.86,26.89,3.65,47.45,5.39,61.7,4.46,37.66,8.92,65.54,13.38,83.63,1.36,4.09,4.09,8.18,8.18,12.27,8.05,8.18,18.83,11.77,32.34,10.78,14.87-1.12,26.08-7.19,33.64-18.21,6.69-9.54,9.35-20.19,7.99-31.96-1.11-7.81-1.92-22.36-2.42-43.67-.87-20.32-1.42-31.1-1.67-32.34-.25-2.11-1.11-13.38-2.6-33.82-1.73-21.06-2.6-32.65-2.6-34.75-.87-6.81-3.22-13.5-7.06-20.07-5.82-9.91-14.12-16.11-24.9-18.58-12.51-2.73-24.1-2.23-34.75,1.49-10.41,3.72-18.34,10.1-23.79,19.14l-3.72,8.36,2.6,36.05Z"/>
              <path class="cls-7" d="m1555.49,836.33c5.45-9.04,13.38-15.42,23.79-19.14,10.65-3.72,22.24-4.21,34.75-1.49,10.78,2.48,19.08,8.67,24.9,18.58,3.84,6.57,6.19,13.26,7.06,20.07,0,2.11.87,13.69,2.6,34.75,1.49,20.44,2.35,31.72,2.6,33.82.25,1.24.81,12.02,1.67,32.34.5,21.31,1.3,35.87,2.42,43.67,1.36,11.77-1.3,22.42-7.99,31.96-7.56,11.03-18.77,17.1-33.64,18.21-13.5.99-24.28-2.6-32.34-10.78-4.09-4.09-6.81-8.18-8.18-12.27-4.46-18.09-8.92-45.96-13.38-83.63-1.73-14.25-3.53-34.81-5.39-61.7l-2.6-36.05,3.72-8.36Z"/>
            </g>
            <g>
              <path class="cls-20" d="m1570.17,564.63c-8.18-3.1-15.61-4.34-22.3-3.72-12.51.74-22.36,7.74-29.55,21-6.57,12.02-10.04,27.32-10.41,45.9-.12,12.51,3.47,44.29,10.78,95.34,7.19,49.81,13.57,83.07,19.14,99.8l4.09,16.35c3.59,11.03,8.12,17.1,13.57,18.21,8.3,1.73,24.65,2.85,49.06,3.35,26.51.5,42.87-.5,49.06-2.97-9.91-70.37-16.11-113.05-18.58-128.04-2.73-30.48-7-57.36-12.82-80.66-11.4-48.07-28.74-76.26-52.04-84.56Z"/>
              <path class="cls-4" d="m1604.55,860.87c-24.41-.5-40.76-1.61-49.06-3.35-5.45-1.12-9.97-7.19-13.57-18.21l-4.09-16.35c-5.58-16.73-11.96-49.99-19.14-99.8-7.31-51.04-10.9-82.82-10.78-95.34.37-18.58,3.84-33.89,10.41-45.9,7.19-13.26,17.04-20.26,29.55-21,6.69-.62,14.12.62,22.3,3.72,23.29,8.3,40.64,36.49,52.04,84.56,5.82,23.29,10.1,50.18,12.82,80.66,2.48,14.99,8.67,57.67,18.58,128.04-6.19,2.48-22.55,3.47-49.06,2.97Z"/>
            </g>
          </g>
        </g>
        <g id="R_M_H" data-name="R M H">
          <g id="Layer_1-2" data-name="Layer 1">
            <g>
              <path class="cls-18" d="m1568.5,1000.62c.5,2.6.87,5.27,1.12,7.99l7.25,38.1c5.33,27.63,9.42,46.58,12.27,56.87.5,1.86,7.06,25.77,19.7,71.73,10.16,37.04,16.23,58.73,18.21,65.04,1.24,4.34,4.96,17.16,11.15,38.47,5.45,18.71,8.73,29.42,9.85,32.15,1.73,4.83,4.21,8.8,7.43,11.89,4.09,4.21,8.3,5.82,12.64,4.83,7.56-1.49,13.13-3.96,16.73-7.43,6.32-6.44,8.86-16.79,7.62-31.04-.99-14.5-3.16-37.66-6.5-69.5-2.73-28.25-4.52-46.03-5.39-53.34-6.57-53.77-10.28-83.26-11.15-88.46-2.35-14.5-4.65-27.63-6.88-39.4-4.09-22.8-6.88-35.93-8.36-39.4-.37-1.12-.74-2.54-1.12-4.27-2.23-2.48-5.02-5.58-8.36-9.29-7.68-8.67-17.35-13.01-28.99-13.01-14.99.12-26.51,2.97-34.57,8.55-5.45,3.72-9.79,8.73-13.01,15.05.62,1.24.74,2.73.37,4.46Z"/>
              <path class="cls-7" d="m1653.05,994.86c.37,1.73.74,3.16,1.12,4.27,1.49,3.47,4.27,16.6,8.36,39.4,2.23,11.77,4.52,24.9,6.88,39.4.87,5.2,4.58,34.69,11.15,88.46.87,7.31,2.66,25.09,5.39,53.34,3.35,31.84,5.51,55.01,6.5,69.5,1.24,14.25-1.3,24.59-7.62,31.04-3.59,3.47-9.17,5.95-16.73,7.43-4.34.99-8.55-.62-12.64-4.83-3.22-3.1-5.7-7.06-7.43-11.89-1.11-2.73-4.4-13.44-9.85-32.15-6.19-21.31-9.91-34.13-11.15-38.47-1.98-6.32-8.05-28-18.21-65.04-12.64-45.96-19.2-69.88-19.7-71.73-2.85-10.28-6.94-29.24-12.27-56.87l-7.25-38.1c-.25-2.73-.62-5.39-1.12-7.99.37-1.73.25-3.22-.37-4.46"/>
            </g>
          </g>
        </g>
        <g id="R_D_H" data-name="R D H">
          <g id="Layer_1-3" data-name="Layer 1">
            <g>
              <g>
                <path class="cls-15" d="m1640.6,1329.19c-1.36,9.79-1.55,17.78-.56,23.97.62,4.09,2.35,8.98,5.2,14.68,2.11,3.72,2.79,8.18,2.04,13.38-1.24,7.56-2.6,13.57-4.09,18.03-1.61,5.33-3.96,10.53-7.06,15.61-3.47,5.7-4.34,11.71-2.6,18.03,1.61,6.57,4.96,8.05,10.04,4.46l2.97-1.3v.74c6.32-12.39,9.6-25.09,9.85-38.1l-.74-17.65.74,17.65c-.25,13.01-3.53,25.71-9.85,38.1v.74l-.74,9.66c.74,7.43,4.34,10.84,10.78,10.22v1.11c6.32-6.44,9.97-15.12,10.96-26.02l.19-15.98-.19,15.98c-.99,10.9-4.65,19.58-10.96,26.02l-1.12,7.43c.12,5.95,2.79,9.79,7.99,11.52,1.36.5,2.85.56,4.46.19,3.1-.37,5.2-2.29,6.32-5.76-1.49-6.69-1.36-13.44.37-20.26,1.86-6.69,2.79-10.53,2.79-11.52l.56-15.98-.56,15.98c0,.99-.93,4.83-2.79,11.52-1.73,6.81-1.86,13.57-.37,20.26h.19c2.11,1.49,4.46,2.42,7.06,2.79,5.2.74,8.8-1.61,10.78-7.06,3.35-9.54,6.44-20.94,9.29-34.19,3.72-17.96,5.45-33.58,5.2-46.83-.25-12.64-1.67-23.91-4.27-33.82-2.73-9.42-4.46-15.86-5.2-19.33-.5-1.98-1.24-7.37-2.23-16.17-.74-6.57-1.8-12.64-3.16-18.21-15.42.87-30.85,1.73-46.27,2.6-.87,4.83-1.8,9.91-2.79,15.24l-2.23,12.27m44.04,23.97c.09-3.15.05-5.73,0-7.43v7.43c-.12,6.07-.62,11.71-1.49,16.91-1.24,5.82-1.49,12.08-.74,18.77.74,5.7,1.8,10.35,3.16,13.94,2.02,5.32,4.32,8.05,3.35,11.52-.78,2.78-3.21,4.53-5.06,5.56-1.46.28-3.99.54-6.84-.35-3.93-1.23-6.44-3.75-7.81-5.95-2.23-3.59-3.65-6.19-4.27-7.81-1.36-3.35-2.04-6.69-2.04-10.04s-.5-6.32-1.49-9.29c-1.12-2.85-1.8-4.71-2.04-5.58-.5-1.24-1.42-3.1-2.79-5.58l-1.49-3.16,1.49,3.16c1.36,2.48,2.29,4.34,2.79,5.58.25.87.93,2.73,2.04,5.58.99,2.97,1.49,6.07,1.49,9.29s.68,6.69,2.04,10.04c.62,1.61,2.04,4.21,4.27,7.81,1.36,2.19,3.88,4.71,7.81,5.95,2.84.89,5.37.63,6.84.35,1.85-1.03,4.27-2.78,5.06-5.56.98-3.47-1.26-6.22-3.35-11.52-2.11-5.35-2.64-9.67-3.16-13.94-.59-4.84-.15-9.48.74-18.77.65-6.81,1.29-9.98,1.49-16.91Zm-2.42,52.59c-.01-.05-.95.1-1.86.37-.62.19-1.24.43-1.86.74q-1.36,1.11-4.08,3.34s1.2-1.23,2.91-2.38c.85-.56,1.59-.97,2.13-1.24,2.28-.62,2.76-.79,2.75-.83Z"/>
                <rect class="cls-18" x="1645.69" y="1297.89" width="46.31" height="4.46"/>
              </g>
              <path class="cls-9" d="m1691.89,1299.08c1.36,5.58,2.42,11.65,3.16,18.21.99,8.8,1.73,14.19,2.23,16.17.74,3.47,2.48,9.91,5.2,19.33,2.6,9.91,4.03,21.19,4.27,33.82.25,13.26-1.49,28.87-5.2,46.83-2.85,13.26-5.95,24.65-9.29,34.19-1.98,5.45-5.58,7.81-10.78,7.06-2.6-.37-4.96-1.3-7.06-2.79h-.19c-1.12,3.47-3.22,5.39-6.32,5.76-1.61.37-3.1.31-4.46-.19-5.2-1.73-7.87-5.58-7.99-11.52l1.11-7.43v-1.11c-6.44.62-10.04-2.79-10.78-10.22l.74-9.66v-1.49l-2.97,1.3c-5.08,3.59-8.42,2.11-10.04-4.46-1.73-6.32-.87-12.33,2.6-18.03,3.1-5.08,5.45-10.28,7.06-15.61,1.49-4.46,2.85-10.47,4.09-18.03.74-5.2.06-9.66-2.04-13.38-2.85-5.7-4.58-10.59-5.2-14.68-.99-6.19-.81-14.19.56-23.97l2.23-12.27c.99-5.33,1.92-10.41,2.79-15.24"/>
            </g>
          </g>
        </g>
        <g id="R_D_L" data-name="R D L">
          <g id="Layer_1-4" data-name="Layer 1">
            <g>
              <path class="cls-18" d="m1443.24,2448.7c-3.35,21.56,4.34,32.27,23.04,32.15l.37,8.18c.99,5.58,2.85,8.98,5.58,10.22,5.33,2.73,9.54,4.65,12.64,5.76,5.45,2.11,8.92,2.42,10.41.93,1.86,4.58,5.14,8.49,9.85,11.71,9.17,6.57,21.12,6.44,35.87-.37,3.22.74,6.57,1.18,10.04,1.3,7.31.5,11.96-1.05,13.94-4.65,9.54.99,14.25-.62,14.12-4.83,2.6.74,5.14.93,7.62.56,5.33-.74,7.99-3.47,7.99-8.18,1.73-.12,3.41-.62,5.02-1.49,2.97-1.73,3.65-4.34,2.04-7.81-1.61-3.35-4.46-7.19-8.55-11.52l-10.04-10.04c-2.11-2.11-8.12-8.49-18.03-19.14-10.04-11.15-17.78-20.19-23.23-27.13-6.44-8.3-10.84-14.99-13.19-20.07-2.35-4.96-3.59-10.35-3.72-16.17-.12-4.46-.06-19.02.19-43.67v-5.2h-.19c-.62-23.42-16.91-32.89-48.88-28.43-6.69,1.36-11.65,4.71-14.87,10.04-2.48,3.84-4.27,8.92-5.39,15.24-.12.87-.31,1.92-.56,3.16v.19c.62,19.45,0,38.1-1.86,55.94-2.11,9.91-1.92,16.91.56,21l-4.46,10.04c-3.1,8.05-5.2,15.49-6.32,22.3m138.64,40.33c4.21,3.59,7.12,5.82,8.73,6.69,1.12.5,1.98,1.42,2.6,2.79l.74,2.04-.74-2.04c-.62-1.36-1.49-2.29-2.6-2.79-1.61-.87-4.52-3.1-8.73-6.69-4.58-4.34-7.62-7.87-9.11-10.59,1.49,2.73,4.52,6.26,9.11,10.59m-118.94-25.83l1.3,4.65c1.11,3.72,1.86,7.19,2.23,10.41-.37-3.22-1.11-6.69-2.23-10.41l-1.3-4.65m68.58,29.73c4.34,3.84,7,6.57,7.99,8.18,1.24,1.86,1.8,4.77,1.67,8.73,0,1.86-.12,3.59-.37,5.2.25-1.61.37-3.35.37-5.2.12-3.96-.43-6.88-1.67-8.73-.99-1.61-3.65-4.34-7.99-8.18-5.82-4.83-10.04-8.55-12.64-11.15,2.6,2.6,6.81,6.32,12.64,11.15m31.59,10.96c1.49.99,2.29,2.6,2.42,4.83.12,1.24.12,2.35,0,3.35.12-.99.12-2.11,0-3.35-.12-2.23-.93-3.84-2.42-4.83-1.86-1.24-6.01-4.46-12.45-9.66-6.69-5.58-11.15-9.48-13.38-11.71,2.23,2.23,6.69,6.13,13.38,11.71,6.44,5.2,10.59,8.42,12.45,9.66m16.17.37c.25.99.43,1.8.56,2.42-.12-.62-.31-1.42-.56-2.42-.5-1.73-1.3-3.04-2.42-3.9-11.65-10.04-18.15-16.11-19.51-18.21,1.36,2.11,7.87,8.18,19.51,18.21,1.12.87,1.92,2.17,2.42,3.9m-57.43-10.78c-5.7.25-9.17,2.54-10.41,6.88,1.24-4.34,4.71-6.63,10.41-6.88l7.99.93-7.99-.93Z"/>
              <path class="cls-7" d="m1525.19,2339.24v5.2c-.25,24.65-.31,39.21-.19,43.67.12,5.82,1.36,11.21,3.72,16.17,2.35,5.08,6.75,11.77,13.19,20.07,5.45,6.94,13.19,15.98,23.23,27.13,9.91,10.66,15.92,17.04,18.03,19.14l10.04,10.04c4.09,4.34,6.94,8.18,8.55,11.52,1.61,3.47.93,6.07-2.04,7.81-1.61.87-3.28,1.36-5.02,1.49,0,4.71-2.66,7.43-7.99,8.18-2.48.37-5.02.19-7.62-.56.12,4.21-4.58,5.82-14.12,4.83-1.98,3.59-6.63,5.14-13.94,4.65-3.47-.12-6.81-.56-10.04-1.3-14.74,6.81-26.7,6.94-35.87.37-4.71-3.22-7.99-7.12-9.85-11.71-1.49,1.49-4.96,1.18-10.41-.93-3.1-1.11-7.31-3.04-12.64-5.76-2.73-1.24-4.58-4.65-5.58-10.22l-.37-8.18c-18.71.12-26.39-10.59-23.04-32.15,1.12-6.81,3.22-14.25,6.32-22.3l4.46-10.04c-2.48-4.09-2.66-11.09-.56-21,1.86-17.84,2.48-36.49,1.86-55.94v-.19c.25-1.24.43-2.29.56-3.16,1.11-6.32,2.91-11.4,5.39-15.24,3.22-5.33,8.18-8.67,14.87-10.04,31.96-4.46,48.26,5.02,48.88,28.43m47.76,139.2c1.49,2.73,4.52,6.26,9.11,10.59,4.21,3.59,7.12,5.82,8.73,6.69,1.12.5,1.98,1.42,2.6,2.79l.74,2.04m-127.49-22.3c-.37-3.22-1.11-6.69-2.23-10.41l-1.3-4.65m55.94,18.58c2.6,2.6,6.81,6.32,12.64,11.15,4.34,3.84,7,6.57,7.99,8.18,1.24,1.86,1.8,4.77,1.67,8.73,0,1.86-.12,3.59-.37,5.2m-3.53-32.52c2.23,2.23,6.69,6.13,13.38,11.71,6.44,5.2,10.59,8.42,12.45,9.66,1.49.99,2.29,2.6,2.42,4.83.12,1.24.12,2.35,0,3.35m-8.18-29.92c1.36,2.11,7.87,8.18,19.51,18.21,1.12.87,1.92,2.17,2.42,3.9.25.99.43,1.8.56,2.42m-68.39-6.32c1.24-4.34,4.71-6.63,10.41-6.88l7.99.93"/>
            </g>
          </g>
        </g>
        <g id="R_U_L" data-name="R U L">
          <g id="Layer_1-5" data-name="Layer 1">
            <g>
              <g>
                <path class="cls-23" d="m1447.51,2371.95c-6.07.37-15.42.93-28.06,1.67-10.28.5-16.85.56-19.7.19-2.23-.25-6.57-.19-13.01.19-7.56.62-13.69.81-18.4.56-2.23-.12-10.84.25-25.83,1.12-11.27.74-18.77.37-22.49-1.12-3.22-1.24-7.81-3.53-13.75-6.88-2.85-1.49-5.58-2.54-8.18-3.16v22.12c7.68,1.49,13.81,3.1,18.4,4.83,5.2,1.98,16.48,3.72,33.82,5.2,19.08,1.73,31.72,1.49,37.91-.74.37-1.24,10.41-2.23,30.11-2.97,3.1-.12,6.19-.25,9.29-.37,16.97-.87,33.33-2.29,49.06-4.27,25.4-3.22,42.62-7.31,51.66-12.27,7.06-3.84,23.23-5.64,48.5-5.39,22.3.12,33.58-1.3,33.82-4.27.25-2.6,1.05-5.08,2.42-7.43,1.49-2.48,2.54-6.69,3.16-12.64.12-.99.19-1.92.19-2.79-37.17,4.96-60.4,7.31-69.69,7.06-7.81-.25-12.27-.19-13.38.19-1.12.37-4.15,1.92-9.11,4.65-4.83,2.73-8.36,4.4-10.59,5.02-5.08,1.36-14.62,3.41-28.62,6.13-17.1,3.22-29.61,5.02-37.54,5.39Z"/>
                <path class="cls-17" d="m1396.59,1270.83c-31.96,44.73-64.8,78.49-98.5,101.28v159.82c43.98-59.47,87.16-138.14,129.53-236.02.5-1.36,1.05-2.66,1.67-3.9-.62,1.24-1.18,2.54-1.67,3.9-42.37,97.88-85.55,176.55-129.53,236.02v832.57c2.6.62,5.33,1.67,8.18,3.16,5.95,3.35,10.53,5.64,13.75,6.88,3.72,1.49,11.21,1.86,22.49,1.12,14.99-.87,23.6-1.24,25.83-1.12,4.71.25,10.84.06,18.4-.56,6.44-.37,10.78-.43,13.01-.19,2.85.37,9.42.31,19.7-.19,12.64-.74,21.99-1.3,28.06-1.67,7.93-.37,20.44-2.17,37.54-5.39,14-2.73,23.54-4.77,28.62-6.13,2.23-.62,5.76-2.29,10.59-5.02,4.96-2.73,7.99-4.27,9.11-4.65,1.11-.37,5.58-.43,13.38-.19,9.29.25,32.52-2.11,69.69-7.06,1.86-19.2,2.79-46.09,2.79-80.66,0-13.38.56-39.09,1.67-77.12.87-34.32,1.24-53.15,1.12-56.5-.12-2.48.68-20.38,2.42-53.71,1.86-33.95,2.6-56.37,2.23-67.27-.37-11.4-.19-28.25.56-50.55.87-25.15,1.3-38.22,1.3-39.21,0-12.88.19-37.11.56-72.66.37-43.86.81-72.35,1.3-85.49.37-11.15-.25-49.87-1.86-116.15-1.61-67.4-2.35-104.44-2.23-111.13.25-13.13-1.24-51.29-4.46-114.48-2.6-82.14-4.83-137.46-6.69-165.96-1.11-17.47-3.96-37.29-8.55-59.47-4.96-22.3-8.18-37.54-9.66-45.72-1.61-8.8-2.48-20.63-2.6-35.5,0-14.62-.5-24.22-1.49-28.81l-9.11-45.9-33.08,4.27c-27.75,3.1-56.12,5.27-85.12,6.5-12.89.62-25.52.99-37.91,1.12-46.34.62-89.51-1.42-129.53-6.13v230.26c31.84-5.2,60.96-20.13,87.35-44.79-26.39,24.66-55.5,39.58-87.35,44.79v98.87c33.7-22.8,66.53-56.56,98.5-101.28Z"/>
              </g>
              <path class="cls-5" d="m1385.44,1228.46c-26.39,24.66-55.5,39.58-87.35,44.79m0,1091.26c2.6.62,5.33,1.67,8.18,3.16,5.95,3.35,10.53,5.64,13.75,6.88,3.72,1.49,11.21,1.86,22.49,1.12,14.99-.87,23.6-1.24,25.83-1.12,4.71.25,10.84.06,18.4-.56,6.44-.37,10.78-.43,13.01-.19,2.85.37,9.42.31,19.7-.19,12.64-.74,21.99-1.3,28.06-1.67,7.93-.37,20.44-2.17,37.54-5.39,14-2.73,23.54-4.77,28.62-6.13,2.23-.62,5.76-2.29,10.59-5.02,4.96-2.73,7.99-4.27,9.11-4.65,1.11-.37,5.58-.43,13.38-.19,9.29.25,32.52-2.11,69.69-7.06,1.86-19.2,2.79-46.09,2.79-80.66,0-13.38.56-39.09,1.67-77.12.87-34.32,1.24-53.15,1.12-56.5-.12-2.48.68-20.38,2.42-53.71,1.86-33.95,2.6-56.37,2.23-67.27-.37-11.4-.19-28.25.56-50.55.87-25.15,1.3-38.22,1.3-39.21,0-12.88.19-37.11.56-72.66.37-43.86.81-72.35,1.3-85.49.37-11.15-.25-49.87-1.86-116.15-1.61-67.4-2.35-104.44-2.23-111.13.25-13.13-1.24-51.29-4.46-114.48-2.6-82.14-4.83-137.46-6.69-165.96-1.11-17.47-3.96-37.29-8.55-59.47-4.96-22.3-8.18-37.54-9.66-45.72-1.61-8.8-2.48-20.63-2.6-35.5,0-14.62-.5-24.22-1.49-28.81l-9.11-45.9-33.08,4.27c-27.75,3.1-56.12,5.27-85.12,6.5-12.89.62-25.52.99-37.91,1.12-46.34.62-89.51-1.42-129.53-6.13m131.2,249.03c-.62,1.24-1.18,2.54-1.67,3.9-42.37,97.88-85.55,176.55-129.53,236.02m98.5-261.11c-31.96,44.73-64.8,78.49-98.5,101.28"/>
              <path class="cls-8" d="m1616.44,2343.51c0,.87-.06,1.8-.19,2.79-.62,5.95-1.67,10.16-3.16,12.64-1.36,2.35-2.17,4.83-2.42,7.43-.25,2.97-11.52,4.4-33.82,4.27-25.27-.25-41.44,1.55-48.5,5.39-9.04,4.96-26.27,9.04-51.66,12.27-15.73,1.98-32.09,3.41-49.06,4.27-3.1.12-6.19.25-9.29.37-19.7.74-29.73,1.73-30.11,2.97-6.19,2.23-18.83,2.48-37.91.74-17.35-1.49-28.62-3.22-33.82-5.2-4.58-1.73-10.72-3.35-18.4-4.83"/>
            </g>
          </g>
        </g>
        <g id="L_D_L" data-name="L D L">
          <g id="Layer_1-6" data-name="Layer 1">
            <path class="cls-12" d="m1210.01,2293.89c-5.82,4.71-8.86,10.9-9.11,18.58v6.13c1.24,11.77,1.86,20.57,1.86,26.39s-.12,14.56-.37,26.95c.25,10.16,1.98,16.42,5.2,18.77l-11.15,31.22c-5.95,20.57-5.33,30.29,1.86,29.18l-1.11,27.88c1.11,18.83,6.88,28.68,17.28,29.55.87,1.73,2.29,3.35,4.27,4.83,4.09,2.73,8.8,3.28,14.12,1.67,1.24,1.36,3.04,2.48,5.39,3.35,4.71,1.73,9.35,1.36,13.94-1.12,1.24,2.23,3.22,4.09,5.95,5.58,5.2,2.85,11.4,2.23,18.58-1.86,3.1,2.6,6.5,4.46,10.22,5.58,7.68,2.11,13.38-.37,17.1-7.43,2.73,2.73,6.38,4.96,10.96,6.69,8.67,3.47,17.1,2.6,25.27-2.6,2.48-1.86,4.4-4.27,5.76-7.25,2.73-6.07,1.42-11.96-3.9-17.66l-2.23-1.3c-1.61-.87-2.91-1.49-3.9-1.86-.99-.25-1.73-2.29-2.23-6.13-.62-4.34-1.18-6.88-1.67-7.62-13.01-17.35-20.75-27.88-23.23-31.59-4.83-7.31-10.47-18.77-16.91-34.38-7.93-19.58-12.2-34.88-12.82-45.9-.62-9.66-.87-26.7-.74-51.11h-.19c-1.36-24.28-18.77-34.19-52.22-29.73-6.44.99-11.77,2.73-15.98,5.2m-6.88,144.96l-.93,4.83c-.87,3.35-1.92,5.27-3.16,5.76,1.24-.5,2.29-2.42,3.16-5.76l.93-4.83m29.36,48.32l.56,25.09-.56-25.09m-17.1,2.97l-.56,15.61.56-15.61m34.38-2.79c1.11,16.73,1.8,25.89,2.04,27.5-.25-1.61-.93-10.78-2.04-27.5m48.88,6.5l-5.02-8.55,5.02,8.55c3.35,7.43,5.14,15.24,5.39,23.42-.25-8.18-2.04-15.98-5.39-23.42m26.02,1.12l9.11.93-9.11-.93c-6.69,0-11.09,1.24-13.19,3.72,2.11-2.48,6.5-3.72,13.19-3.72m-53.34-7.06l2.79,12.08c1.86,8.67,2.73,14.87,2.6,18.58.12-3.72-.74-9.91-2.6-18.58l-2.79-12.08Z"/>
          </g>
        </g>
        <g id="L_U_L" data-name="L U L">
          <g id="Layer_1-7" data-name="Layer 1">
            <g>
              <g>
                <path class="cls-23" d="m1254.42,2362.84c-13.01-2.23-23.04-4.71-30.11-7.43-1.49-.5-15.12-6.19-40.89-17.1-20.94-8.92-34.07-14.06-39.4-15.42-4.34-1.12-12.95-4.58-25.83-10.41-12.27-5.58-22.67-8.8-31.22-9.66,0,3.47-.25,8.05-.74,13.75.5,6.69,4.03,11.09,10.59,13.19,3.84,1.24,19.64,7.12,47.39,17.66,25.03,9.29,39.34,14.37,42.93,15.24,1.36.37,10.41,3.78,27.13,10.22,14.62,5.58,24.28,8.36,28.99,8.36,3.59,0,9.66.74,18.21,2.23,7.43,1.36,12.76,1.8,15.98,1.3,4.21-.62,10.78-.06,19.7,1.67,8.05,1.49,14.5,3.16,19.33,5.02,5.2,1.98,16.48,3.72,33.82,5.2,19.08,1.73,31.72,1.49,37.91-.74.37-1.24,10.41-2.23,30.11-2.97,3.1-.12,6.19-.25,9.29-.37v-16.17h-14.12c-7.81.12-14.31.5-19.51,1.11-8.05.99-20.81,1.55-38.28,1.67-19.58.25-31.1-.43-34.57-2.04-13.88-6.44-26.08-9.97-36.61-10.59-8.8-.5-18.83-1.73-30.11-3.72Z"/>
                <path class="cls-13" d="m1139.57,1144.83c-23.29,86.6-34.26,175.93-32.89,267.98,1.36,87.72,1.8,166.89,1.3,237.51-.25,34.57-.5,65.23-.74,91.99.25,9.54.12,39.96-.37,91.25-.62,59.72-.93,93.54-.93,101.47,0,25.65-1.49,102.96-4.46,231.93,0,6.44-1.05,16.04-3.16,28.81-1.24,7.19-3.16,17.9-5.76,32.15-1.61,9.91-3.04,22.92-4.27,39.03-1.24,15.73-1.67,26.39-1.3,31.96.12,1.12.12,2.42,0,3.9,8.55.87,18.96,4.09,31.22,9.66,12.88,5.82,21.5,9.29,25.83,10.41,5.33,1.36,18.46,6.5,39.4,15.42,25.77,10.9,39.4,16.6,40.89,17.1,7.06,2.73,17.1,5.2,30.11,7.43,11.27,1.98,21.31,3.22,30.11,3.72,10.53.62,22.73,4.15,36.61,10.59,3.47,1.61,14.99,2.29,34.57,2.04,17.47-.12,30.23-.68,38.28-1.67,5.2-.62,11.71-.99,19.51-1.11h14.12v-1080.48c-58.85,135.66-119.12,234.41-180.82,296.23-19.45,19.45-37.85,34.01-55.19,43.67-8.67,4.96-15.42,7.87-20.26,8.73,4.83-.87,11.58-3.78,20.26-8.73,17.35-9.66,35.74-24.22,55.19-43.67,61.7-61.82,121.97-160.57,180.82-296.23v-246.8c-76.81,1.11-144.89-5.2-204.24-18.96l-7.62-2.6c-5.58-2.35-9.48-5.08-11.71-8.18-3.22-4.46-5.58-7.12-7.06-7.99-2.23-1.24-3.84.06-4.83,3.9-.87,3.22-2.54,6.26-5.02,9.11-3.84,4.21-6.44,7.37-7.81,9.48-2.97,4.58-7.74,15.36-14.31,32.34-9.29,24.04-17.78,50.24-25.46,78.61m74.15,119.31c14.87,6.94,33.14,10.59,54.82,10.96,43.49.99,82.45-14.56,116.89-46.65-34.44,32.09-73.41,47.64-116.89,46.65-21.68-.37-39.96-4.03-54.82-10.96m40.89,131.02c49.06-19.2,96.39-60.65,141.98-124.33-45.59,63.68-92.92,105.12-141.98,124.33-24.53,9.54-44.48,12.76-59.84,9.66,15.36,3.1,35.31-.12,59.84-9.66Z"/>
              </g>
              <path class="cls-5" d="m1427.63,2376.41h-14.12c-7.81.12-14.31.5-19.51,1.11-8.05.99-20.81,1.55-38.28,1.67-19.58.25-31.1-.43-34.57-2.04-13.88-6.44-26.08-9.97-36.61-10.59-8.8-.5-18.83-1.73-30.11-3.72-13.01-2.23-23.04-4.71-30.11-7.43-1.49-.5-15.12-6.19-40.89-17.1-20.94-8.92-34.07-14.06-39.4-15.42-4.34-1.12-12.95-4.58-25.83-10.41-12.27-5.58-22.67-8.8-31.22-9.66.12-1.49.12-2.79,0-3.9-.37-5.58.06-16.23,1.3-31.96,1.24-16.11,2.66-29.12,4.27-39.03,2.6-14.25,4.52-24.96,5.76-32.15,2.11-12.76,3.16-22.36,3.16-28.81,2.97-128.97,4.46-206.28,4.46-231.93,0-7.93.31-41.75.93-101.47.5-51.29.62-81.71.37-91.25.25-26.76.5-57.43.74-91.99.5-70.62.06-149.79-1.3-237.51-1.36-92.05,9.6-181.38,32.89-267.98,7.68-28.37,16.17-54.58,25.46-78.61,6.57-16.97,11.34-27.75,14.31-32.34,1.36-2.11,3.96-5.27,7.81-9.48,2.48-2.85,4.15-5.89,5.02-9.11.99-3.84,2.6-5.14,4.83-3.9,1.49.87,3.84,3.53,7.06,7.99,2.23,3.1,6.13,5.82,11.71,8.18l7.62,2.6c59.35,13.75,127.43,20.07,204.24,18.96"/>
              <path class="cls-8" d="m1427.63,2392.57c-3.1.12-6.19.25-9.29.37-19.7.74-29.73,1.73-30.11,2.97-6.19,2.23-18.83,2.48-37.91.74-17.35-1.49-28.62-3.22-33.82-5.2-4.83-1.86-11.27-3.53-19.33-5.02-8.92-1.73-15.49-2.29-19.7-1.67-3.22.5-8.55.06-15.98-1.3-8.55-1.49-14.62-2.23-18.21-2.23-4.71,0-14.37-2.79-28.99-8.36-16.73-6.44-25.77-9.85-27.13-10.22-3.59-.87-17.9-5.95-42.93-15.24-27.75-10.53-43.55-16.42-47.39-17.66-6.57-2.11-10.1-6.5-10.59-13.19.5-5.7.74-10.28.74-13.75"/>
            </g>
          </g>
        </g>
        <g id="Layer_6" data-name="Layer 6">
          <g id="Layer_1-8" data-name="Layer 1">
            <g>
              <g>
                <path class="cls-23" d="m1477.25,2367.86c-34.44,5.2-58.6,7.68-72.48,7.43l-8.36.74c-6.94.37-21.56.43-43.86.19-22.18-.37-37.42-2.6-45.72-6.69-8.3-4.09-17.41-5.27-27.32-3.53-.74,6.57-1.24,12.64-1.49,18.21,16.85,2.48,29.55,5.08,38.1,7.81,7.19,2.23,20.19,4.09,39.03,5.58,19.95,1.61,31.66,1.3,35.12-.93,6.81-4.21,18.15-6.07,34.01-5.58,56.5,1.98,91.56-3.96,105.19-17.84,0-5.95-.06-11.58-.19-16.91-14.37,5.95-31.72,9.79-52.04,11.52Z"/>
                <path class="cls-5" d="m1414.99,1282.54c-10.16,165.28-18.89,285.21-26.2,359.79-16.11,165.28-29.24,288.55-39.4,369.83-8.8,70.62-21.81,138.82-39.03,204.61-16.73,63.93-27.01,113.67-30.85,149.23,9.91-1.73,19.02-.56,27.32,3.53,8.3,4.09,23.54,6.32,45.72,6.69,22.3.25,36.92.19,43.86-.19,1.98-5.7,2.66-11.96,2.04-18.77-.74-10.04-.68-20.13.19-30.29.74-9.79,5.14-33.08,13.19-69.88,9.66-44.23,16.6-79.17,20.81-104.81,4.83-29.86,7.99-65.66,9.48-107.42,2.48-75.7,4.15-120.98,5.02-135.85,5.7-98.25,11.83-192.16,18.4-281.74,2.73-38.28,6.81-143.22,12.27-314.82l7.43-245.68-7.43,245.68c-5.45,171.59-9.54,276.53-12.27,314.82-6.57,89.58-12.7,183.49-18.4,281.74-.87,14.87-2.54,60.15-5.02,135.85-1.49,41.75-4.65,77.56-9.48,107.42-4.21,25.65-11.15,60.58-20.81,104.81-8.05,36.8-12.45,60.09-13.19,69.88-.87,10.16-.93,20.26-.19,30.29.62,6.81-.06,13.07-2.04,18.77l8.36-.74c13.88.25,38.04-2.23,72.48-7.43,20.32-1.73,37.66-5.58,52.04-11.52-.37-27.63-1.49-48.07-3.35-61.33-2.11-14.62-3.35-40.45-3.72-77.5-.62-45.72.37-95.89,2.97-150.53,2.11-45.47,4.15-112.19,6.13-200.15,2.11-91.81,3.53-146.88,4.27-165.21,3.22-75.58,4.89-173.2,5.02-292.89.25-166.39-4.34-274.43-13.75-324.11l-2.42-25.09-38.47-3.9c-27.75-2.11-47.08-1.61-57.98,1.49l-13.01,225.43Z"/>
              </g>
              <path class="cls-8" d="m1529.28,2356.33c.12,5.33.19,10.96.19,16.91-13.63,13.88-48.69,19.82-105.19,17.84-15.86-.5-27.19,1.36-34.01,5.58-3.47,2.23-15.18,2.54-35.12.93-18.83-1.49-31.84-3.35-39.03-5.58-8.55-2.73-21.25-5.33-38.1-7.81.25-5.58.74-11.65,1.49-18.21"/>
            </g>
          </g>
        </g>
        <g id="L_U_H" data-name="L U H">
          <g id="Layer_1-9" data-name="Layer 1">
            <path class="cls-12" d="m1078.43,856.78l-3.53,35.12c-2.48,26.14-4.03,46.27-4.65,60.4-1.86,37.04-2.04,64.73-.56,83.07.62,4.21,2.73,8.73,6.32,13.57,6.94,9.42,17.41,15.05,31.41,16.91,15.61,2.11,28.25-1.36,37.91-10.41,8.55-7.81,13.07-17.47,13.57-28.99.37-7.68,1.98-21.81,4.83-42.37,2.73-19.7,4.09-30.23,4.09-31.59,0-1.98.99-12.95,2.97-32.89,1.98-20.69,3.04-32.03,3.16-34.01.25-6.81-1.05-13.69-3.9-20.63-4.21-10.9-11.71-18.65-22.49-23.23-12.39-5.2-24.35-7.12-35.87-5.76-11.52,1.49-20.81,6.01-27.88,13.57l-5.39,7.25Z"/>
            <g>
              <path class="cls-20" d="m1073.04,859.38c-.5.87.19,2.04,2.04,3.53,3.59,3.1,11.09,6.32,22.49,9.66,22.42,7.43,39.34,12.64,50.73,15.61,20.44,5.2,31.53,5.08,33.27-.37,1.61-5.08,4.03-28.56,7.25-70.43,4.46-56.74,6.94-87.9,7.43-93.48,2.48-25.89,2.6-46.34.37-61.33-3.1-20.44-10.9-37.04-23.42-49.81-13.63-14-29.36-19.95-47.2-17.84-17.59,2.11-30.66,11.34-39.21,27.69l-7.99,89.58c-5.08,66.04-7,115.1-5.76,147.19Z"/>
              <path class="cls-4" d="m1126.01,594.93c17.84-2.11,33.58,3.84,47.2,17.84,12.51,12.76,20.32,29.36,23.42,49.81,2.23,14.99,2.11,35.43-.37,61.33-.5,5.58-2.97,36.73-7.43,93.48-3.22,41.88-5.64,65.35-7.25,70.43-1.73,5.45-12.82,5.58-33.27.37-11.4-2.97-28.31-8.18-50.73-15.61-11.4-3.35-18.89-6.57-22.49-9.66-1.86-1.49-2.54-2.66-2.04-3.53-1.24-32.09.68-81.15,5.76-147.19l7.99-89.58c8.55-16.35,21.62-25.58,39.21-27.69Z"/>
            </g>
          </g>
        </g>
        <g id="L_M_H" data-name="L M H">
          <g id="Layer_1-10" data-name="Layer 1">
            <g>
              <path class="cls-18" d="m1069.14,1019.76c.25,2.6.37,5.2.37,7.81l3.53,37.91c2.85,27.5,5.27,46.46,7.25,56.87.37,1.73,4.77,25.77,13.19,72.11,6.81,37.04,10.9,58.79,12.27,65.23.99,4.46,3.59,17.35,7.81,38.66,3.72,18.96,6.01,29.86,6.88,32.71,1.49,4.83,3.78,8.98,6.88,12.45,3.84,4.34,7.99,6.38,12.45,6.13,8.05-.62,14.12-2.42,18.21-5.39,7.31-5.58,11.09-15.3,11.34-29.18.37-14.37.43-37.23.19-68.58-.12-27.75-.25-45.22-.37-52.41-1.36-53.15-2.23-82.2-2.6-87.16-.99-14.5-2.04-27.5-3.16-39.03-1.98-22.8-3.53-35.99-4.65-39.58-.37-1.12-.62-2.54-.74-4.27-2.11-2.73-4.77-6.07-7.99-10.04-7.06-9.42-16.66-14.74-28.81-15.98-15.73-1.61-28-.25-36.8,4.09-6.19,3.1-11.27,7.5-15.24,13.19.5,1.36.5,2.85,0,4.46Z"/>
              <path class="cls-7" d="m1157.97,1024.04c.12,1.73.37,3.16.74,4.27,1.11,3.59,2.66,16.79,4.65,39.58,1.12,11.52,2.17,24.53,3.16,39.03.37,4.96,1.24,34.01,2.6,87.16.12,7.19.25,24.65.37,52.41.25,31.35.19,54.2-.19,68.58-.25,13.88-4.03,23.6-11.34,29.18-4.09,2.97-10.16,4.77-18.21,5.39-4.46.25-8.61-1.8-12.45-6.13-3.1-3.47-5.39-7.62-6.88-12.45-.87-2.85-3.16-13.75-6.88-32.71-4.21-21.31-6.81-34.19-7.81-38.66-1.36-6.44-5.45-28.19-12.27-65.23-8.42-46.34-12.82-70.37-13.19-72.11-1.98-10.41-4.4-29.36-7.25-56.87l-3.53-37.91c0-2.6-.12-5.2-.37-7.81.5-1.61.5-3.1,0-4.46"/>
            </g>
          </g>
        </g>
        <g id="L_D_H" data-name="L D H">
          <g id="Layer_1-11" data-name="Layer 1">
            <g>
              <path class="cls-18" d="m1120.99,1334.76c-.87,5.95-.87,17.84,0,35.68.74,15.98,1.67,27.13,2.79,33.45.87,6.69,4.21,15.55,10.04,26.58,5.2,10.41,8.55,17.78,10.04,22.12,1.12,3.59,2.91,7,5.39,10.22,1.12,1.36,5.2,7.06,12.27,17.1,2.35,2.85,4.89,4.34,7.62,4.46,1.36.12,2.42-.06,3.16-.56.25.25.56.68.93,1.3-1.98-5.45-5.64-11.89-10.96-19.33-5.45-7.56-8.42-11.77-8.92-12.64-.74-.87-1.3-1.98-1.67-3.35-.62-1.98-1.24-3.84-1.86-5.58-.62-2.11-2.91-7.81-6.88-17.1l-6.88-16.91,6.88,16.91c3.96,9.29,6.26,14.99,6.88,17.1.62,1.73,1.24,3.59,1.86,5.58.37,1.36.93,2.48,1.67,3.35.5.87,3.47,5.08,8.92,12.64,5.33,7.43,8.98,13.88,10.96,19.33.62,1.12,1.24,2.35,1.86,3.72.74,1.12,2.54,1.73,5.39,1.86,2.97.37,4.96-.43,5.95-2.42.74-.87,1.05-1.92.93-3.16-2.73-5.82-6.75-12.58-12.08-20.26-3.96-5.7-7.43-10.47-10.41-14.31-1.36-1.98-2.48-3.84-3.35-5.58-.87-1.61-1.67-3.78-2.42-6.5l-10.96-29.73,10.96,29.73c.74,2.73,1.55,4.89,2.42,6.5.87,1.73,1.98,3.59,3.35,5.58,2.97,3.84,6.44,8.61,10.41,14.31,5.33,7.68,9.35,14.43,12.08,20.26v-.19c.12.12.18.31.19.56l.19.37c1.24,1.98,2.42,3.35,3.53,4.09,1.61,1.24,3.78,2.04,6.5,2.42,2.23.12,3.59-1.55,4.09-5.02l-.19-5.2h.19c-3.22-5.45-7.87-12.02-13.94-19.7-6.44-7.93-10.04-12.39-10.78-13.38-3.59-4.83-5.82-8.92-6.69-12.27-.5-2.11-2.54-7.74-6.13-16.91l-6.5-16.73,6.5,16.73c3.59,9.17,5.64,14.81,6.13,16.91.87,3.35,3.1,7.43,6.69,12.27.74.99,4.34,5.45,10.78,13.38,6.07,7.68,10.72,14.25,13.94,19.7,0,.12.12.31.37.56,2.85,1.86,4.77,1.49,5.76-1.12.62-1.24.93-2.73.93-4.46-1.98-8.67-6.19-18.21-12.64-28.62l-8.92-13.01c-.37-3.96-1.92-10.72-4.65-20.26-2.35-7.93-3.47-11.83-3.35-11.71l1.49,1.3c-2.97-5.08-6.13-8.12-9.48-9.11l-4.46-.56,4.46.56c3.35.99,6.5,4.03,9.48,9.11.99.62,1.49,1.05,1.49,1.3,1.98,1.86,3.65,4.65,5.02,8.36,1.86,4.71,4.27,9.23,7.25,13.57,3.1,4.71,6.07,7.68,8.92,8.92,2.73,1.24,4.52,1.18,5.39-.19.74-.99.68-2.6-.19-4.83-.5-1.36-1.67-7.06-3.53-17.1-1.73-10.65-3.16-17.53-4.27-20.63-.74-5.2-1.36-9.11-1.86-11.71-.99-4.83-3.41-9.97-7.25-15.42-3.96-5.58-7.56-11.96-10.78-19.14l-3.72-9.11c-2.85-6.81-6.13-12.76-9.85-17.84-5.2-3.22-11.77-4.96-19.7-5.2-8.42-.37-14.81,1.05-19.14,4.27-2.97,2.11-5.39,5.02-7.25,8.73,0,1.98-.12,3.96-.37,5.95m9.85,74.15l10.59-1.49c7.56-1.49,13.57-3.72,18.03-6.69-4.46,2.97-10.47,5.2-18.03,6.69l-10.59,1.49Z"/>
              <path class="cls-7" d="m1121.36,1328.82c0,1.98-.12,3.96-.37,5.95-.87,5.95-.87,17.84,0,35.68.74,15.98,1.67,27.13,2.79,33.45.87,6.69,4.21,15.55,10.04,26.58,5.2,10.41,8.55,17.78,10.04,22.12,1.12,3.59,2.91,7,5.39,10.22,1.12,1.36,5.2,7.06,12.27,17.1,2.35,2.85,4.89,4.34,7.62,4.46,1.36.12,2.42-.06,3.16-.56.25.25.56.68.93,1.3m-15.42-81.96l6.5,16.73c3.59,9.17,5.64,14.81,6.13,16.91.87,3.35,3.1,7.43,6.69,12.27.74.99,4.34,5.45,10.78,13.38,6.07,7.68,10.72,14.25,13.94,19.7,0,.12.12.31.37.56,2.85,1.86,4.77,1.49,5.76-1.12.62-1.24.93-2.73.93-4.46-1.98-8.67-6.19-18.21-12.64-28.62l-8.92-13.01c-.37-3.96-1.92-10.72-4.65-20.26-2.35-7.93-3.47-11.83-3.35-11.71l1.49,1.3c.99.62,1.49,1.05,1.49,1.3,1.98,1.86,3.65,4.65,5.02,8.36,1.86,4.71,4.27,9.23,7.25,13.57,3.1,4.71,6.07,7.68,8.92,8.92,2.73,1.24,4.52,1.18,5.39-.19.74-.99.68-2.6-.19-4.83-.5-1.36-1.67-7.06-3.53-17.1-1.73-10.65-3.16-17.53-4.27-20.63-.74-5.2-1.36-9.11-1.86-11.71-.99-4.83-3.41-9.97-7.25-15.42-3.96-5.58-7.56-11.96-10.78-19.14l-3.72-9.11c-2.85-6.81-6.13-12.76-9.85-17.84m19.89,164.1c.12,1.24-.19,2.29-.93,3.16-.99,1.98-2.97,2.79-5.95,2.42-2.85-.12-4.65-.74-5.39-1.86-.62-1.36-1.24-2.6-1.86-3.72-1.98-5.45-5.64-11.89-10.96-19.33-5.45-7.56-8.42-11.77-8.92-12.64-.74-.87-1.3-1.98-1.67-3.35-.62-1.98-1.24-3.84-1.86-5.58-.62-2.11-2.91-7.81-6.88-17.1l-6.88-16.91m65.79,71.92h-.19l.19,5.2c-.5,3.47-1.86,5.14-4.09,5.02-2.73-.37-4.89-1.18-6.5-2.42-1.11-.74-2.29-2.11-3.53-4.09l-.19-.37m0,0c0-.25-.06-.44-.19-.56v.19c-2.73-5.82-6.75-12.58-12.08-20.26-3.96-5.7-7.43-10.47-10.41-14.31-1.36-1.98-2.48-3.84-3.35-5.58-.87-1.61-1.67-3.78-2.42-6.5l-10.96-29.73"/>
            </g>
          </g>
        </g>
        <g id="Hair">
          <g id="Layer_1-12" data-name="Layer 1">
            <g>
              <path class="cls-19" d="m1257.83,454.29c.26.13.39.26.39.39,4.85,5.64,9.96,10.16,15.34,13.57,8.52,5.24,17.76,8.13,27.72,8.65,16.78.66,30.8-5.57,42.07-18.68,11.01-13.11,15.99-28.9,14.94-47.38-.92-18.22-7.47-33.75-19.66-46.59-11.67-12.58-25.43-19.07-41.29-19.46-15.6-.39-28.9,5.31-39.91,17.1-11.01,12.06-16.51,27.07-16.51,45.02s5.64,33.75,16.91,47.38Z"/>
              <path class="cls-10" d="m1257.44,361.89c11.01-11.8,24.31-17.5,39.91-17.1,15.86.39,29.62,6.88,41.29,19.46,12.19,12.84,18.74,28.38,19.66,46.59,1.05,18.48-3.93,34.27-14.94,47.38-11.27,13.11-25.3,19.33-42.07,18.68-9.96-.52-19.2-3.41-27.72-8.65-5.37-3.41-10.49-7.93-15.34-13.57,0-.13-.13-.26-.39-.39-11.27-13.63-16.91-29.43-16.91-47.38s5.5-32.96,16.51-45.02Z"/>
            </g>
          </g>
        </g>
        <g id="Body">
          <g id="Layer_1-13" data-name="Layer 1">
            <g>
              <g>
                <path class="cls-18" d="m1411.46,1013.63c-52.04,0-84.25-.68-96.64-2.04-38.04-4.34-74.65-16.17-109.83-35.5v45.53c22.55,11.27,48.57,18.71,78.05,22.3,59.1,7.19,109.27,9.73,150.53,7.62,42.12-2.11,79.23-8.92,111.32-20.44,19.08-6.94,33.58-14.12,43.49-21.56l-12.45-34.38-58.54,19.33c-44.23,12.76-79.54,19.14-105.93,19.14Z"/>
                <path class="cls-21" d="m1492.86,520.22v.37l4.83,1.86c-1.61-.74-3.22-1.49-4.83-2.23Z"/>
                <path class="cls-14" d="m1366.49,612.77c23.91,17.84,51.54,30.42,82.89,37.73,36.18,8.55,58.6,3.59,67.27-14.87,7.93-16.85,7.31-38.28-1.86-64.3-11.89-26.14-19.2-43.05-21.93-50.73l-32.52-13.57c-22.92-8.92-44.48-15.05-64.67-18.4-21.68-3.59-43.98-3.65-66.9-.19-17.35,2.48-35.87,7.06-55.57,13.75,18.34,2.85,35.19,19.14,50.55,48.88,16.85,32.46,31.1,53.03,42.74,61.7Z"/>
                <path class="cls-20" d="m1130.84,684.13c10.65,14.37,20.13,32.58,28.43,54.64,6.81,18.21,12.33,37.54,16.54,57.98,4.83,23.79,14.56,83.57,29.18,179.34,35.19,19.33,71.8,31.16,109.83,35.5,12.39,1.36,44.6,2.04,96.64,2.04,26.39,0,61.7-6.38,105.93-19.14l58.54-19.33c-.25-14.99.74-28.31,2.97-39.96.99-5.2,5.02-13.26,12.08-24.16,8.42-12.88,15.05-26.2,19.89-39.96,5.58-15.73,5.64-35.81.19-60.21-7.06-23.66-10.9-38.22-11.52-43.67-1.12-9.17-1.86-16.85-2.23-23.04-.37-8.3-.43-19.89-.19-34.75.25-13.26.81-24.72,1.67-34.38l1.3-10.59c5.7-18.46,7.5-35.31,5.39-50.55-.62-4.71-1.05-9.35-1.3-13.94-4.34-10.28-10.47-19.33-18.4-27.13-9.54-9.42-27.88-21-55.01-34.75-11.77-5.95-22.8-11.15-33.08-15.61l-4.83-1.86c2.73,7.68,10.04,24.59,21.93,50.73,9.17,26.02,9.79,47.45,1.86,64.3-8.67,18.46-31.1,23.42-67.27,14.87-31.35-7.31-58.97-19.89-82.89-37.73-11.65-8.67-25.89-29.24-42.74-61.7-15.36-29.73-32.21-46.03-50.55-48.88-1.73-.25-3.47-.37-5.2-.37-20.32-.5-55.26,12.27-104.81,38.28-49.43,26.02-70.74,51.79-63.93,77.31,6.81,25.4,17.35,47.64,31.59,66.72Z"/>
              </g>
              <path class="cls-4" d="m1604.18,599.94c-4.34-10.28-10.47-19.33-18.4-27.13-9.54-9.42-27.88-21-55.01-34.75-11.77-5.95-22.8-11.15-33.08-15.61l-4.83-1.86c2.73,7.68,10.04,24.59,21.93,50.73,9.17,26.02,9.79,47.45,1.86,64.3-8.67,18.46-31.1,23.42-67.27,14.87-31.35-7.31-58.97-19.89-82.89-37.73-11.65-8.67-25.89-29.24-42.74-61.7-15.36-29.73-32.21-46.03-50.55-48.88-1.73-.25-3.47-.37-5.2-.37-20.32-.5-55.26,12.27-104.81,38.28-49.43,26.02-70.74,51.79-63.93,77.31,6.81,25.4,17.35,47.64,31.59,66.72,10.65,14.37,20.13,32.58,28.43,54.64,6.81,18.21,12.33,37.54,16.54,57.98,4.83,23.79,14.56,83.57,29.18,179.34m0,0c35.19,19.33,71.8,31.16,109.83,35.5,12.39,1.36,44.6,2.04,96.64,2.04,26.39,0,61.7-6.38,105.93-19.14l58.54-19.33c-.25-14.99.74-28.31,2.97-39.96.99-5.2,5.02-13.26,12.08-24.16,8.42-12.88,15.05-26.2,19.89-39.96,5.58-15.73,5.64-35.81.19-60.21-7.06-23.66-10.9-38.22-11.52-43.67-1.12-9.17-1.86-16.85-2.23-23.04-.37-8.3-.43-19.89-.19-34.75.25-13.26.81-24.72,1.67-34.38l1.3-10.59"/>
              <path class="cls-7" d="m1575.93,975.16l12.45,34.38c-9.91,7.43-24.41,14.62-43.49,21.56-32.09,11.52-69.2,18.34-111.32,20.44-41.26,2.11-91.43-.43-150.53-7.62-29.49-3.59-55.5-11.03-78.05-22.3v-45.53m68.2-473.9c19.7-6.69,38.22-11.27,55.57-13.75,22.92-3.47,45.22-3.41,66.9.19,20.19,3.35,41.75,9.48,64.67,18.4l32.52,13.57"/>
              <path class="cls-6" d="m1497.69,522.45c-1.61-.74-3.22-1.49-4.83-2.23v.37"/>
            </g>
            <g>
              <g>
                <path class="cls-23" d="m1298.65,488.44c-5.2-1.24-11.89-.74-20.07,1.49-.5.12-1.05.31-1.67.56,27.26,15.63,71.12,43.87,131.58,84.74,60.46,40.85,104.07,75.97,130.83,105.37,26.75,29.38,50.91,49.88,72.48,61.51-.93-3.01-2.97-8.46-6.13-16.35-3.29-7.89-6.76-14.77-10.41-20.63-3.78-5.75-12.39-14.48-25.83-26.2-13.53-11.69-25.37-21.48-35.5-29.36-10.15-7.92-44.47-33.5-102.96-76.75-60.83-43.61-103.14-70.87-126.93-81.77l-5.39-2.6m-229.89,140.12c-2.11,3.22-.5,9.17,4.83,17.84,1.86,3.1,14.81,23.79,38.84,62.07,20.57,32.83,33.2,53.46,37.91,61.89,3.22,5.7,18.71,36.49,46.46,92.36,26.76,53.65,42.68,84.62,47.76,92.92,27.5,45.35,42.87,70.37,46.09,75.08,3.47.62,7.5,1.3,12.08,2.04-19.58-35.31-35.81-66.84-48.69-94.59-5.7-12.14-15.42-31.78-29.18-58.91-11.52-22.8-19.58-39.71-24.16-50.73-32.34-76.94-52.16-123.52-59.47-139.75-7.06-15.86-15.86-30.85-26.39-44.97-12.27-16.6-24.53-26.08-36.8-28.43-2.23,5.2-5.33,9.6-9.29,13.19Z"/>
                <path class="cls-13" d="m1116.53,570.58c-21.81,19.7-34.32,33.89-37.54,42.56-.25.74-.56,1.49-.93,2.23,12.27,2.35,24.53,11.83,36.8,28.43,10.53,14.12,19.33,29.12,26.39,44.97,7.31,16.23,27.13,62.81,59.47,139.75,4.58,11.03,12.64,27.94,24.16,50.73,13.75,27.13,23.48,46.77,29.18,58.91,12.89,27.75,29.12,59.28,48.69,94.59,5.45.74,11.71,1.49,18.77,2.23,8.8.99,27.75.99,56.87,0,26.51-.87,44.35-1.8,53.52-2.79,11.27-.25,23.66-1.05,37.17-2.42,27.01-2.73,46.09-6.63,57.24-11.71,6.81-2.85,14.25-6.26,22.3-10.22,14.99-7.43,27.07-14.99,36.24-22.67-3.23-4.12-4.78-12.48-4.65-25.09.01-12.49,2.61-20.04,7.81-22.67,9.65-3.28,19.31-11.89,28.99-25.83,9.66-13.95,16.53-27.76,20.63-41.44,3.96-13.58,5.82-30.12,5.58-49.62-.23-19.47-2.77-34.34-7.62-44.6-5-10.29-9.46-17.6-13.38-21.93-4.01-4.32-7.48-8.28-10.41-11.89-21.57-11.63-45.73-32.14-72.48-61.51-26.76-29.4-70.37-64.52-130.83-105.37-60.46-40.87-104.31-69.12-131.58-84.74-11.65,3.35-29.73,9.54-54.27,18.58-28.5,10.53-47.7,18.46-57.61,23.79-11.77,6.44-27.94,19.02-48.5,37.73m-1.67,8.73c11.4,15.36,23.6,32.65,36.61,51.85,26.27,38.41,43.67,67.03,52.22,85.86,8.8,19.45,21.25,52.41,37.35,98.87,10.16,29.49,19.51,57.61,28.06,84.37,5.7,17.84,14.06,39.96,25.09,66.35,13.38,32.09,23.66,52.35,30.85,60.77-7.19-8.42-17.47-28.68-30.85-60.77-11.03-26.39-19.39-48.5-25.09-66.35-8.55-26.76-17.9-54.89-28.06-84.37-16.11-46.46-28.56-79.42-37.35-98.87-8.55-18.83-25.96-47.45-52.22-85.86-13.01-19.2-25.21-36.49-36.61-51.85m186.21,76.01c40.89,49.31,72.42,96.39,94.59,141.24,19.58,39.65,55.57,114.04,107.97,223.2-52.41-109.15-88.4-183.55-107.97-223.2-22.18-44.85-53.71-91.93-94.59-141.24-11.03-13.26-32.71-34.01-65.04-62.26-30.35-26.64-51.29-43.73-62.81-51.29,11.52,7.56,32.46,24.65,62.81,51.29,32.34,28.25,54.02,49,65.04,62.26m228.21,135.11l47.2,66.53-47.2-66.53c-37.04-50.18-69.13-89.76-96.27-118.75-25.4-27.13-55.19-60.83-89.39-101.1-33.2-39.4-51.23-60.58-54.08-63.56,2.85,2.97,20.88,24.16,54.08,63.56,34.19,40.27,63.99,73.97,89.39,101.1,27.13,28.99,59.22,68.58,96.27,118.75m-147.56,85.49c7.68-10.41,13.13-21.68,16.35-33.82-3.22,12.14-8.67,23.42-16.35,33.82-7.56,10.41-16.66,18.96-27.32,25.65-10.65,6.81-22.36,11.4-35.12,13.75-12.64,2.48-25.21,2.54-37.73.19,12.51,2.35,25.09,2.29,37.73-.19,12.76-2.35,24.47-6.94,35.12-13.75,10.65-6.69,19.76-15.24,27.32-25.65m34.57,153.13l-23.6-20.26c-17.35-17.1-30.42-34.81-39.21-53.15,8.8,18.34,21.87,36.05,39.21,53.15l23.6,20.26m78.98-118.2c-17.59-15.61-31.72-32.77-42.37-51.48,10.65,18.71,24.78,35.87,42.37,51.48,13.5,11.77,25.58,16.91,36.24,15.42-10.65,1.49-22.73-3.65-36.24-15.42m84.93,28.43c-1.24.5-2.85.93-4.83,1.3-1.12.12-2.73.31-4.83.56-5.95,0-9.66-.19-11.15-.56-4.09-.37-7.5-1.92-10.22-4.65,2.73,2.73,6.13,4.27,10.22,4.65,1.49.37,5.2.56,11.15.56,2.11-.25,3.72-.43,4.83-.56,1.98-.37,3.59-.81,4.83-1.3m-318.16-23.97l-20.44-6.32,20.44,6.32c3.22.5,6.01.56,8.36.19-2.35.37-5.14.31-8.36-.19Z"/>
              </g>
              <path class="cls-7" d="m1575.93,975.16l12.45,34.38c-9.91,7.43-24.41,14.62-43.49,21.56-32.09,11.52-69.2,18.34-111.32,20.44-41.26,2.11-91.43-.43-150.53-7.62-29.49-3.59-55.5-11.03-78.05-22.3v-45.53m103.01-484.06c5.19-1.12,12.28-2.48,20.76-3.59,31.48-4.1,56.47-1.54,66.9.19,20.19,3.35,41.75,9.48,64.67,18.4l32.52,13.57"/>
              <path class="cls-6" d="m1497.69,522.45c-1.61-.74-3.22-1.49-4.83-2.23v.37"/>
            </g>
          </g>
        </g>
        <g id="Neck">
          <g id="Layer_1-14" data-name="Layer 1">
            <g>
              <path class="cls-16" d="m1384.05,513.9c34.84,9.16,54.02,5.45,57.52-11.15-2.33-29.12-3.37-49.5-3.11-61.14.52-6.19-.45-13.01-2.91-20.44-4.79-14.74-14.38-24.96-28.76-30.66-20.34-7.93-40.35-12.14-60.05-12.64-22.93-.5-34.97,5.02-36.14,16.54-1.18,11.65-2.02,29.3-2.53,52.96-.63,23.66-2.12,37.91-4.47,42.74,18.68,6.71,45.49,14.64,80.45,23.79Z"/>
              <path class="cls-1" d="m1306.7,414.47c-1.68-.74-3.37-1.49-5.05-2.23v.37"/>
            </g>
          </g>
        </g>
        <g id="Saree">
          <g id="Layer_1-15" data-name="Layer 1">
            <g>
              <g>
                <path class="cls-23" d="m1305.53,1043.18l35.31,148.86c29.36,112.87,58.48,203.12,87.35,270.77,34.07,79.91,60.09,139.51,78.05,178.78,17.35,37.54,31.16,64.92,41.44,82.14,7.56,12.64,21.68,47.7,42.37,105.19,21.43,59.47,33.89,92.49,37.35,99.05,1.61-2.6,3.16-5.95,4.65-10.04,2.73-7.93,3.41-15.24,2.04-21.93-.5-2.23-.74-4.83-.74-7.81l-44.79-106.12c-4.96-11.89-14.43-33.33-28.43-64.3-14.37-31.72-25.34-55.32-32.89-70.81-27.88-57.36-45.96-96.89-54.27-118.57-12.39-31.72-22.67-58.23-30.85-79.54-15.36-39.89-25.77-67.89-31.22-84-5.58-16.35-16.17-54.45-31.78-114.29-3.84-14.62-14.31-55.63-31.41-123.03-5.33-20.94-9.79-39.4-13.38-55.38l-6.32-26.39c-7.93-.5-15.42-1.36-22.49-2.6Z"/>
                <path class="cls-13" d="m1334.33,1072.17c3.59,15.98,8.05,34.44,13.38,55.38,17.1,67.4,27.57,108.41,31.41,123.03,15.61,59.84,26.2,97.94,31.78,114.29,5.45,16.11,15.86,44.11,31.22,84,8.18,21.31,18.46,47.82,30.85,79.54,8.3,21.68,26.39,61.2,54.27,118.57,7.56,15.49,18.52,39.09,32.89,70.81,14,30.97,23.48,52.41,28.43,64.3l44.79,106.12c-.12-4.71.37-10.28,1.49-16.73,2.23-13.13,3.35-22.8,3.35-28.99,0-97.75-.19-159.95-.56-186.59-.12-12.88-1.11-35.37-2.97-67.46-1.73-29.36-2.54-48.88-2.42-58.54.12-12.14-.81-51.54-2.79-118.2-1.73-56.37-2.97-94.53-3.72-114.48-1.12-27.88-2.17-47.39-3.16-58.54-2.73-30.23-7.19-53.65-13.38-70.25-1.24-3.59-2.48-8.05-3.72-13.38-2.23-10.9-3.04-21-2.42-30.29.99-15.12,1.49-24.9,1.49-29.36-.12-9.29-1.36-17.84-3.72-25.65-.87-2.97-3.47-10.22-7.81-21.74-2.48-6.69-3.59-11.4-3.35-14.12,1.36-7.93,2.35-14.62,2.97-20.07,1.24-10.41.62-16.79-1.86-19.14-1.11-1.12-4.03-.25-8.73,2.6-10.28,6.07-17.41,10.1-21.37,12.08-27.63,13.63-61.95,22.8-102.96,27.5-48.19,5.45-83.26,8.55-105.19,9.29-8.55.25-16.73.12-24.53-.37l6.32,26.39m208.14,390.27c-31.47-71.61-50.92-129.35-58.35-173.2,7.43,43.86,26.89,101.59,58.35,173.2,15.73,35.81,30.73,67.21,44.97,94.22-14.25-27.01-29.24-58.42-44.97-94.22Z"/>
              </g>
              <path class="cls-6" d="m1627.41,1927.97c1.61-2.6,3.16-5.95,4.65-10.04,2.73-7.93,3.41-15.24,2.04-21.93-.5-2.23-.74-4.83-.74-7.81m-305.34-842.42c-7.93-.5-15.42-1.36-22.49-2.6l35.31,148.86"/>
              <path class="cls-5" d="m1634.84,1871.47c2.23-13.13,3.35-22.8,3.35-28.99,0-97.75-.19-159.95-.56-186.59-.12-12.88-1.11-35.37-2.97-67.46-1.73-29.36-2.54-48.88-2.42-58.54.12-12.14-.81-51.54-2.79-118.2-1.73-56.37-2.97-94.53-3.72-114.48-1.12-27.88-2.17-47.39-3.16-58.54-2.73-30.23-7.19-53.65-13.38-70.25-1.24-3.59-2.48-8.05-3.72-13.38-2.23-10.9-3.04-21-2.42-30.29.99-15.12,1.49-24.9,1.49-29.36-.12-9.29-1.36-17.84-3.72-25.65-.87-2.97-3.47-10.22-7.81-21.74-2.48-6.69-3.59-11.4-3.35-14.12,1.36-7.93,2.35-14.62,2.97-20.07,1.24-10.41.62-16.79-1.86-19.14-1.11-1.12-4.03-.25-8.73,2.6-10.28,6.07-17.41,10.1-21.37,12.08-27.63,13.63-61.95,22.8-102.96,27.5-48.19,5.45-83.26,8.55-105.19,9.29-8.55.25-16.73.12-24.53-.37l6.32,26.39c3.59,15.98,8.05,34.44,13.38,55.38,17.1,67.4,27.57,108.41,31.41,123.03,15.61,59.84,26.2,97.94,31.78,114.29,5.45,16.11,15.86,44.11,31.22,84,8.18,21.31,18.46,47.82,30.85,79.54,8.3,21.68,26.39,61.2,54.27,118.57,7.56,15.49,18.52,39.09,32.89,70.81,14,30.97,23.48,52.41,28.43,64.3l44.79,106.12c-.12-4.71.37-10.28,1.49-16.73Z"/>
              <path class="cls-8" d="m1340.84,1192.04c29.36,112.87,58.48,203.12,87.35,270.77,34.07,79.91,60.09,139.51,78.05,178.78,17.35,37.54,31.16,64.92,41.44,82.14,7.56,12.64,21.68,47.7,42.37,105.19,21.43,59.47,33.89,92.49,37.35,99.05"/>
            </g>
            <g>
              <path class="cls-5" d="m1634.84,1871.47c2.23-13.13,3.35-22.8,3.35-28.99,0-97.75-.19-159.95-.56-186.59-.12-12.88-1.11-35.37-2.97-67.46-1.73-29.36-2.54-48.88-2.42-58.54.12-12.14-.81-51.54-2.79-118.2-1.73-56.37-2.97-94.53-3.72-114.48-1.12-27.88-2.17-47.39-3.16-58.54-2.73-30.23-7.19-53.65-13.38-70.25-1.24-3.59-2.48-8.05-3.72-13.38-2.23-10.9-3.04-21-2.42-30.29.99-15.12,1.49-24.9,1.49-29.36-.12-9.29-1.36-17.84-3.72-25.65-.87-2.97-3.47-10.22-7.81-21.74-2.48-6.69-3.59-11.4-3.35-14.12,1.36-7.93,2.35-14.62,2.97-20.07,1.24-10.41.62-16.79-1.86-19.14-1.11-1.12-4.03-.25-8.73,2.6-10.28,6.07-17.41,10.1-21.37,12.08-27.63,13.63-61.95,22.8-102.96,27.5-48.19,5.45-83.26,8.55-105.19,9.29-8.55.25-16.73.12-24.53-.37l6.32,26.39c3.59,15.98,8.05,34.44,13.38,55.38,17.1,67.4,27.57,108.41,31.41,123.03,15.61,59.84,26.2,97.94,31.78,114.29,5.45,16.11,15.86,44.11,31.22,84,8.18,21.31,18.46,47.82,30.85,79.54,8.3,21.68,26.39,61.2,54.27,118.57,7.56,15.49,18.52,39.09,32.89,70.81,14,30.97,23.48,52.41,28.43,64.3l44.79,106.12c-.12-4.71.37-10.28,1.49-16.73Z"/>
              <path class="cls-8" d="m1340.84,1192.04c29.36,112.87,58.48,203.12,87.35,270.77,34.07,79.91,60.09,139.51,78.05,178.78,17.35,37.54,31.16,64.92,41.44,82.14,7.56,12.64,21.68,47.7,42.37,105.19,21.43,59.47,33.89,92.49,37.35,99.05"/>
              <g>
                <path class="cls-23" d="m1340.65,1266.74c25.65,36.67,51.04,67.52,76.2,92.55,30.73,30.48,63.37,54.82,97.94,73.04,42.99,22.55,70.81,38.96,83.44,49.25,18.83,15.24,31.22,34.5,37.17,57.8.5-6.57.5-11.03,0-13.38,2.11-3.47,3.72-7.5,4.83-12.08,2.11-9.29-.31-20.63-7.25-34.01-7.31-4.71-17.04-10.84-29.18-18.4-24.41-14.99-55.94-32.77-94.59-53.34-7.06-3.59-16.04-9.17-26.95-16.73-21.93-15.12-42.68-32.46-62.26-52.04-25.27-25.15-43.36-43.98-54.27-56.5-13.13-14.99-23.73-29.61-31.78-43.86-8.55-14.87-18.15-32.4-28.81-52.59-10.78-20.07-17.59-33.39-20.44-39.96-4.09-9.17-22.55-41.5-55.38-97.01,6.07,11.4,19.64,39.71,40.7,84.93,29.49,63.06,53.03,107.17,70.62,132.32Z"/>
                <path class="cls-13" d="m1234.54,1023.11c-7.93-1.61-13.26-.43-15.98,3.53v5.02c.74,4.09,3.22,8.12,7.43,12.08.37.37,1.24,1.86,2.6,4.46.25.37.5.81.74,1.3,32.83,55.5,51.29,87.84,55.38,97.01,2.85,6.57,9.66,19.89,20.44,39.96,10.65,20.19,20.26,37.73,28.81,52.59,8.05,14.25,18.65,28.87,31.78,43.86,10.9,12.51,28.99,31.35,54.27,56.5,19.58,19.58,40.33,36.92,62.26,52.04,10.9,7.56,19.88,13.13,26.95,16.73,38.66,20.57,70.19,38.35,94.59,53.34,12.14,7.56,21.87,13.69,29.18,18.4-2.73-45.96-4.34-76.44-4.83-91.43-1.86-92.67-4.09-148.12-6.69-166.33-1.73-12.02-3.72-22.67-5.95-31.96-.99-4.09-3.22-12.02-6.69-23.79-2.48-8.42-4.15-17.35-5.02-26.76-.87-9.79-.81-18.77.19-26.95,1.24-9.79,1.11-20.32-.37-31.59-1.73-13.75-5.2-25.46-10.41-35.12-2.48-4.58-3.41-8.49-2.79-11.71,1.36-3.72,2.48-6.75,3.35-9.11,3.35-9.29.99-23.17-7.06-41.63l-27.32,18.77c-22.18,13.01-43.43,21-63.74,23.97-31.59,4.58-67.77,7.5-108.53,8.73-50.55,1.49-86.48-.93-107.79-7.25l-12.64-3.9c-9.42-1.98-16.42-1.05-21,2.79l-11.15-3.53m9.48,10.04c5.2,8.67,9.48,14.62,12.82,17.84-3.35-3.22-7.62-9.17-12.82-17.84m17.1,51.85c14.25,28.99,35.37,61.58,63.37,97.75,56,72.48,118.2,126.93,186.58,163.35-68.39-36.42-130.58-90.88-186.58-163.35-28-36.18-49.12-68.76-63.37-97.75m325.59-41.26l-14.87,10.96c-13.88,8.05-30.6,14.06-50.18,18.03-62.57,12.89-141.86,3.22-237.88-28.99,96.02,32.21,175.31,41.88,237.88,28.99,19.58-3.96,36.3-9.97,50.18-18.03l14.87-10.96m-24.53,96.45l23.04-8.36-23.04,8.36c-19.95,5.58-41.63,8.3-65.04,8.18-75.08-.25-153.26-28.93-234.53-86.04,81.27,57.12,159.45,85.8,234.53,86.04,23.42.12,45.1-2.6,65.04-8.18m-64.12,90.13c20.81,24.04,62.44,80.1,124.89,168.19-62.44-88.09-104.07-144.15-124.89-168.19Z"/>
              </g>
            </g>
          </g>
        </g>
        <g id="Head">
          <g>
            <g id="Face">
              <g>
                <g>
                  <path class="cls-14" d="m1345.22,184.14c-27.73,33.73-41.5,79.44-41.3,137.12-.65,9.59-.78,19.93-.39,31.03.72,22.18,3.56,37.03,8.51,44.53,6.13,9.33,16.34,19.93,30.63,31.81,14.88,12.46,29.59,22.31,44.14,29.56,22.38,11.16,35.56,17.49,39.54,18.99,12.98,4.63,25.12,5.35,36.41,2.15,11.35-3.26,23.55-11.26,36.6-23.98,9.59-9.33,17.75-19.12,24.47-29.36,6.72-10.18,12.3-21.96,16.74-35.33,6.39-19.05,9.66-39.25,9.79-60.58.26-43.52.33-66.88.2-70.08-1.17-26.03-5.25-49.75-12.23-71.15-7.96-24.34-22.51-41.4-43.65-51.19-20.36-9.4-43.59-10.7-69.68-3.91-32.49,8.42-59.08,25.22-79.77,50.4m103.35,202.11c1.7,1.7,3.65,2.45,5.87,2.25.78-.2,2.19-.75,4.21-1.66,1.83-.78,3.39-1.24,4.7-1.37,2.15-.39,5.15.42,9,2.45,4.18,1.96,7.28,2.94,9.3,2.94,1.89,0,3.75-.69,5.58-2.06,1.7-1.3,3.1-2.9,4.21-4.8,1.37-2.22,2.06-6.17,2.06-11.84-.65-5.15-2.84-11.65-6.56-19.48-4.63-9-7.41-15.37-8.32-19.09-1.76-6.98-2.22-16.83-1.37-29.56-.85,12.72-.39,22.58,1.37,29.56.91,3.72,3.69,10.08,8.32,19.09,3.72,7.83,5.9,14.32,6.56,19.48,0,5.68-.69,9.62-2.06,11.84-1.11,1.89-2.51,3.49-4.21,4.8-1.83,1.37-3.69,2.06-5.58,2.06-2.02,0-5.12-.98-9.3-2.94-3.85-2.02-6.85-2.84-9-2.45-1.3.13-2.87.59-4.7,1.37-2.02.91-3.43,1.47-4.21,1.66-2.22.2-4.18-.55-5.87-2.25-1.63-1.5-2.45-3.36-2.45-5.58,0,2.22.82,4.08,2.45,5.58m28.58-140.45v.2c-.06,2.34-.87,4.3-2.45,5.87-1.63,1.63-3.62,2.45-5.97,2.45s-4.34-.82-5.97-2.45-2.45-3.62-2.45-5.97.82-4.44,2.45-6.07c.43-.43.89-.82,1.37-1.17,1.34-.85,2.87-1.27,4.6-1.27,2.35,0,4.34.82,5.97,2.45,1.63,1.63,2.45,3.62,2.45,5.97Z"/>
                  <path class="cls-30" d="m1464.13,238.66c-.48.35-.94.74-1.37,1.17-1.63,1.63-2.45,3.65-2.45,6.07s.82,4.34,2.45,5.97,3.62,2.45,5.97,2.45,4.34-.82,5.97-2.45c1.58-1.58,2.39-3.53,2.45-5.87v-.2c0-2.35-.82-4.34-2.45-5.97-1.63-1.63-3.62-2.45-5.97-2.45-1.73,0-3.26.42-4.6,1.27Z"/>
                </g>
                <path class="cls-3" d="m1345.22,184.14c20.68-25.19,47.27-41.99,79.77-50.4,26.1-6.79,49.33-5.48,69.68,3.91,21.14,9.79,35.69,26.85,43.65,51.19,6.98,21.4,11.06,45.12,12.23,71.15.13,3.2.07,26.56-.2,70.08-.13,21.34-3.39,41.53-9.79,60.58-4.44,13.38-10.02,25.15-16.74,35.33-6.72,10.24-14.88,20.03-24.47,29.36-13.05,12.72-25.25,20.72-36.6,23.98-11.29,3.2-23.42,2.48-36.41-2.15-3.98-1.5-17.16-7.83-39.54-18.99-14.55-7.24-29.26-17.09-44.14-29.56-14.29-11.88-24.5-22.48-30.63-31.81-4.96-7.5-7.8-22.35-8.51-44.53-.39-11.09-.26-21.43.39-31.03-.2-57.68,13.57-103.39,41.3-137.12Z"/>
              </g>
              <g>
                <path class="cls-25" d="m1456.19,421.93c-4.16-1.08-10.73-1.29-19.69-.65,6.67,6.87,13.03,10.85,19.1,11.96,2.67.57,5.26.56,7.78-.03l.24-.02c.69-.15,1.71-.24,3.07-.28.73-.18,1.56-.26,2.48-.22.16-.06.27-.07.35-.03,1.76-.42,3.96-1.1,6.6-2.07,4.31-1.39,8.63-4.77,12.97-10.15-6.62-.61-11.3-.37-14.03.72-2.31,1-3.96,1.51-4.95,1.52h-.12c-.16.03-.48.05-.94.1-.61-.04-1.44,0-2.48.09l-1.18-.03c-.33.12-.77.25-1.3.38l-1.18.11c-.63.05-2.87-.42-6.72-1.41m-23.46-5c1.28,1.53,2.54,2.98,3.77,4.35,8.96-.65,15.52-.43,19.69.65,3.85.99,6.09,1.46,6.72,1.41l1.18-.11c.53-.14.96-.27,1.3-.38l1.18.03c1.04-.09,1.86-.12,2.48-.09.47-.04.78-.07.94-.08h.12c.99-.02,2.64-.53,4.95-1.53,2.73-1.1,7.41-1.34,14.03-.72.69-1.05,1.35-2.05,2-3l.59-1.13c-.98.16-2.2.22-3.65.19-3.39-.13-6.5-.79-9.31-1.98-.9-.35-1.72-.67-2.48-.98-2.04-.66-3.69-.96-4.95-.9-.96.12-1.86.47-2.71,1.05-.37.25-.69.55-.94.89-.2-.12-.39-.19-.59-.22l-.12-.12v.13c.19.19.07.42-.35.7.81-.12,1.05-.05.71.2.34-.25.11-.32-.71-.2.43-.28.54-.52.35-.7-.12-.17-.2-.25-.24-.25-.73-.68-1.63-1.09-2.71-1.23-1.35-.24-3.31-.11-5.89.39-1.15.23-2.37.56-3.65,1-4.4,1.14-9.43,1.68-15.09,1.62-3.13-.05-5.76-.26-7.9-.63l1.3,1.63Z"/>
                <path class="cls-2" d="m1345.18,184.13c20.68-25.19,47.27-41.99,79.76-50.4,26.1-6.79,49.33-5.48,69.68,3.91,21.14,9.79,35.69,26.85,43.65,51.19,6.98,21.4,11.06,45.12,12.23,71.15.13,3.2.07,26.56-.2,70.08-.13,21.34-3.39,41.53-9.79,60.58-4.44,13.38-10.02,25.15-16.74,35.33-6.72,10.24-14.88,20.03-24.47,29.36-13.05,12.72-25.25,20.72-36.6,23.98-11.29,3.2-23.42,2.48-36.41-2.15-3.98-1.5-17.16-7.83-39.54-18.99-14.55-7.24-29.26-17.09-44.14-29.56-14.29-11.87-24.5-22.48-30.63-31.81-4.96-7.5-7.8-22.35-8.51-44.53-.39-11.09-.26-21.43.39-31.02-.2-57.68,13.57-103.38,41.3-137.12Z"/>
              </g>
            </g>
            <g id="Hair-2" data-name="Hair">
              <g>
                <path class="cls-19" d="m1214.85,279.08c7.89,39.08,19.61,63.94,35.14,74.58,4.24,2.68,8.19,5.64,11.84,8.91,10.64,2.09,17.29.85,19.97-3.72.74-1.27,2.21-3.84,4.4-7.73.41-2.84,1.38-6.46,2.94-10.86,2.48-6.98,5.02-10.57,7.63-10.77,2.41-.2,2.9,1.86,1.47,6.17-.72,2.02-1.08,3.16-1.08,3.43,0,.72.69.49,2.06-.69,3.98-3.33,7.24-7.9,9.79-13.7,3.46-7.57,4.89-15.86,4.31-24.86-.65-10.05.03-18.27,2.06-24.66,1.96-6.39,5.55-11.94,10.77-16.64,1.57-1.44,10.18-7.67,25.84-18.69,13.57-9.59,23.1-17.62,28.58-24.08,6.46-7.57,11.65-14.71,15.56-21.43,3.07-5.15,5.74-10.77,8.03-16.83,1.76-4.63,5.19-8.78,10.28-12.43,3.26-2.35,8.61-5.32,16.05-8.91,7.5-3.59,12.66-6.17,15.46-7.73,4.7-2.68,7.9-5.06,9.59-7.14,1.76-2.28,4.01-3.52,6.75-3.72,2.61-.2,4.89.52,6.85,2.15,1.76,1.5,6.85,4.44,15.27,8.81,7.96,4.18,13.96,7.11,18.01,8.81,3.85,1.63,7.05,4.21,9.59,7.73,2.74,3.78,5.45,9.62,8.12,17.52,2.41,7.24,4.86,13.08,7.34,17.52,1.7,2.94,3.69,5.71,5.97,8.32,2.54,2.87,5.71,12.07,9.49,27.6,3.85,15.79,5.61,30.7,5.29,44.73-.39,15.59-.33,27.11.2,34.55.85,13.18,3.07,21.79,6.66,25.84l-.78-4.89c-.33-4.44-.07-9.4.78-14.88.65-4.5,3.1-11.03,7.34-19.57,4.44-8.94,7.11-15.69,8.03-20.26,1.7-8.81,2.87-19.18,3.52-31.12.72-14.81.13-26.72-1.76-35.72-2.74-13.05-7.24-29.98-13.51-50.8-2.87-9.59-6.62-18.95-11.26-28.09-8.09-16.05-17.23-27.89-27.4-35.53-12.46-9.27-23.39-15.66-32.79-19.18-10.18-3.78-19.7-4.67-28.58-2.64l-10.28-5.87c-8.81-4.05-18.11-6.33-27.89-6.85-14.03-.72-31.32,1.21-51.87,5.77-24.27,5.35-43.91,12.82-58.92,22.41-16.83,10.7-33.11,24.08-48.84,40.13-16.18,16.44-27.14,31.03-32.88,43.75-15.46,34.19-19.84,67.96-13.11,101.3Z"/>
                <path class="cls-11" d="m1261.83,362.56c-3.65-3.26-7.6-6.23-11.84-8.91-15.53-10.64-27.24-35.49-35.14-74.58-6.72-33.34-2.35-67.11,13.11-101.3,5.74-12.72,16.7-27.31,32.88-43.75,15.72-16.05,32-29.43,48.84-40.13,15.01-9.59,34.65-17.06,58.92-22.41,20.55-4.57,37.84-6.49,51.87-5.77,9.79.52,19.08,2.81,27.89,6.85l10.28,5.87c8.87-2.02,18.4-1.14,28.58,2.64,9.4,3.52,20.32,9.92,32.79,19.18,10.18,7.63,19.31,19.48,27.4,35.53,4.63,9.13,8.38,18.5,11.26,28.09,6.26,20.81,10.77,37.75,13.51,50.8,1.89,9,2.48,20.91,1.76,35.72-.65,11.94-1.83,22.31-3.52,31.12-.91,4.57-3.59,11.32-8.03,20.26-4.24,8.55-6.69,15.07-7.34,19.57-.85,5.48-1.11,10.44-.78,14.88l.78,4.89c-3.59-4.05-5.81-12.66-6.66-25.84-.52-7.44-.59-18.95-.2-34.55.33-14.03-1.44-28.94-5.29-44.73-3.78-15.53-6.95-24.73-9.49-27.6-2.28-2.61-4.27-5.38-5.97-8.32-2.48-4.44-4.93-10.28-7.34-17.52-2.68-7.89-5.38-13.73-8.12-17.52-2.54-3.52-5.74-6.1-9.59-7.73-4.05-1.7-10.05-4.63-18.01-8.81-8.42-4.37-13.51-7.31-15.27-8.81-1.96-1.63-4.24-2.35-6.85-2.15-2.74.2-4.99,1.44-6.75,3.72-1.7,2.09-4.89,4.47-9.59,7.14-2.81,1.57-7.96,4.14-15.46,7.73-7.44,3.59-12.79,6.56-16.05,8.91-5.09,3.65-8.51,7.8-10.28,12.43-2.28,6.07-4.96,11.68-8.03,16.83-3.91,6.72-9.1,13.87-15.56,21.43-5.48,6.46-15.01,14.48-28.58,24.08-15.66,11.03-24.27,17.26-25.84,18.69-5.22,4.7-8.81,10.24-10.77,16.64-2.02,6.39-2.71,14.62-2.06,24.66.59,9-.85,17.29-4.31,24.86-2.54,5.81-5.81,10.37-9.79,13.7-1.37,1.17-2.06,1.4-2.06.69,0-.26.36-1.4,1.08-3.43,1.44-4.31.95-6.36-1.47-6.17-2.61.2-5.15,3.78-7.63,10.77-1.55,4.4-2.53,8.02-2.94,10.86"/>
              </g>
            </g>
            <g id="Eye">
              <g>
                <g id="BG">
                  <g id="Layer_1-16" data-name="Layer 1">
                    <path class="cls-28" d="m1486.5,304.62c-.56.45-.49,1.04.2,1.77.08.16.7.5,1.85,1.01.62.18,2.52,1.23,5.69,3.15,3.43,2.16,6.72,3.5,9.85,4.01,2.78.5,6.29.48,10.55-.06,5.35-.65,10.09-2.03,14.23-4.14,5.33-2.69,8.4-6.08,9.19-10.2.13-1.09-.57-2.76-2.11-5.01-1.9-2.26-3.06-3.75-3.48-4.47l-.9-1.21c-.44-.33-1.15-.71-2.12-1.14-1.96-.7-4.69-1.24-8.19-1.61-5.3-.44-9.68-.3-13.14.43-2.18.46-4.34,1.36-6.46,2.68-2.13,1.4-4.7,3.77-7.71,7.09-3.3,3.78-5.79,6.34-7.47,7.68Z"/>
                    <path class="cls-26" d="m1513.76,314.11c-4.35.35-8.28-.03-11.79-1.14-2.86-.8-5.77-2.14-8.72-4.04l-3.48-1.77c-.78-.32-1.65-.64-2.63-.96-.45-.25-.67-.63-.65-1.14.14-.28.18-.45.12-.51-.26-.01-.47.13-.61.41-.35.62-.21,1.25.42,1.91.25.3.67.57,1.25.82l1.36.57,3.08,2.01c3.07,2.18,6.1,3.73,9.09,4.65,3.83,1.3,8.08,1.77,12.76,1.44,2.57-.19,4.75-.5,6.55-.95,1.86-.44,3.79-1.12,5.8-2.01,3.41-1.53,6.18-3.38,8.3-5.53,1.78-1.71,2.9-3.53,3.37-5.46.39-1.48.41-2.22.09-2.23l-1.06,1.94c-.86,1.75-2.1,3.3-3.73,4.67-2.11,1.87-4.77,3.46-7.97,4.77-3.74,1.46-7.58,2.32-11.54,2.57Z"/>
                    <path class="cls-28" d="m1372.07,301.02h-.13c3.48,3.41,7.56,6.27,12.25,8.56,4.61,2.13,9.47,3.57,14.58,4.31,5.11.74,10.25.67,15.43-.22,5.17-.82,10.01-2.35,14.52-4.6,1.46-.57,2.61-1.07,3.44-1.51,1.65-.8,2.54-1.5,2.65-2.13.11-.46-.14-1.06-.74-1.79-.6-.88-1.31-2.4-2.12-4.54-.73-1.98-1.44-3.46-2.13-4.42-1.72-2.18-3.19-3.8-4.41-4.86-1.83-1.56-3.82-2.73-5.95-3.51-3.02-1.13-7.86-2.06-14.5-2.79-6.74-.57-11.61-.64-14.6-.21-4.63.68-8.54,2.84-11.75,6.46-2.08,2.42-4.25,6.17-6.52,11.24Z"/>
                    <path class="cls-26" d="m1370.81,300.42l1.32,1.51c1.58,1.72,3.52,3.41,5.82,5.04,2.94,2.12,6.42,3.95,10.44,5.48,5.06,1.8,9.92,2.76,14.58,2.89,5.06.02,9.95-.68,14.68-2.1,3.52-1.01,7.19-2.42,11.01-4.22l2.01-.95c.33-.16.97-.36,1.9-.62.86-.2,1.5-.43,1.9-.7.67-.43,1.02-.94,1.04-1.51.02-.63-.31-1.27-1.01-1.93-.38-.36-.64-.48-.77-.37l.37.62c.37.7.51,1.22.43,1.57-.14.28-.38.53-.72.75-.2.11-.73.23-1.59.37-.66.03-1.39.18-2.19.43l-2.3.94c-9.15,3.78-17.37,5.58-24.66,5.41-4.47-.12-9.07-.95-13.81-2.51-3.57-1.23-6.96-2.82-10.17-4.78-1.41-.86-3.49-2.31-6.24-4.37l-.96-.73-.77-.46c-.38-.36-.57-.48-.58-.37-.13,0-.04.2.27.61Z"/>
                  </g>
                </g>
                <g id="Eye_Ball_Right" data-name="Eye Ball Right">
                  <g id="Layer_1-17" data-name="Layer 1">
                    <path class="cls-22" d="m1394.03,306.91c3.3,3.18,7.43,4.9,12.38,5.17,4.95.27,9.28-.97,12.99-3.72s5.7-6.23,5.95-10.44c.25-4.21-1.23-7.9-4.44-11.07-3.39-3.18-7.57-4.9-12.52-5.17-4.95-.27-9.28.97-12.99,3.72-3.71,2.67-5.69,6.15-5.95,10.44-.34,4.21,1.18,7.9,4.58,11.08Z"/>
                    <path class="cls-19" d="m1394.76,296.09c-.18,2.98.9,5.6,3.25,7.87,2.35,2.21,5.26,3.42,8.74,3.61,3.47.25,6.53-.61,9.17-2.57,2.57-1.97,3.95-4.44,4.13-7.41.18-2.98-.87-5.57-3.15-7.78-2.35-2.21-5.26-3.44-8.73-3.69-3.48-.19-6.53.67-9.17,2.57-2.64,1.96-4.05,4.43-4.23,7.41Z"/>
                    <path class="cls-27" d="m1412.49,291.27c.57.6,1.31.94,2.23,1.03.85.03,1.62-.2,2.29-.69.68-.49,1.06-1.13,1.16-1.93.03-.8-.24-1.5-.81-2.1-.63-.6-1.38-.91-2.23-.95-.92-.04-1.72.19-2.39.68-.68.55-1.03,1.19-1.06,1.94-.03.8.24,1.47.81,2.01Z"/>
                  </g>
                </g>
                <g id="Eyeball">
                  <g id="Layer_1-18" data-name="Layer 1">
                    <path class="cls-22" d="m1506.12,308.16c2.6,2.66,5.93,4.11,9.98,4.34,3.96.23,7.47-.85,10.54-3.22,2.97-2.3,4.58-5.24,4.8-8.81.23-3.58-.96-6.7-3.56-9.36-2.69-2.66-6.02-4.11-9.98-4.34-4.05-.23-7.56.81-10.54,3.11-3.07,2.37-4.67,5.34-4.81,8.92-.32,3.57.87,6.69,3.56,9.36Z"/>
                    <path class="cls-19" d="m1509.35,305.6c1.83,1.9,4.16,2.93,6.98,3.09,2.82.16,5.28-.57,7.38-2.21,2.1-1.69,3.24-3.79,3.4-6.31.16-2.46-.68-4.64-2.51-6.54-1.84-1.84-4.16-2.87-6.98-3.09-2.82-.16-5.32.6-7.48,2.29-2.1,1.64-3.23,3.71-3.4,6.23-.16,2.52.71,4.7,2.61,6.54Z"/>
                    <path class="cls-27" d="m1521.11,294.94c.44.5,1.02.76,1.74.79.72.03,1.35-.16,1.9-.57.54-.46.83-1.02.85-1.66.09-.64-.12-1.21-.62-1.72-.44-.5-1.02-.76-1.74-.79-.72-.08-1.35.11-1.9.57-.54.41-.83.96-.85,1.66-.09.64.12,1.21.62,1.72Z"/>
                  </g>
                </g>
                <g id="Eye_Lid" data-name="Eye Lid">
                  <g id="Layer_1-19" data-name="Layer 1">
                    <path class="cls-19" d="m1515.49,289.67c5.51-.33,9.69.02,12.54,1.07.09,0,.44.17,1.06.51l.27.13.39.37,4.64,5.92c1.12,1.29,1.77,1.98,1.95,2.07.52.57,1.37.8,2.54.68.55-.14,1.24-.46,2.07-.98l3.09-3.05-2.48,1.19c-1.19.58-2.06.86-2.6.84-.54-.02-.89-.23-1.06-.63l-2.61-5.85-2.16-3.48-2.5-1.74c-2.12-1.1-4.66-1.86-7.62-2.29-2.6-.41-5.26-.52-7.97-.31-2.71.13-5.34.54-7.89,1.22-3.1.82-5.43,1.78-7.01,2.89l-4.64,4.51c-.19.31-1.19,1.67-3,4.1l-4.28,5.7c-.67.91-1.23,1.59-1.7,2.04l2.49-1.43c1.57-.96,3.57-2.48,5.99-4.58,1.96-1.8,3.22-2.92,3.78-3.37l3.35-2.57.97-.55c2.94-1.37,7.07-2.19,12.4-2.45Z"/>
                  </g>
                  <g id="Layer_1-20" data-name="Layer 1">
                    <path class="cls-19" d="m1383.9,283.11l-1.01.56c-.27.16-.54.41-.82.74l-.71.57-4.22,4.66-2.41,3.61c-2.3,3.47-4.13,5.58-5.47,6.33-1.28.7-3.16.91-5.65.64l-2.26-.26c.45.25,1.16.53,2.14.86l2.64.7c1.51.17,2.86.08,4.05-.27,2.26-.77,4.88-2.82,7.83-6.15l1.75-2,5.41-4.87.61-.41c.34-.27.51-.38.51-.32l.3-.07,4.55-.43c2.96-.12,5.59-.16,7.89-.13,6.71-.03,12.37.45,17,1.43,2.41.49,4.52,1.29,6.32,2.39,1.67.93,3.34,2.14,4.99,3.63,2.16,1.92,3.91,4.22,5.26,6.91l1.37,2.89c.03-.74-.09-1.81-.37-3.2-.61-2.95-1.88-5.72-3.82-8.32-1.19-1.65-2.73-3.29-4.64-4.91-2.43-1.81-4.94-3.09-7.54-3.82-5.39-1.7-11.6-2.54-18.64-2.53-2.76-.05-5.56.07-8.4.36l-4.66.68-.9.31c-.26-.01-.63.12-1.1.39Z"/>
                  </g>
                </g>
                <g id="EyeBrow_Left" data-name="EyeBrow Left">
                  <g id="Layer_1-21" data-name="Layer 1">
                    <path class="cls-19" d="m1507.48,268.16c12.61-3.47,19.88-5.34,21.8-5.61,1.45-.23,4.17-.04,8.16.57,4.12.56,6.72,1.18,7.81,1.85l1.74-4.32c.16-.8.21-1.28.15-1.46-.24-.64-3.21-1.87-8.92-3.7-5.58-1.76-8.74-2.57-9.46-2.43-5.49.99-12.22,2.54-20.18,4.64-7.3,1.9-13.92,3.3-19.87,4.22l-.8,2.98c-.29,2.45,0,5.01.89,7.68.97.27,7.21-1.21,18.7-4.44Z"/>
                  </g>
                </g>
                <g id="Eyebroe_Right" data-name="Eyebroe Right">
                  <g id="Layer_1-22" data-name="Layer 1">
                    <path class="cls-19" d="m1416.49,261.64c18.79,5.08,28.45,7.57,28.98,7.48,1.28-2.59,1.71-5.06,1.27-7.43l-.97-2.87c-15.89-3.71-25.75-5.95-29.6-6.73-11.08-2.38-21.97-4.29-32.69-5.73-5.12,1.69-12.79,5.52-23.01,11.49-5.11,2.95-9.68,5.76-13.73,8.41,17.1-5.7,29.07-9.31,35.89-10.82,3.98-.88,15.26,1.19,33.85,6.21Z"/>
                  </g>
                </g>
              </g>
            </g>
            <g id="Ear">
              <g>
                <g>
                  <path class="cls-29" d="m1300.69,299.24c-2.87-4.89-6.04-9.1-9.49-12.63-3.46-3.39-6.26-5.25-8.42-5.58-4.31-.59-7.76-.52-10.37.2-5.15,1.44-8.51,5.09-10.08,10.96-1.76,6.39-2.51,14.71-2.25,24.96.26,9.2,1.17,16.57,2.74,22.12,1.44,5.15,3.39,10.05,5.87,14.68,2.61,4.89,5.22,8.42,7.83,10.57,2.22,1.76,4.11,3.91,5.68,6.46.72,1.44,1.76,3.33,3.13,5.68,1.83,2.54,3.85,4.37,6.07,5.48,3.52,1.7,7.05,1.14,10.57-1.66,3.46-2.61,5.35-5.15,5.68-7.63-.2-3.13-.16-5.84.1-8.12.78-6.79.91-15.53.39-26.23-.78-15.72-3.26-28.81-7.44-39.25m-17.91-1.57c4.7,12.46,7.73,19.61,9.1,21.43,1.04,1.31,1.37,2.81.98,4.5-.26,1.17-.95,3.23-2.06,6.17-1.04,3.07-1.63,8.42-1.76,16.05,0,5.09.23,9.43.68,13.02.39,2.48.91,4.57,1.57,6.26-.65-1.7-1.17-3.78-1.57-6.26-1.7-2.48-3.03-5.42-4.01-8.81-1.44-4.83-2.35-10.96-2.74-18.4-1.37.26-2.51.91-3.43,1.96-.98,1.04-1.53,2.25-1.66,3.62-.46-2.09-.49-4.27-.1-6.56.46-2.35,1.37-4.44,2.74-6.26,1.17-1.37,2.06-2.45,2.64-3.23,1.04-1.3,1.66-2.54,1.86-3.72.33-1.17.33-2.41,0-3.72-.2-.59-.59-1.79-1.17-3.62-1.24-4.18-1.6-8.32-1.08-12.43-.39-1.24-.85-2.51-1.37-3.82.52,1.3.98,2.58,1.37,3.82Z"/>
                  <path class="cls-31" d="m1285.03,313.73c.33,1.31.33,2.54,0,3.72-.2,1.17-.82,2.41-1.86,3.72-.59.78-1.47,1.86-2.64,3.23-1.37,1.83-2.28,3.91-2.74,6.26-.39,2.28-.36,4.47.1,6.56.13-1.37.69-2.58,1.66-3.62.91-1.04,2.06-1.7,3.43-1.96.39,7.44,1.3,13.57,2.74,18.4.98,3.39,2.32,6.33,4.01,8.81-.46-3.59-.68-7.93-.68-13.02.13-7.63.72-12.98,1.76-16.05,1.11-2.94,1.79-4.99,2.06-6.17.39-1.7.07-3.2-.98-4.5-1.37-1.83-4.4-8.97-9.1-21.43-.52,4.11-.16,8.25,1.08,12.43.59,1.83.98,3.03,1.17,3.62Z"/>
                </g>
                <path class="cls-3" d="m1308.12,338.49c.52,10.7.39,19.44-.39,26.23-.26,2.28-.29,4.99-.1,8.12-.33,2.48-2.22,5.02-5.68,7.63-3.52,2.81-7.05,3.36-10.57,1.66-2.22-1.11-4.24-2.94-6.07-5.48-1.37-2.35-2.41-4.24-3.13-5.68-1.57-2.54-3.46-4.7-5.68-6.46-2.61-2.15-5.22-5.68-7.83-10.57-2.48-4.63-4.44-9.53-5.87-14.68-1.57-5.55-2.48-12.92-2.74-22.12-.26-10.24.49-18.56,2.25-24.96,1.57-5.87,4.93-9.53,10.08-10.96,2.61-.72,6.07-.78,10.37-.2,2.15.33,4.96,2.19,8.42,5.58,3.46,3.52,6.62,7.73,9.49,12.63,4.18,10.44,6.66,23.52,7.44,39.25Z"/>
              </g>
            </g>
          </g>
        </g>
      </g>
    </g>
  </g>
</svg>