<?xml version="1.0" encoding="UTF-8"?>
<svg id="Design" xmlns="http://www.w3.org/2000/svg" viewBox="0 0 2997.17 2968.21">
  <defs>
    <style>
      .cls-1, .cls-2, .cls-3, .cls-4, .cls-5, .cls-6, .cls-7, .cls-8, .cls-9 {
        stroke-miterlimit: 10;
      }

      .cls-1, .cls-2, .cls-3, .cls-4, .cls-5, .cls-6, .cls-7, .cls-8, .cls-9, .cls-10 {
        stroke: #c8906c;
      }

      .cls-2, .cls-11 {
        fill: #ffba9f;
      }

      .cls-3, .cls-12 {
        fill: #d3e2de;
      }

      .cls-4 {
        fill: #e0daca;
      }

      .cls-5 {
        fill: #bcb3a0;
      }

      .cls-6 {
        fill: #ad3100;
      }

      .cls-7 {
        fill: #d14000;
      }

      .cls-8 {
        fill: #b4710f;
      }

      .cls-9 {
        fill: #f99c15;
      }

      .cls-10 {
        fill: none;
        stroke-linecap: round;
        stroke-linejoin: round;
        stroke-width: 2.04px;
      }

      .cls-13, .cls-14, .cls-15, .cls-16, .cls-17, .cls-18, .cls-19, .cls-20, .cls-21, .cls-22, .cls-23, .cls-12, .cls-24, .cls-25, .cls-26, .cls-27, .cls-28, .cls-29, .cls-30, .cls-31, .cls-11, .cls-32, .cls-33, .cls-34 {
        stroke-width: 0px;
      }

      .cls-14 {
        fill: #f9f4f4;
      }

      .cls-15 {
        fill: #9b3f3d;
      }

      .cls-16 {
        fill: #352624;
      }

      .cls-17 {
        fill: #1c100f;
      }

      .cls-18 {
        fill: #231413;
      }

      .cls-19 {
        fill: #230c09;
      }

      .cls-20 {
        fill: #23352f;
      }

      .cls-21 {
        fill: #1e1513;
      }

      .cls-22 {
        fill: #c4c6c6;
      }

      .cls-23 {
        fill: #d38a6e;
      }

      .cls-24 {
        fill: #c6c6c0;
      }

      .cls-25 {
        fill: #c67a46;
      }

      .cls-26 {
        fill: #b21b1b;
      }

      .cls-27 {
        fill: #ce6c6a;
      }

      .cls-28 {
        fill: #b5554e;
      }

      .cls-29 {
        fill: #875330;
      }

      .cls-30 {
        fill: #e8845d;
      }

      .cls-31 {
        fill: #eda283;
      }

      .cls-32 {
        fill: #ffc2a5;
      }

      .cls-33 {
        fill: #ffa378;
      }

      .cls-34 {
        fill: #f4f4ed;
      }
    </style>
  </defs>
  <ellipse class="cls-22" cx="1370.1" cy="2664.14" rx="270.49" ry="65.95"/>
  <path class="cls-20" d="m1406.31,2546.98s10.91,68.57,6.58,95.42l2.82.88c5,1.56,10.36,1.49,15.32-.2l2-.68-5.61-48.26-21.12-47.16Z"/>
  <path class="cls-13" d="m1406.31,2546.98l.32-.05s7.6,47.75,7.6,79.2c0,6.24-.3,11.85-1.02,16.32l-.31-.05.09-.3,2.82.88c2.37.74,4.81,1.1,7.26,1.11,2.66,0,5.32-.43,7.86-1.3l1.76-.6-5.57-47.96-21.1-47.11.29-.13.32-.05-.32.05.29-.13,21.14,47.2,5.64,48.57-2.24.76c-2.61.89-5.34,1.34-8.07,1.34-2.51,0-5.02-.38-7.45-1.13l-3.09-.96.04-.27c.71-4.42,1.01-10,1.01-16.22,0-15.68-1.9-35.46-3.8-51.32-.95-7.93-1.9-14.87-2.61-19.84-.36-2.48-.65-4.47-.86-5.83-.21-1.37-.33-2.11-.33-2.11l-.38-2.38.98,2.19-.29.13Z"/>
  <path class="cls-20" d="m1414.24,2503.9s-8.13,32.93-8.13,47.61c0,21.55,16.36,44.91,18.99,61.41,6.87,43.03,24.19,62.2,63.28,65.84l4.08-95.15-78.23-79.71Z"/>
  <path class="cls-13" d="m1414.24,2503.9l.31.08s-.13.51-.35,1.44c-.78,3.25-2.72,11.57-4.47,20.69-1.75,9.11-3.3,19.03-3.3,25.4,0,10.69,4.07,21.89,8.48,32.48,4.41,10.59,9.17,20.56,10.5,28.89,3.43,21.48,9.46,36.97,19.47,47.52,10.01,10.55,24.02,16.23,43.52,18.05l-.03.32h-.32s4.08-95.03,4.08-95.03l-78.13-79.61.23-.22.31.08-.31-.08.23-.22,78.33,79.81-4.1,95.63-.33-.03c-19.59-1.82-33.79-7.55-43.93-18.24-10.14-10.7-16.2-26.31-19.64-47.86-1.3-8.18-6.04-18.14-10.46-28.74-4.42-10.61-8.53-21.87-8.53-32.72,0-7.39,2.04-19.3,4.07-29.38,2.03-10.07,4.07-18.31,4.07-18.31l.14-.56.4.41-.23.22Z"/>
  <path class="cls-21" d="m1536.8,464.61s-3.41,45.97,9.18,53.53c12.59,7.56-15.11,20.15-7.56,32.75,7.56,12.59,16.6,16,16.6,16,0,0-26.81-13.83-17.93-36.33,8.89-22.5-8.75.17-8.75-50.2,0-50.38,8.45-15.75,8.45-15.75Z"/>
  <path class="cls-7" d="m1287.54,702.52l-104.96,15.57-56.68,1239.48s97.42,94.27,203.57,76.06c14.37-2.47-41.92-1331.11-41.92-1331.11"/>
  <path class="cls-1" d="m1287.54,702.52l.05.32-104.7,15.53-56.67,1239.22h-.32s.22-.24.22-.24c0,0,.31.3.93.88,9.22,8.6,85.95,77.44,174.63,77.43,9.14,0,18.4-.73,27.73-2.33v.05s-.01-.05-.01-.05h.01s0,.05,0,.05l-.02-.05.04-.04c.12-.13.3-.57.45-1.24.54-2.36.95-7.64,1.22-15.46.26-7.83.39-18.23.39-30.91,0-119.12-11.07-439.92-22.13-730.91-5.53-145.5-11.07-283.55-15.22-385.23-2.07-50.84-3.8-92.59-5.01-121.62-.61-14.52-1.08-25.86-1.41-33.57-.16-3.86-.29-6.8-.37-8.79-.08-1.98-.13-3-.13-3h.32s.05.3.05.3l-.05-.32h.32s44.27,1044.85,44.27,1283.14c0,15.21-.18,27.13-.56,35.3-.19,4.08-.44,7.22-.73,9.38-.15,1.08-.31,1.9-.5,2.49-.09.29-.19.53-.31.72-.06.09-.13.18-.21.25-.08.07-.18.13-.3.15-9.37,1.61-18.67,2.34-27.84,2.34-47.47,0-91.46-19.63-123.59-39.24-32.13-19.62-52.4-39.23-52.41-39.24l-.1-.1,56.7-1239.89,105.57-15.66v.35s-.3.01-.3.01"/>
  <circle class="cls-21" cx="1345.1" cy="586.45" r="62.91" transform="translate(233.85 1544.75) rotate(-64.33)"/>
  <path class="cls-2" d="m1406.11,2170.45l7.74,363.14c2.48,20.46,3.03,27.83,3.9,30.85,4.5,15.74,16.95,49.96,19.28,58.79l64.93-38.76-18.14-31.05s-4.98-25.81-7.67-39.42c-2.69-13.6-6.92-58.82-6.92-58.82-4.88-32.79-9.47-74.44,9.62-155.37,6.6-27.97,15.27-67.77,23.88-109.18l-96.61-20.19Z"/>
  <path class="cls-1" d="m1406.11,2170.45h.24s7.74,363.14,7.74,363.14h-.24s.24-.02.24-.02c1.24,10.23,2,17.19,2.55,21.97.56,4.77.91,7.37,1.34,8.85,2.25,7.86,6.49,20.35,10.45,31.97,3.97,11.63,7.66,22.38,8.83,26.82l-.23.06-.12-.21,64.72-38.64-18.04-30.88v-.04s-.09-.4-.23-1.14c-.99-5.13-5.1-26.38-7.45-38.28-2.7-13.64-6.93-58.84-6.93-58.84l.24-.02-.24.04c-2.17-14.58-4.29-30.93-4.29-51.69,0-25.95,3.3-58.8,13.91-103.76,6.6-27.97,15.27-67.77,23.88-109.18l.23.05-.05.23-96.61-20.19.05-.23h.24s-.24,0-.24,0l.05-.23,96.85,20.24-.05.23c-8.61,41.41-17.29,81.22-23.88,109.19-10.6,44.94-13.89,77.75-13.89,103.65,0,20.74,2.11,37.05,4.28,51.62h0s0,.01,0,.01c0,0,.07.71.19,1.97.85,8.83,4.38,44.95,6.73,56.82,2.69,13.61,7.67,39.42,7.67,39.42l-.23.05.21-.12,18.26,31.25-65.4,39.05-.08-.31c-1.16-4.4-4.86-15.17-8.82-26.79-3.97-11.63-8.21-24.12-10.46-32-.44-1.55-.79-4.14-1.35-8.92-.56-4.78-1.32-11.73-2.55-21.96h0s-7.75-363.47-7.75-363.47l.29.06-.05.23Z"/>
  <path class="cls-4" d="m1390.63,1835.19c.4,86.53-2.06,538.47,3.9,614.12,9.43,4.87,24.71,10.46,43.76,9.8,21.39-.74,55.22-9.13,64.44-10.54,7.54-92.75,18.2-359.5,26.52-429.59,7.33-61.74,29.18-135.68,34.79-190.06l-173.41,6.27Z"/>
  <path class="cls-1" d="m1390.63,1835.19h.32c.03,7.27.05,17.13.05,29.13,0,48.46-.22,131.86-.22,221.16,0,151.59.64,320.23,4.07,363.8l-.32.03.15-.28c8.88,4.59,22.99,9.82,40.55,9.82,1.01,0,2.02-.02,3.05-.05,10.66-.37,24.46-2.65,36.73-5.01,12.28-2.37,23.03-4.81,27.66-5.52l.05.32-.32-.03c7.54-92.74,18.2-359.48,26.52-429.6,7.34-61.78,29.19-135.72,34.79-190.06l.32.03v.32s-173.4,6.27-173.4,6.27v-.32s.31,0,.31,0h-.32s-.01-.32-.01-.32l173.78-6.28-.04.36c-5.62,54.43-27.47,128.37-34.79,190.07-8.32,70.06-18.99,336.82-26.52,429.58l-.02.25-.25.04c-4.58.7-15.35,3.15-27.64,5.52-12.29,2.37-26.1,4.65-36.83,5.02-1.03.04-2.06.05-3.07.05-17.69,0-31.89-5.27-40.84-9.89l-.16-.08v-.18c-3.45-43.64-4.09-212.24-4.09-363.85,0-89.3.22-172.7.22-221.16,0-12-.01-21.86-.05-29.13v-.31s.31-.01.31-.01v.32Z"/>
  <path class="cls-2" d="m1251.69,2219.44c24.36,109.03,32.23,164.51,32.71,222.48v.15c.06,7.27,0,14.57-.15,22.02,0,0-4.42,15.59-4.65,22.33-.24,6.74.57,22.17.57,22.17,0,0-16.16,102.26-22.07,119.77l94.04,18.48s3.49-115.72,1.86-134.79v-27.95c0-11.16-7.21-31.62-7.21-31.62,0,0-2.75-144.6,2.83-234.17l-97.94,1.14Z"/>
  <path class="cls-1" d="m1251.69,2219.44l.23-.05c24.36,109.04,32.24,164.54,32.71,222.53h0v.16s0,0,0,0c.01,1.85.02,3.7.02,5.56,0,5.44-.06,10.91-.17,16.47v.03s0,.03,0,.03c0,0-.07.24-.19.68-.42,1.54-1.49,5.47-2.47,9.75-.98,4.28-1.88,8.92-1.98,11.83-.03.86-.04,1.85-.04,2.94,0,3.73.15,8.53.31,12.4.08,1.93.15,3.63.21,4.85.06,1.22.1,1.95.1,1.95v.03s0,.02,0,.02c0,0-4.04,25.57-8.82,53.32-2.39,13.88-4.96,28.3-7.31,40.36-2.35,12.06-4.46,21.73-5.95,26.13l-.23-.08.05-.23,94.04,18.48-.05.23h-.24s.04-1.2.1-3.35c.44-15.09,2.2-77.57,2.2-111.65,0-9.1-.13-16.18-.43-19.77h0v-27.97c0-5.53-1.8-13.43-3.6-19.93-.9-3.25-1.8-6.15-2.48-8.24-.34-1.04-.62-1.89-.82-2.47-.2-.58-.31-.9-.31-.9v-.04s-.01-.04-.01-.04c0,0-.68-35.62-.68-82.45,0-47.53.7-106.61,3.51-151.74h.24s0,.25,0,.25l-97.94,1.14v-.24s.23-.05.23-.05l-.23.05v-.24s98.2-1.15,98.2-1.15l-.02.26c-2.81,45.11-3.51,104.18-3.51,151.71,0,23.41.17,44.02.34,58.78.08,7.38.17,13.29.23,17.36.03,2.04.06,3.61.08,4.67.02,1.07.03,1.62.03,1.62h-.24s.23-.07.23-.07c0,0,1.81,5.12,3.61,11.64,1.81,6.52,3.61,14.43,3.62,20.06,0,16.28,0,27.95,0,27.95h-.24l.24-.02c.31,3.63.44,10.71.44,19.81,0,38.97-2.3,115-2.3,115.01v.28s-94.6-18.58-94.6-18.58l.09-.26c1.47-4.35,3.59-14.03,5.93-26.07,3.52-18.07,7.55-41.49,10.7-60.38,1.58-9.45,2.93-17.77,3.89-23.73.48-2.98.86-5.37,1.13-7.01.26-1.64.4-2.54.4-2.54l.24.04h-.24s-.62-11.73-.62-19.21c0-1.09.01-2.1.04-2.96.11-3.41,1.28-8.99,2.41-13.74,1.14-4.74,2.24-8.64,2.24-8.65l.23.07h-.24c.11-5.56.17-11.03.17-16.46,0-1.85,0-3.7-.02-5.55v-.15s0,0,0,0c-.47-57.94-8.34-113.4-32.7-222.43l-.06-.29h.29s0,.24,0,.24Z"/>
  <path class="cls-4" d="m1240,1865.61c-49.87,96.86,37.75,477.75,30.66,589.07,7.55,4.21,25.44,12.85,49.43,11.8,19.48-.85,42.6-10.5,50.01-14.66-.38-22.99,6.84-203.57,6.72-273.38-.12-70.33,21.98-224.29,8.28-312.84h-145.1"/>
  <path class="cls-1" d="m1240,1865.61l.28.15c-11.1,21.56-15.39,57.38-15.39,101.21,0,72.27,11.62,166.35,23.25,254.48,11.62,88.13,23.25,170.32,23.25,218.89,0,5.18-.13,9.98-.41,14.37l-.32-.02.16-.28c7.1,3.96,23.38,11.85,45.28,11.85,1.31,0,2.63-.03,3.97-.09,19.39-.84,42.51-10.48,49.86-14.62l.16.28h-.32c0-.59-.01-1.3-.01-2.1,0-29.95,6.74-200.51,6.74-269.61,0-.56,0-1.11,0-1.66,0-.18,0-.37,0-.55,0-53.86,12.76-155.82,12.76-240.35,0-26.32-1.24-50.95-4.48-71.89l.32-.05v.32h-145.1v-.32l.28.15-.28-.15v-.32h145.37s.04.27.04.27c3.25,21,4.49,45.65,4.49,71.99,0,84.58-12.76,186.57-12.76,240.35v.55c0,.55,0,1.1,0,1.66,0,69.12-6.74,239.7-6.74,269.61,0,.8,0,1.5.01,2.1v.19s-.16.09-.16.09c-7.46,4.18-30.58,13.84-50.15,14.7-1.35.06-2.69.09-4,.09-22.06,0-38.45-7.94-45.59-11.93l-.18-.1v-.2c.29-4.37.42-9.15.42-14.33,0-48.48-11.62-130.67-23.25-218.8-11.62-88.14-23.25-182.22-23.25-254.56,0-43.88,4.27-79.76,15.46-101.51l.09-.17h.19v.32"/>
  <path class="cls-5" d="m1237.42,1871.23l131.28,72.2s-181.59,84.14-92.07,405.56c13.43,48.22,2.19,101.94,72.34,110.17l-13.67,5.37c-4.65,1-9.72,1.72-15.21,1.96-23.99,1.04-41.88-7.59-49.43-11.8,6.96-109.29-77.34-478.35-33.25-583.45"/>
  <path class="cls-20" d="m1354.44,2606.42s-58.98,54.51-86.92-22.81l-10.84,48.67s-15.59,63.79,57.33,72.59c0,0,60.02,6.28,40.43-98.45Z"/>
  <path class="cls-13" d="m1354.44,2606.42l.22.23s-5.07,4.69-12.94,9.37c-7.87,4.68-18.55,9.37-29.81,9.37-7.99,0-16.27-2.37-23.99-8.78-7.72-6.4-14.88-16.82-20.69-32.9l.3-.11.31.07-10.84,48.67h0s-.02.09-.06.26c-.26,1.19-1.33,6.46-1.33,13.65,0,9.61,1.91,22.65,10.15,34.04,8.24,11.39,22.82,21.17,48.3,24.25l-.04.32.03-.32s.04,0,.12.01c.24.02.85.06,1.74.06,4.19,0,14.73-.88,24.2-8.84,9.47-7.96,17.94-23.01,17.94-51.51,0-10.62-1.18-23.11-3.93-37.79l.31-.06.22.23-.22-.23.31-.06c2.75,14.71,3.94,27.24,3.94,37.91,0,28.62-8.53,43.9-18.17,52-9.64,8.1-20.34,8.99-24.61,8.99-1.22,0-1.91-.07-1.92-.07h0c-25.6-3.08-40.39-12.96-48.74-24.5-8.35-11.55-10.27-24.73-10.27-34.42,0-8.29,1.4-14.04,1.41-14.06l.31.08-.31-.07,11.08-49.74.37,1.03c5.78,16,12.89,26.32,20.5,32.63,7.61,6.31,15.72,8.63,23.58,8.63,11.08,0,21.67-4.64,29.49-9.29,3.91-2.32,7.12-4.65,9.35-6.39,1.12-.87,1.99-1.6,2.58-2.1.3-.25.52-.45.67-.59.15-.14.23-.21.23-.21l.42-.39.11.57-.31.06Z"/>
  <path class="cls-2" d="m1667.1,1129.83c-.55-54.47-3.53-112.05-8.92-172.74-5.37-60.89-10.59-102.34-15.52-126.52,0,0-9.49-47.72-48.14-42.93-52.09,6.46-42.37,58.93-39.11,94.88l26.25,213.51c3.82,30.69,7.68,50.66,11.58,59.9,0,0,19.33,34.56,52.6,21.33,0,0,22.49-11.8,21.26-47.43Z"/>
  <path class="cls-1" d="m1667.1,1129.83h-.24c-.55-54.46-3.53-112.03-8.91-172.72-5.37-60.88-10.59-102.33-15.52-126.5,0,0-.03-.17-.1-.48-.53-2.36-3.19-13.03-9.69-23.1-6.51-10.06-16.84-19.5-32.76-19.5-1.71,0-3.48.11-5.32.34-17.33,2.15-27.74,9.38-33.86,19.39-6.12,10.01-7.93,22.85-7.93,36.18,0,13.3,1.8,27.08,2.88,39.05l-.24.02.24-.03,26.25,213.51c3.82,30.68,7.69,50.65,11.56,59.84l-.22.09.21-.12s.05.09.16.27c.78,1.32,4.51,7.32,10.85,12.98,6.34,5.66,15.26,10.97,26.46,10.97,4.57,0,9.53-.89,14.84-3l.09.22-.11-.21.06-.03c.6-.33,5.89-3.36,11.02-10.34,5.13-6.98,10.11-17.9,10.11-34.06,0-.91-.02-1.84-.05-2.79h0s.24,0,.24,0h.24c.03.94.05,1.88.05,2.8,0,16.78-5.35,28-10.7,35.01-5.36,7.01-10.71,9.83-10.73,9.84h-.01s-.01.01-.01.01c-5.37,2.14-10.39,3.03-15.02,3.03-12.11,0-21.58-6.13-28.02-12.24-6.44-6.11-9.85-12.22-9.86-12.23h0s0-.02,0-.02c-3.91-9.29-7.77-29.26-11.59-59.96l-26.25-213.52h0c-1.08-11.96-2.89-25.76-2.89-39.1,0-13.37,1.81-26.29,8-36.43,6.19-10.14,16.78-17.46,34.21-19.62,1.86-.23,3.65-.34,5.38-.34,8.6,0,15.6,2.72,21.25,6.81,8.47,6.12,13.91,15.29,17.24,22.91,3.33,7.63,4.54,13.73,4.54,13.74,4.94,24.2,10.16,65.66,15.53,126.55,5.39,60.7,8.36,118.28,8.92,172.76h-.24s.24,0,.24,0h-.24Z"/>
  <path class="cls-9" d="m1608.99,711.95s43.73,23.29,53.17,255.01c0,0-57.55-4.22-98.51,5.3,0,0-15.63-107.59-14.6-183.44.6-43.99,21.9-77.64,59.94-76.87Z"/>
  <path class="cls-1" d="m1608.99,711.95l.15-.28c.1.05,11.07,5.96,23.2,40.79,12.13,34.83,25.42,98.61,30.14,214.49v.36s-.34-.03-.34-.03c0,0-.79-.06-2.26-.15-4.4-.26-14.87-.79-28.16-.79-19.98,0-46.33,1.19-68,6.22l-.34.08-.05-.34s-14.65-100.8-14.65-176.08c0-2.5.02-4.97.05-7.41.3-21.8,5.66-41.08,15.65-54.94,9.98-13.86,24.61-22.27,43.33-22.26.43,0,.85,0,1.28.01h.08s.07.04.07.04l-.15.28v.32c-.43,0-.86-.01-1.28-.01-18.52,0-32.93,8.29-42.82,22-9.89,13.71-15.23,32.87-15.53,54.57-.03,2.44-.05,4.9-.05,7.4,0,37.6,3.66,81.6,7.32,116.2,1.83,17.3,3.66,32.25,5.03,42.87.69,5.31,1.26,9.54,1.66,12.44.2,1.45.36,2.57.46,3.33.11.76.16,1.15.16,1.15l-.32.05-.07-.31c21.75-5.05,48.14-6.24,68.14-6.24,17.74,0,30.46.93,30.47.93l-.02.32h-.32c-4.72-115.83-18.01-179.55-30.11-214.3-6.05-17.37-11.8-27.5-16.02-33.27-2.11-2.89-3.84-4.68-5.04-5.76-.6-.54-1.06-.89-1.37-1.11-.16-.11-.27-.19-.35-.23l-.09-.05h-.02s.15-.29.15-.29v.32s0-.32,0-.32Z"/>
  <path class="cls-2" d="m1589.64,1143.96c2.24,32.14,5.96,69.96,9.43,86.87,11.13,54.27,28.97,116.02,39.45,181.17l9.64,63.35c4.71,16.79,20.96,17.64,20.96,17.64,21.13,2.36,25.73-23.08,25.73-23.08-1.73-97.14-12.87-280.94-28.6-336.72"/>
  <path class="cls-1" d="m1589.87,1143.94c2.24,32.13,5.96,69.96,9.42,86.84,11.12,54.26,28.97,116.02,39.45,181.18h0s9.64,63.35,9.64,63.35l-.24.04.23-.06c2.33,8.33,7.51,12.68,12.12,14.97,2.3,1.14,4.46,1.77,6.05,2.11.79.17,1.44.27,1.89.32.22.03.4.04.52.05s.18.01.18.01h0s0,0,0,0c.93.1,1.83.15,2.69.15,4.65,0,8.39-1.43,11.39-3.59,4.51-3.23,7.36-8.09,9.08-12.15.86-2.03,1.44-3.86,1.8-5.18.18-.66.31-1.19.39-1.56.08-.37.12-.56.12-.56l.24.04h-.24c-.87-48.56-4.08-118.79-9.05-183.85-4.97-65.06-11.69-124.96-19.54-152.8l.46-.13c7.88,27.93,14.59,87.82,19.56,152.9,4.97,65.07,8.19,135.31,9.05,183.88v.02s0,.02,0,.02c0,.02-1.06,5.85-4.48,11.7-1.71,2.92-4.02,5.86-7.1,8.06-3.07,2.2-6.92,3.68-11.67,3.67-.88,0-1.8-.05-2.74-.16l.03-.24v.24s-4.13-.22-8.82-2.55c-4.7-2.33-10-6.8-12.37-15.27h0s-9.64-63.38-9.64-63.38h0c-10.47-65.12-28.32-126.87-39.45-181.16-3.47-16.93-7.19-54.75-9.43-86.9l.48-.03h0Z"/>
  <path class="cls-2" d="m1693.12,1462.92l4.77,17.88,6.45,18.76,6.11,34.81,5.42,18.34c2.97,11.27,2.02,22.78-2.68,34.5-2.59,6.56-5.81,12.23-9.61,17.16l2.61-10.2c1.82-4.89,3.21-10.01,4.21-15.2l.19-2.41-5.49-32.09,5.49,32.09-.19,2.41c-.84,5.14-2.27,10.1-4.21,15.2l-2.61,10.2-4.77,13.91.21-2.96c1.24-8.7,2.21-17.69,3.01-26.63-3.02-14.51-4.87-26.29-5.49-35.17.63,8.88,2.48,20.66,5.49,35.17-.59,9.05-1.61,17.87-3.01,26.63l-.21,2.96-1.97,25.23c-7.8,3.03-12.28-1.08-13.43-12.34-.98-11.31-1.24-21.38-1.1-30.12l-6.72-20.31-.31-2.27-.94-17.3.94,17.3.31,2.27,1.11,33.2c.15,6.66.28,12.6.09,18.1l-.08,4.01c.25.83.17,3.03-.28,6.43-7.45,2.38-12.52-.65-15.15-8.94-2.79-8.24-4.78-19.25-5.95-33.04-.29-13.87-2.6-26.6-6.93-38.19-4.33-11.59-8.11-23.16-11.39-34.88-3.84,14-6.23,21.23-6.92,21.98-7.56,14.92-16.01,22.49-25.42,22.55-3.61-.56-6.15-1.81-7.41-3.61,5.34-9.55,8.73-20.16,10.51-31.92,2.58-7.83,3.91-14.38,4.2-19.54.24-5.33,1.91-10.71,5.18-16.21l5.81-10.41c.37-1.2,1.83-3.62,4.09-7.01,2.43-3.44,4.89-6.16,7.54-8.21l9.79-7.97c1.28-1.06,2.55-2.13,3.8-3.23"/>
  <path class="cls-1" d="m1693.36,1462.85l4.77,17.87,6.45,18.77,6.11,34.81,5.41,18.33h0c1.14,4.33,1.7,8.69,1.7,13.08,0,7.11-1.48,14.31-4.39,21.57-2.6,6.58-5.83,12.27-9.65,17.21l-.71.92,2.9-11.33h0c1.81-4.89,3.2-9.99,4.2-15.17l.23.05-.24-.02.19-2.38-5.48-32.06.47-.08,5.5,32.12-.2,2.45h0c-.84,5.17-2.28,10.14-4.22,15.26l-.22-.08.23.06-2.61,10.2-5.37,15.67.34-4.8h0c1.24-8.71,2.21-17.69,3.01-26.62l.24.02-.23.05c-3.02-14.52-4.87-26.31-5.5-35.2l.48-.03c.63,8.86,2.47,20.63,5.49,35.14v.03s0,.03,0,.03c-.59,9.06-1.61,17.89-3.01,26.65l-.24-.04.24.02-.21,2.96-1.98,25.38-.14.05c-1.69.66-3.23.98-4.63.98-2.58,0-4.68-1.17-6.19-3.44-1.51-2.27-2.48-5.63-2.94-10.08h0c-.82-9.48-1.14-18.08-1.14-25.76,0-1.5.01-2.96.03-4.39h.24s-.23.08-.23.08l-6.73-20.33-.31-2.3-.94-17.31.48-.03.94,17.29.31,2.27,1.11,33.21h0c.1,4.26.19,8.22.19,11.97,0,2.11-.03,4.16-.1,6.15h-.24s.24,0,.24,0l-.08,4.01h-.24s.23-.07.23-.07c.1.35.15.86.15,1.55,0,1.16-.14,2.83-.42,4.97l-.02.15-.14.05c-1.66.53-3.22.8-4.66.8-2.54,0-4.74-.84-6.54-2.5-1.8-1.66-3.21-4.13-4.25-7.39l.23-.07-.23.08c-2.8-8.27-4.79-19.29-5.96-33.1h0s0-.02,0-.02c-.29-13.85-2.6-26.55-6.91-38.11-4.33-11.6-8.11-23.17-11.39-34.9l.23-.06.23.06c-1.92,7-3.48,12.31-4.65,15.97-.58,1.83-1.07,3.24-1.45,4.25-.19.5-.36.91-.5,1.21-.15.31-.26.51-.38.64l-.18-.16.21.11c-3.79,7.48-7.8,13.12-12.07,16.92-4.27,3.79-8.79,5.73-13.56,5.76h-.04c-3.64-.57-6.25-1.83-7.57-3.71l-.09-.12.07-.13c5.32-9.52,8.7-20.1,10.48-31.84v-.02s0-.02,0-.02c2.58-7.82,3.9-14.35,4.18-19.48h.24s-.24,0-.24,0c.24-5.37,1.93-10.8,5.21-16.32l.21.12-.21-.12,5.81-10.41.21.12-.23-.07c.2-.64.66-1.55,1.36-2.73.7-1.19,1.63-2.64,2.76-4.34h0s0,0,0,0c2.44-3.45,4.91-6.19,7.59-8.26l.15.19-.15-.19,9.79-7.97h0c1.28-1.05,2.54-2.13,3.8-3.22l.31.36c-1.26,1.1-2.53,2.18-3.81,3.23h0s-9.79,7.97-9.79,7.97h0c-2.63,2.04-5.08,4.74-7.49,8.16l-.2-.14.2.13c-1.13,1.69-2.06,3.14-2.75,4.31-.69,1.17-1.14,2.07-1.31,2.63v.02s-5.83,10.44-5.83,10.44h0c-3.25,5.47-4.91,10.82-5.15,16.11h0c-.29,5.19-1.62,11.76-4.21,19.61l-.23-.07.24.04c-1.79,11.79-5.19,22.42-10.54,32l-.21-.12.2-.14c1.2,1.72,3.67,2.95,7.25,3.51l-.04.24v-.24c4.64-.03,9.04-1.91,13.25-5.64,4.2-3.74,8.19-9.33,11.96-16.78v-.03s.04-.02.04-.02c.05-.05.16-.24.3-.52.47-1.01,1.28-3.3,2.38-6.85,1.1-3.55,2.51-8.38,4.19-14.51l.23-.83.23.83c3.28,11.71,7.05,23.28,11.38,34.86,4.34,11.62,6.65,24.37,6.94,38.27h-.24s.24-.02.24-.02c1.17,13.78,3.15,24.78,5.94,32.98h0c1.02,3.21,2.39,5.6,4.11,7.19,1.72,1.58,3.78,2.38,6.22,2.38,1.38,0,2.89-.26,4.51-.78l.07.23-.24-.03c.28-2.13.41-3.78.41-4.91,0-.67-.05-1.15-.13-1.42v-.04s.07-4.05.07-4.05h0c.07-1.98.1-4.02.1-6.13,0-3.74-.09-7.7-.19-11.96h.24s-.24,0-.24,0l-1.11-33.19-.31-2.26-.94-17.31.48-.03.94,17.29.3,2.24,6.73,20.32v.04c-.02,1.42-.03,2.88-.03,4.38,0,7.67.31,16.26,1.14,25.72l-.24.02.24-.02c.45,4.41,1.41,7.7,2.86,9.87,1.45,2.17,3.35,3.22,5.79,3.23,1.33,0,2.81-.31,4.46-.95l.09.22-.24-.02,1.97-25.23.21-2.97h0c1.4-8.76,2.42-17.57,3.01-26.61l.24.02-.23.05c-3.02-14.52-4.87-26.31-5.5-35.2l.48-.03c.63,8.86,2.47,20.63,5.49,35.14v.03s0,.04,0,.04c-.8,8.94-1.78,17.93-3.01,26.64l-.24-.03.24.02-.08,1.13,4.17-12.16,2.61-10.2h0c1.93-5.1,3.36-10.04,4.2-15.17l.24.04-.24-.02.19-2.38-5.48-32.06.47-.08,5.5,32.12-.2,2.46h0c-1.01,5.21-2.4,10.35-4.22,15.25l-.22-.08.23.06-2.61,10.2-.23-.06-.19-.15c3.79-4.91,7-10.55,9.58-17.1,2.89-7.22,4.36-14.35,4.36-21.4,0-4.35-.56-8.67-1.69-12.96l.23-.06-.23.07-5.42-18.35-6.11-34.8-6.44-18.75-4.78-17.89.46-.12h0Z"/>
  <path class="cls-2" d="m1705.1,1544.62l5.49,32.09-.19,2.41c-1,5.19-2.39,10.31-4.21,15.2l-2.61,10.19-4.56,14.03-2.19,25.11c-7.97,3.08-12.45-1.04-13.43-12.34-.98-11.31-1.24-21.38-1.1-30.12l-6.72-20.31,1.11,33.2c.15,6.66.28,12.6.09,18.1l-.08,4.01c.3,1,.17,3.03-.28,6.43-7.5,2.22-12.52-.65-15.15-8.94-2.79-8.24-4.78-19.25-5.95-33.04-.29-13.87-2.6-26.6-6.93-38.19-4.33-11.59-8.11-23.16-11.39-34.88-3.84,14-6.23,21.23-6.92,21.98-7.56,14.92-16.01,22.49-25.42,22.55-3.73-.35-6.1-1.64-7.41-3.61,5.34-9.55,8.89-20.21,10.51-31.92,2.58-7.83,3.96-14.22,4.2-19.54.07-5.28,1.91-10.71,5.18-16.21l5.81-10.41c.37-1.2,1.66-3.57,4.09-7.01,2.43-3.44,4.89-6.16,7.54-8.21l9.79-7.97c1.29-1.1,2.57-2.22,3.84-3.35m44.92-.96l4.77,18.05,6.45,18.76,6.11,34.81,5.42,18.34c2.97,11.27,2.02,22.78-2.68,34.5-2.59,6.57-5.81,12.23-9.61,17.16m-29.25-43.2l.94,17.3.31,2.27m23.35,37.33l.21-2.96c1.4-8.75,2.42-17.57,3.01-26.63-3.02-14.51-4.87-26.29-5.49-35.17"/>
  <path class="cls-1" d="m1648.37,1464.06l-.32-.36c-1.27,1.13-2.55,2.25-3.84,3.35l.15.18-.15-.19-9.79,7.97.15.19-.15-.19c-2.68,2.07-5.15,4.81-7.59,8.26-2.44,3.45-3.73,5.82-4.13,7.08l.23.07-.21-.12-5.81,10.41.21.12-.21-.12c-3.28,5.52-5.14,11-5.21,16.33h.24s-.24,0-.24,0c-.24,5.29-1.61,11.66-4.18,19.48v.02s0,.02,0,.02c-1.61,11.69-5.16,22.31-10.48,31.84l-.07.13.08.12c1.36,2.05,3.82,3.37,7.59,3.72h.01s.01,0,.01,0c4.77-.03,9.3-1.97,13.56-5.76,4.27-3.79,8.28-9.44,12.07-16.92l-.21-.11.18.16c.12-.14.23-.34.38-.64.14-.3.31-.71.5-1.21.38-1.01.87-2.42,1.45-4.25,1.17-3.66,2.73-8.97,4.65-15.97l-.23-.06-.23.06c3.28,11.72,7.06,23.3,11.39,34.9,4.32,11.56,6.62,24.26,6.91,38.11h0s0,.02,0,.02c1.17,13.8,3.16,24.83,5.96,33.1l.23-.08-.23.07c1.04,3.27,2.45,5.73,4.26,7.37,1.81,1.64,4.02,2.46,6.59,2.46,1.42,0,2.95-.25,4.59-.73l.15-.04.02-.15c.28-2.15.44-3.76.44-4.92,0-.67-.05-1.2-.17-1.6l-.23.07h.24s.08-4.01.08-4.01h-.24s.24,0,.24,0c.07-1.99.1-4.03.1-6.15,0-3.74-.09-7.71-.19-11.97h0s-1.05-31.55-1.05-31.55l6.2,18.73.23-.08h-.24c-.02,1.42-.03,2.89-.03,4.38,0,7.68.31,16.29,1.14,25.76.39,4.47,1.32,7.83,2.82,10.11,1.5,2.28,3.6,3.45,6.22,3.44,1.42,0,3-.34,4.72-1l.14-.05,2.2-25.24,4.55-14.01,2.61-10.2-.23-.06.22.08c1.82-4.9,3.21-10.04,4.22-15.24h0s.2-2.47.2-2.47l-5.5-32.12-.47.08,5.48,32.06-.19,2.38.24.02-.23-.05c-1,5.18-2.39,10.29-4.2,15.16h0s-2.61,10.21-2.61,10.21l-4.56,14.05-2.19,25.14.24.02-.09-.22c-1.69.65-3.2.97-4.55.97-2.47,0-4.38-1.06-5.82-3.23-1.43-2.17-2.36-5.47-2.74-9.89-.82-9.46-1.14-18.05-1.14-25.72,0-1.5.01-2.96.03-4.38v-.04s-7.26-21.92-7.26-21.92l1.16,34.86h.24s-.24,0-.24,0c.1,4.26.19,8.22.19,11.96,0,2.11-.03,4.15-.1,6.13h0s-.08,4.05-.08,4.05v.04c.11.33.16.82.16,1.46,0,1.12-.15,2.72-.44,4.86l.24.03-.07-.23c-1.61.47-3.09.71-4.45.71-2.47,0-4.54-.77-6.27-2.33-1.73-1.56-3.11-3.94-4.13-7.16h0c-2.79-8.21-4.77-19.21-5.94-32.99l-.24.02h.24c-.29-13.9-2.6-26.66-6.94-38.27-4.33-11.58-8.1-23.15-11.38-34.86l-.23-.83-.23.83c-1.68,6.12-3.08,10.95-4.19,14.51-1.1,3.55-1.91,5.84-2.38,6.85-.13.29-.25.47-.3.52l-.02.02-.02.03c-3.77,7.44-7.76,13.04-11.96,16.78-4.2,3.74-8.61,5.61-13.25,5.64v.24s.02-.24.02-.24c-3.69-.35-5.98-1.61-7.23-3.51l-.2.13.21.12c5.35-9.58,8.92-20.26,10.54-32.01l-.24-.03.23.07c2.58-7.84,3.97-14.25,4.21-19.61h0c.07-5.23,1.89-10.63,5.15-16.1h0s5.82-10.44,5.82-10.44v-.02c.36-1.14,1.64-3.52,4.07-6.94,2.42-3.42,4.86-6.12,7.49-8.16h0s9.79-7.97,9.79-7.97h0c1.29-1.1,2.58-2.22,3.85-3.36h0Zm55.02,140.32l.38.29c3.82-4.95,7.05-10.63,9.65-17.21,2.91-7.27,4.39-14.46,4.39-21.57,0-4.39-.56-8.76-1.7-13.08h0s-5.41-18.33-5.41-18.33l-6.11-34.81-6.45-18.77-4.77-18.04-.46.12,4.78,18.05,6.44,18.75,6.11,34.8,5.42,18.35.23-.07-.23.06c1.13,4.28,1.69,8.6,1.69,12.96,0,7.04-1.46,14.18-4.36,21.4-2.58,6.55-5.79,12.19-9.58,17.1h0Zm-28.05-23.45l.47-.06-.31-2.26-.94-17.29-.48.03.94,17.31.31,2.28h0Zm21.55-27.48l-.48.03c.63,8.89,2.48,20.68,5.5,35.2l.23-.05-.24-.02c-.59,9.05-1.61,17.86-3.01,26.6h0s-.21,2.98-.21,2.98l.48.03.21-2.96-.24-.02.24.04c1.4-8.76,2.42-17.59,3.01-26.65v-.03s0-.03,0-.03c-3.02-14.51-4.86-26.28-5.49-35.14h0Z"/>
  <path class="cls-3" d="m1660.59,955.3s-52.69-10.45-99.08,8.31l-1.29-10.89s52.95-17.77,99.25-7.37l1.12,9.95Z"/>
  <path class="cls-3" d="m1659.47,937.22s-52.69-10.63-99.07,8.13l-1.3-10.89s53.36-18.2,99.66-7.8l.71,10.55Z"/>
  <path class="cls-2" d="m1227.91,703.74c100.85-18.54,113.73-50.42,121.22-71.02,12.18-33.51,3.13-99.8,3.13-99.8l103.58,49.98c-1.25,30.59,16.32,63.11,27.56,84.33,7.01,13.25,60.15,27.78,104.73,41.05-6.31,6.31-35.95,94.27-146.96,167.5-16.32.8-33.08.41-49.23-1.08-48.8-36.72-156.96-142.13-164.03-170.95"/>
  <path class="cls-1" d="m1227.91,703.74l-.04-.24c50.4-9.26,78.8-21.86,95.52-34.69,16.72-12.83,21.78-25.88,25.52-36.18,4.88-13.42,6.35-32.19,6.35-49.81,0-13.1-.81-25.57-1.62-34.76-.4-4.6-.81-8.38-1.11-11.01-.15-1.31-.28-2.34-.37-3.04s-.14-1.07-.14-1.07l-.06-.44,104.12,50.25v.16c-.05,1.04-.07,2.07-.07,3.11,0,29.58,16.74,60.6,27.59,81.1,1.7,3.22,6.3,6.62,12.95,10.04,19.95,10.28,58.2,20.95,91.63,30.89l.38.11-.28.28c-.36.36-.85,1.07-1.43,2.07-2.2,3.76-5.91,11.71-11.83,22.57-17.78,32.57-55.64,91.38-133.73,142.89l-.05.04h-.07c-5.55.28-11.14.41-16.75.41-10.9,0-21.84-.51-32.51-1.49h-.07s-.05-.05-.05-.05c-24.42-18.37-63.66-53.91-97.69-88.46-17.01-17.28-32.73-34.31-44.63-48.82-11.9-14.53-20-26.51-21.79-33.8l-.06-.25.25-.05.04.24.23-.06c1.74,7.12,9.81,19.12,21.7,33.61,35.67,43.5,105.66,109.69,142.24,137.21l-.14.19.02-.24c10.66.98,21.58,1.49,32.47,1.49,5.6,0,11.19-.13,16.73-.41v.24s-.12-.2-.12-.2c55.47-36.59,90.61-76.86,112.67-108.77,11.03-15.96,18.79-29.82,24.19-40.09,2.7-5.14,4.81-9.38,6.44-12.53.82-1.58,1.51-2.89,2.11-3.9.6-1.02,1.08-1.74,1.51-2.17l.17.17-.07.23c-22.29-6.63-46.72-13.58-66.46-20.53-9.87-3.48-18.57-6.95-25.25-10.39-6.68-3.45-11.35-6.84-13.16-10.24-10.85-20.51-27.65-51.57-27.65-81.32,0-1.05.02-2.09.06-3.13h.24s-.1.23-.1.23l-103.58-49.98.1-.22.24-.03s3.24,23.7,3.24,49.94c0,17.65-1.46,36.45-6.38,49.98-3.75,10.31-8.87,23.5-25.68,36.39-16.81,12.9-45.28,25.51-95.72,34.78l-.04-.24.23-.06-.23.06"/>
  <path class="cls-33" d="m1269.52,724.97l-22.6-25.11c83.51-18.86,95.22-47.91,102.21-67.13,7.49-20.59,6.95-53.56,5.43-75.92l9.76-12.42,101.26,85.8s-58.71,5.82-99.79,47.26c-41.09,41.44-96.26,47.53-96.26,47.53Z"/>
  <path class="cls-9" d="m1419.82,781.02c-95.9,1.48-156.48-87.26-156.48-87.26-12.09,1.89-24.92,4.3-38.36,7.38-14.14,3.23-27.36,6.83-39.59,10.59,2.9,11.18,5.75,22.48,8.55,33.9,5.1,20.87,11.87,49.57,18.51,80.93l30.61,154.92s2.3,79.09-.54,115.94c0,0-15.21,69.04-22.85,90.8-14.39,40.94-31.05,111.1-30.96,111.15-51.32,208.88-22.62,443.92-21.53,558.58,34.46,42.05,163.76,77.56,193.85,83.25,81.89,15.49,205.38-31.68,261.42-45.7,4.05-1.01,2.39-8.28,2.29-11.06-.22-6.55.18-13.19.27-19.74.19-14.21.04-28.51.19-42.66.17-15.36.66-30.71,1.18-46.06,3.93-116.2,3.7-232.67-5.34-348.64-4.56-58.48-11.35-116.79-20.8-174.69-7.61-46.62-20.82-91.17-27.57-137.89-.78-5.4-1.54-10.81-2.21-16.23-15.49-88.53-2.79-96.02-2.79-96.02,0,0,66.39-59.75,2.12-176.04-1.6-33.99,40.48-114.44,40.48-114.44-10.02-4.85-21.86-8.81-36.33-12.17-7.93-1.84-35.04-6.27-45-8.3,0,0-10.4,87.95-109.09,89.47"/>
  <path class="cls-1" d="m1419.82,781.02v.32c-.79.01-1.58.02-2.36.02-47.37,0-85.96-21.86-112.71-43.71-26.75-21.85-41.66-43.69-41.67-43.71l.26-.18.05.32c-12.08,1.89-24.9,4.3-38.34,7.37-14.13,3.23-27.34,6.83-39.57,10.58l-.09-.3.31-.08c2.9,11.18,5.75,22.48,8.55,33.9,5.1,20.87,11.87,49.58,18.51,80.94h0s30.62,154.95,30.62,154.95v.03s.88,30.2.88,61.98c0,19.65-.33,39.9-1.42,54v.02s0,.02,0,.02c0,0-3.8,17.26-8.56,37.25-4.76,19.99-10.47,42.68-14.3,53.59-7.17,20.4-14.91,48.08-20.86,70.71-2.97,11.31-5.5,21.36-7.28,28.61-.89,3.62-1.6,6.55-2.08,8.58-.24,1.02-.43,1.81-.55,2.35-.06.27-.11.48-.14.62-.02.07-.03.13-.04.16v.04s0,0,0,0l-.22-.04h.23v.04s-.23-.04-.23-.04h.23v.08c-24.01,97.69-30.51,201.13-30.51,295.29,0,107.09,8.4,202.18,8.98,263.21h-.32s.25-.2.25-.2c8.57,10.46,23.08,20.55,40.5,29.87,52.26,27.97,130.64,49.01,153.16,53.27,11.29,2.14,23.39,3.08,35.99,3.08,78.6,0,176.96-36.68,225.29-48.78.99-.25,1.57-.88,1.96-1.8.38-.91.51-2.1.51-3.33,0-2.1-.37-4.3-.42-5.62-.05-1.39-.07-2.78-.07-4.17,0-5.2.27-10.43.33-15.59.19-14.21.04-28.5.19-42.66.17-15.36.66-30.72,1.18-46.07,1.52-45.11,2.42-90.26,2.42-135.41,0-71.14-2.23-142.27-7.76-213.2-4.56-58.47-11.34-116.78-20.8-174.66-7.61-46.59-20.81-91.15-27.57-137.9-.78-5.4-1.54-10.81-2.22-16.24l.32-.04-.31.06c-5.87-33.55-7.7-55.47-7.7-69.78,0-11.73,1.23-18.33,2.47-22.03,1.24-3.69,2.51-4.49,2.59-4.54l.16.27-.21-.24.08-.08c1.73-1.61,29.96-28.61,29.96-80.1,0-25.73-7.04-57.59-27.99-95.47l-.04-.07v-.07c-.03-.64-.05-1.3-.05-1.97,0-8.81,2.54-20.24,6.35-32.44,11.41-36.6,34.21-80.18,34.21-80.18l.28.15-.14.29c-9.99-4.84-21.81-8.79-36.27-12.15-3.95-.92-12.71-2.49-21.72-4.08-9.01-1.59-18.28-3.2-23.27-4.22l.06-.31.32.04s-2.61,22.06-17.59,44.31c-14.97,22.25-42.37,44.69-91.82,45.45v-.32s0-.32,0-.32c49.25-.76,76.4-23.06,91.3-45.16,7.45-11.06,11.82-22.07,14.33-30.32,1.26-4.12,2.04-7.55,2.52-9.95.24-1.2.4-2.14.5-2.78.05-.32.08-.57.11-.73.02-.16.03-.25.03-.25l.04-.34.34.07c4.97,1.01,14.24,2.63,23.25,4.22,9.02,1.59,17.77,3.16,21.76,4.08,14.49,3.37,26.35,7.33,36.4,12.2l.3.14-.15.29s-.16.3-.45.88c-2.22,4.31-12.24,24-21.69,46.71-4.73,11.35-9.32,23.46-12.72,34.77-3.4,11.31-5.62,21.83-5.62,29.98,0,.66.01,1.31.04,1.94h-.32s.28-.14.28-.14c20.98,37.97,28.07,69.93,28.06,95.78,0,53.41-30.22,80.62-30.25,80.65l-.02.02-.03.02h0s0,0,0,0h0s0-.01,0-.01h0c-.07.06-1.25.89-2.42,4.56-1.17,3.67-2.32,10.16-2.32,21.48,0,14.25,1.82,36.14,7.69,69.67h0s0,.02,0,.02c.67,5.41,1.43,10.82,2.21,16.22,6.75,46.69,19.95,91.25,27.57,137.89,9.46,57.9,16.25,116.23,20.8,174.71,5.53,70.96,7.76,142.1,7.76,213.25,0,45.15-.9,90.31-2.42,135.43-.52,15.35-1.01,30.7-1.18,46.05-.16,14.15,0,28.44-.19,42.66-.07,5.18-.33,10.4-.33,15.58,0,1.39.02,2.77.07,4.15.04,1.24.42,3.48.42,5.64,0,1.28-.13,2.53-.56,3.58-.42,1.04-1.19,1.87-2.39,2.17-48.27,12.07-146.67,48.79-225.44,48.79-12.64,0-24.77-.94-36.11-3.09-15.07-2.85-54.92-13.15-95.34-28.01-20.21-7.43-40.55-15.99-58.01-25.33-17.46-9.34-32.03-19.46-40.69-30.03l-.07-.09v-.11c-.58-60.99-8.98-156.1-8.98-263.22,0-94.19,6.49-197.67,30.51-295.44l.31.08h-.32v-.08c.03-.12.11-.46.25-1.06,2.08-8.97,17.38-72.1,30.74-110.11,3.81-10.85,9.53-33.55,14.28-53.52,2.38-9.99,4.52-19.3,6.06-26.11.77-3.41,1.4-6.19,1.83-8.12.43-1.93.67-3.01.67-3.01l.31.07-.32-.02c1.08-14.07,1.42-34.31,1.42-53.95,0-15.88-.22-31.37-.44-42.89-.11-5.76-.22-10.53-.3-13.85-.04-1.66-.08-2.97-.1-3.85-.02-.89-.04-1.36-.04-1.36h.32s-.31.05-.31.05l-30.61-154.92.31-.06-.31.07c-6.64-31.35-13.4-60.05-18.5-80.92-2.79-11.42-5.65-22.71-8.54-33.89l-.08-.3.29-.09c12.24-3.76,25.47-7.36,39.61-10.59,13.45-3.08,26.28-5.49,38.38-7.38l.2-.03.11.17s.23.34.69.97c3.43,4.78,19.62,26.33,46,46.68,26.38,20.35,62.95,39.49,107.17,39.49.78,0,1.57,0,2.36-.02v.32"/>
  <path class="cls-8" d="m1275.53,751.98s5.6,234.07,94.03,234.07c4.92,0,10.1-.72,15.55-2.26,0,0-85.47,34.2-121.64,188.92-36.13,154.55-79.92,653.48,113.38,770.35-5.41-.5-10.68-1.22-15.78-2.19-22.53-4.26-100.91-25.31-153.16-53.27-17.37-9.29-31.85-19.36-40.43-29.78-.41-42.77-4.65-102.24-7.15-170.82l10.83-293.77c4.43-31.52,10.27-62.95,17.85-93.8v-.04s0-.01,0-.01v-.03s.03-.09.04-.16c.03-.14.08-.35.14-.62.12-.54.31-1.33.55-2.35.48-2.03,1.19-4.95,2.08-8.58,1.78-7.25,4.31-17.3,7.28-28.61,5.95-22.63,13.69-50.31,20.86-70.71,3.83-10.91,9.54-33.6,14.3-53.59,4.76-19.98,8.56-37.24,8.56-37.25v-.02s0-.02,0-.02c1.09-14.1,1.42-34.35,1.42-54,0-31.78-.88-61.98-.88-61.98v-.03s-8.75-44.29-8.75-44.29c3.48-20.58,8.19-50.5,11.94-81.96l28.98-103.2"/>
  <path class="cls-1" d="m1160.32,1687.01l-.16,4.28c2.52,66.84,6.6,124.78,6.99,166.65,34.19,41.71,161.63,76.97,193.05,83.09l17.16,2.39h.09c-.2-.11-.4-.24-.6-.36-5.41-.5-10.68-1.22-15.78-2.19-22.53-4.26-100.91-25.31-153.16-53.27-17.37-9.29-31.85-19.36-40.43-29.78-.41-42.77-4.65-102.24-7.15-170.82m74.29-749.87c-.05.3-.1.59-.15.89l8.59,43.44s2.3,79.09-.54,115.94c0,0-15.21,69.04-22.85,90.8-14.39,40.94-31.05,111.1-30.96,111.15-7.35,29.9-13.05,60.33-17.43,90.87l-.11,3c4.43-31.52,10.27-62.95,17.85-93.8v-.04s0-.01,0-.01v-.03s.03-.09.04-.16c.03-.14.08-.35.14-.62.12-.54.31-1.33.55-2.35.48-2.03,1.19-4.95,2.08-8.58,1.78-7.25,4.31-17.3,7.28-28.61,5.95-22.63,13.69-50.31,20.86-70.71,3.83-10.91,9.54-33.6,14.3-53.59,4.76-19.98,8.56-37.24,8.56-37.25v-.02s0-.02,0-.02c1.09-14.1,1.42-34.35,1.42-54,0-31.78-.88-61.98-.88-61.98v-.03s-8.75-44.29-8.75-44.29"/>
  <path class="cls-12" d="m1534.39,694.42s-56.77,215.44-282.07,2.21l3.12-.81s190.32,201.98,278.95-1.39Z"/>
  <path class="cls-12" d="m1541.39,711.96s-53.98,209.67-282.07,2.21l11.02-2.87s177.7,193.44,265.58-2.21l5.48,2.87Z"/>
  <path class="cls-3" d="m1624.77,1803.97s-239.57,131.28-460.89-31.62l-1.27-17.08s214.73,163.12,463.59,20.09l-1.43,28.61Z"/>
  <path class="cls-2" d="m1118.96,1117.36c3.01-54.39,8.57-111.77,16.69-172.16,8.11-60.58,15.18-101.76,21.21-125.7,0,0,11.63-47.25,50.02-40.72,51.75,8.8,39.67,60.78,34.8,96.55l-35.83,212.11c-5.2,30.49-9.96,50.26-14.26,59.32,0,0-20.87,33.65-53.51,18.94,0,0-21.94-12.8-19.1-48.34"/>
  <path class="cls-1" d="m1118.96,1117.36h-.24c3.01-54.41,8.57-111.8,16.69-172.19,8.11-60.59,15.19-101.77,21.21-125.72,0-.01,2.55-10.37,9.21-20.74,3.33-5.19,7.69-10.38,13.28-14.28,5.59-3.9,12.42-6.5,20.65-6.5,2.28,0,4.66.2,7.15.62,16.03,2.72,26,9.6,31.94,18.87,5.94,9.26,7.84,20.89,7.84,33.1,0,15.12-2.92,31.18-4.78,44.84h0s-35.83,212.12-35.83,212.12c-5.21,30.5-9.96,50.27-14.28,59.38h0s0,.02,0,.02c0,.01-3.53,5.69-9.96,11.38-6.42,5.69-15.76,11.39-27.38,11.39-5.08,0-10.59-1.09-16.47-3.74h-.01s-.01-.01-.01-.01c-.02-.01-4.89-2.85-9.75-9.57-4.86-6.71-9.72-17.3-9.72-32.76,0-2,.08-4.08.25-6.24l.24.02h-.24s.24,0,.24,0l.24.02c-.17,2.15-.25,4.22-.25,6.2,0,15.36,4.82,25.84,9.63,32.48,2.41,3.32,4.81,5.68,6.61,7.21.9.76,1.65,1.32,2.18,1.69.26.18.47.32.61.41.07.04.12.08.16.1l.05.03-.12.21.1-.22c5.83,2.63,11.27,3.7,16.28,3.7,11.46,0,20.69-5.63,27.06-11.27,3.19-2.82,5.66-5.64,7.33-7.76.84-1.06,1.47-1.94,1.9-2.56.21-.31.37-.55.48-.71.11-.16.16-.25.16-.25l.2.13-.22-.1c4.28-9,9.04-28.77,14.24-59.26l35.83-212.11.24.04-.24-.03c1.87-13.68,4.78-29.71,4.78-44.78,0-12.17-1.9-23.7-7.76-32.85-5.86-9.15-15.68-15.94-31.61-18.65-2.47-.42-4.83-.62-7.07-.62-8.13,0-14.85,2.56-20.38,6.42-8.29,5.78-13.87,14.46-17.37,21.71-1.75,3.62-2.99,6.88-3.78,9.24-.4,1.18-.69,2.13-.87,2.78-.09.33-.16.58-.21.75-.05.17-.07.26-.07.26-6.02,23.92-13.09,65.09-21.2,125.67-8.12,60.38-13.68,117.76-16.68,172.14h0s0,0,0,0l-.24-.02"/>
  <path class="cls-9" d="m1195.83,702.52s-44.73,21.3-64.6,252.36c0,0,57.68-1.62,98.17,9.73,0,0,20.46-106.78,22.84-182.59,1.38-43.97-18.38-78.55-56.42-79.49"/>
  <path class="cls-1" d="m1195.83,702.52l.14.29h-.02c-.58.31-11.8,6.46-25.31,40.98-13.51,34.52-29.31,97.41-39.09,211.11l-.32-.03v-.32s2.85-.08,7.74-.08c17.09,0,58.98.98,90.52,9.82l-.09.31-.31-.06s.08-.42.23-1.22c2.26-12,20.38-110.29,22.61-181.33.04-1.44.07-2.86.07-4.27,0-20.91-4.91-39.42-14.39-52.8-9.48-13.38-23.48-21.64-41.79-22.09v-.32s.14.29.14.29l-.14-.29v-.32c18.5.45,32.73,8.84,42.3,22.36,9.57,13.52,14.5,32.16,14.5,53.17,0,1.42-.02,2.85-.07,4.29-2.38,75.85-22.85,182.63-22.85,182.64l-.07.34-.33-.09c-31.42-8.81-73.29-9.8-90.35-9.8-2.44,0-4.37.02-5.7.04-1.32.02-2.03.04-2.03.04h-.36s.03-.35.03-.35c9.94-115.55,26.09-178.67,39.77-212.92,13.68-34.25,24.91-39.65,25.01-39.7l.07-.03h.08s0,.32,0,.32"/>
  <path class="cls-8" d="m1195.91,702.84c10.64.28,19.82,3.2,27.5,8.22-10.68,12.84-68.92,90.22-61.97,243.93-9.22-.41-17.08-.51-22.47-.51-3.88,0-6.48.05-7.39.07,9.78-113.48,25.56-176.27,39.06-210.76,13.28-33.93,24.33-40.45,25.27-40.95"/>
  <path class="cls-1" d="m1195.97,702.81l-.14-.29.14.29m-.14-.29s-44.73,21.3-64.6,252.36c0,0,2.85-.08,7.73-.08,5.39,0,13.26.1,22.49.51h0c0-.1,0-.22-.01-.32-9.22-.41-17.08-.51-22.47-.51-3.88,0-6.48.05-7.39.07,9.78-113.48,25.56-176.27,39.06-210.76,13.28-33.93,24.33-40.45,25.27-40.95,10.64.28,19.82,3.2,27.5,8.22.07-.08.14-.17.2-.24-7.76-5.08-17.04-8.03-27.78-8.3"/>
  <path class="cls-2" d="m1195.7,1133.19c2.86,30.03-1.59,67.17-3.39,83.35-6.12,55.06-18.61,123.07-15.64,188.98,1.45,32.07,2.87,52.57,2.87,52.57-3.15,17.15-33.05,25.91-33.05,25.91-20.83,4.28-33.09-38.04-33.09-38.04-8.38-106.89-13.53-282.73,5.06-327.07"/>
  <path class="cls-1" d="m1195.94,1133.16c.67,6.99.94,14.37.94,21.78,0,24.44-2.94,49.2-4.32,61.62-5.49,49.36-16.09,109.1-16.09,168.39,0,6.86.14,13.72.45,20.55.72,16.03,1.44,29.17,1.98,38.31.27,4.57.49,8.13.65,10.55.08,1.21.14,2.14.18,2.76.04.62.06.94.06.94v.03s0,.03,0,.03c-.8,4.35-3.29,8.16-6.56,11.41-9.81,9.76-26.64,14.68-26.66,14.69h0s0,0,0,0c-1.02.21-2.02.31-3,.31-4.84,0-9.16-2.44-12.9-6.06-5.62-5.43-9.97-13.54-12.93-20.3-2.96-6.75-4.53-12.16-4.53-12.16v-.02s0-.03,0-.03c-4.2-53.54-7.58-124.38-7.58-187.33,0-31.37.84-60.78,2.84-85.12,2-24.34,5.16-43.61,9.82-54.73l.44.18c-4.62,11.01-7.79,30.26-9.78,54.58-2,24.32-2.84,53.72-2.84,85.08,0,62.94,3.39,133.77,7.58,187.3l-.24.02.23-.07s.04.15.13.43c.64,2.1,3.68,11.56,8.78,20.49,2.55,4.46,5.61,8.79,9.13,11.99,3.52,3.2,7.49,5.27,11.87,5.27.95,0,1.91-.1,2.9-.3l.05.23-.07-.23s.11-.03.33-.1c1.64-.51,9.06-2.94,16.44-7.24,7.38-4.3,14.67-10.47,16.11-18.39l.24.04-.24.02s-1.42-20.5-2.87-52.58c-.31-6.84-.45-13.71-.45-20.57,0-59.35,10.6-119.1,16.09-168.44,1.38-12.42,4.32-37.17,4.32-61.57,0-7.39-.27-14.76-.93-21.73l.48-.05h0Z"/>
  <path class="cls-2" d="m1113.41,1445.96c1.86,12.58,5.3,39.95-1.2,51.26-6.5,11.31-10.43,25.86-11.66,43.52-1.11,17.53-1.11,30.59-.24,38.96,1,8.48,4.47,18.46,10.68,30.16,3.28,8.85,6.74,14.31,10.23,15.99,4.14,2.02,6.58.87,7.31-3.94l-2.72-7.88-8.85-35.42,8.85,35.42,2.72,7.88c7.12,18.68,13.36,24.47,18.23,17.41l-1.59-18.75c-.63-8.63-2.45-22.6-5.57-41.76,3.13,19.16,4.95,33.13,5.57,41.76l1.59,18.75,1.66,6.94c-.22,4.79,1.62,8.32,5.41,10.99,5.63,1.68,9-.78,10.28-6.75l2.58-76.53-2.58,76.53c6.61,3.51,11.25,1.23,14.07-6.47,3.07-7.72,4.88-13.22,5.43-16.77l4.46-20.49,2.24-11.06c.89-4.2,1.41-10.38,1.57-18.31.28-8.06.29-18.74.25-32.3.04,13.57.03,24.24-.25,32.3-.03,8.04-.55,14.23-1.57,18.31l-2.24,11.06c3.24,3.83,6.92,4.5,11.3,1.98-1.5-8.46.35-17.73,5.55-27.59,1.25-.07,1.46-2.97.37-8.69l-2.92-17.8c-.98-6.1-1.55-13.73-1.46-22.91-.02-9.04-2.7-16.17-8.02-21.14-5.06-4.98-12.28-31.49-14.4-58.36"/>
  <path class="cls-1" d="m1113.65,1445.92c1.05,7.07,2.59,18.81,2.59,29.76,0,8.55-.93,16.62-3.82,21.66-6.48,11.27-10.4,25.78-11.63,43.42-.59,9.28-.87,17.31-.87,24.05,0,5.98.22,10.95.62,14.87l-.24.02.24-.03c.99,8.44,4.45,18.39,10.65,30.07h0s0,.03,0,.03c1.64,4.42,3.31,7.98,5.01,10.64,1.7,2.66,3.41,4.41,5.1,5.22,1.27.62,2.36.93,3.27.93,1,0,1.77-.36,2.39-1.11.62-.76,1.06-1.94,1.31-3.58l.24.04-.23.08-2.72-7.89-8.85-35.42.46-.12,8.85,35.4,2.72,7.87-.23.08.22-.09c2.58,6.76,5.04,11.83,7.35,15.19,1.15,1.68,2.27,2.93,3.33,3.76,1.06.83,2.07,1.22,3.01,1.22.72,0,1.41-.22,2.1-.69.69-.46,1.36-1.17,2.02-2.12l.2.14-.24.02-1.59-18.75h0c-.63-8.62-2.45-22.58-5.57-41.74l.47-.08c3.13,19.17,4.95,33.14,5.58,41.78l-.24.02.24-.02,1.59,18.73,1.66,6.95v.03c-.01.26-.02.51-.02.76,0,4.33,1.79,7.53,5.33,10.03l-.14.2.07-.23c1.14.34,2.19.51,3.13.51,1.81,0,3.25-.61,4.39-1.78,1.14-1.18,1.96-2.95,2.47-5.3l.23.05h-.24s2.58-76.54,2.58-76.54l.48.02-2.58,76.53h-.24s.11-.22.11-.22c2,1.06,3.8,1.58,5.41,1.58,1.82,0,3.4-.65,4.79-1.97,1.39-1.32,2.57-3.3,3.54-5.95h0s0,0,0,0c3.07-7.71,4.88-13.21,5.42-16.72h0s4.46-20.5,4.46-20.5l.23.05-.23-.05,2.24-11.06h0c.88-4.17,1.4-10.35,1.57-18.27h0c.21-6.01.27-13.48.27-22.52,0-3.08,0-6.33-.02-9.78h.48c0,3.44.02,6.7.02,9.78,0,9.04-.06,16.52-.27,22.53h-.24s.24,0,.24,0c-.03,8.05-.55,14.25-1.58,18.37l-.23-.06.23.05-2.24,11.06-.23-.05.18-.15c1.93,2.28,3.98,3.39,6.23,3.39,1.48,0,3.06-.48,4.77-1.46l.12.21-.24.04c-.34-1.91-.51-3.85-.51-5.84,0-6.89,2.03-14.23,6.08-21.9l.06-.12h.13c.12-.02.22-.06.32-.14.15-.13.29-.39.39-.8.1-.41.15-.95.15-1.62,0-1.4-.22-3.35-.7-5.85l-2.92-17.8c-.92-5.68-1.47-12.68-1.47-21,0-.64,0-1.29,0-1.94h.24s-.24,0-.24,0c-.03-9-2.68-16.05-7.94-20.97h0c-1.32-1.3-2.71-3.91-4.14-7.53-4.28-10.85-8.73-30.81-10.33-50.99l.48-.04c1.06,13.42,3.39,26.75,6.09,37.35,1.35,5.3,2.79,9.91,4.21,13.5,1.41,3.59,2.82,6.17,4.03,7.36l-.17.17.16-.17c5.37,5.02,8.07,12.23,8.09,21.32h0c0,.66,0,1.3,0,1.94,0,8.31.56,15.28,1.47,20.93l2.92,17.79-.24.04.23-.04c.48,2.51.71,4.49.71,5.94,0,.93-.09,1.64-.29,2.15-.1.26-.23.47-.4.62-.17.16-.38.25-.61.26v-.24s.2.11.2.11c-4.03,7.62-6.03,14.88-6.03,21.68,0,1.96.17,3.88.5,5.76l.03.17-.15.08c-1.76,1.01-3.42,1.53-5.01,1.53-2.42,0-4.61-1.21-6.59-3.56l-.07-.09,2.27-11.18h0c1.01-4.05,1.53-10.22,1.56-18.26h0s0,0,0,0c.21-6.01.27-13.48.27-22.52,0-3.08,0-6.33-.02-9.78h.48c0,3.44.02,6.7.02,9.78,0,9.04-.06,16.52-.27,22.53h-.24s.24,0,.24,0c-.17,7.93-.69,14.13-1.58,18.35h0s-2.24,11.06-2.24,11.06h0s-4.46,20.49-4.46,20.49l-.23-.05.24.04c-.55,3.59-2.37,9.1-5.44,16.83l-.22-.09.22.08c-.99,2.69-2.2,4.75-3.66,6.13-1.46,1.39-3.18,2.1-5.12,2.1-1.71,0-3.59-.55-5.63-1.63l-.13-.07,2.58-76.68.48.02-2.58,76.55v.02c-.52,2.4-1.37,4.26-2.59,5.53-1.22,1.27-2.81,1.93-4.73,1.93-1,0-2.09-.18-3.27-.53h-.04s-.03-.03-.03-.03c-3.64-2.55-5.54-5.95-5.53-10.42,0-.26,0-.52.02-.78h.24s-.23.07-.23.07l-1.67-6.96-1.6-18.77h0c-.63-8.62-2.45-22.58-5.57-41.74l.47-.08c3.13,19.17,4.95,33.14,5.58,41.78l-.24.02.24-.02,1.6,18.84-.05.07c-.68.99-1.39,1.74-2.14,2.25-.75.51-1.54.77-2.36.77-1.08,0-2.19-.45-3.3-1.32-3.35-2.61-6.95-8.97-10.84-19.15h0s-2.72-7.9-2.72-7.9l-8.85-35.42.46-.12,8.85,35.4,2.74,7.93v.06c-.26,1.68-.72,2.95-1.42,3.81-.69.86-1.64,1.3-2.76,1.29-1.01,0-2.17-.34-3.48-.97-1.81-.87-3.56-2.69-5.29-5.39-1.72-2.7-3.41-6.29-5.06-10.73l.22-.08-.21.11c-6.22-11.72-9.7-21.71-10.7-30.24h0c-.41-3.95-.62-8.93-.62-14.92,0-6.75.28-14.79.87-24.08,1.23-17.69,5.17-32.27,11.69-43.62,2.81-4.88,3.76-12.9,3.76-21.42,0-10.91-1.54-22.63-2.59-29.69l.47-.07h0Z"/>
  <path class="cls-7" d="m1299.22,672.33c-1.23-2.68-103.7,22.16-103.7,22.16,0,0,121.22,277.35,197.62,323.07,0,0,101.75,9.91,127.8-12.74,26.06-22.65,92.72-307.81,92.72-307.81l-115.27-31.35s-29.31,190.09-57.58,190.82c-28.27.73-116.81-130.07-141.59-184.14Z"/>
  <path class="cls-1" d="m1299.22,672.33l-.29.13.15-.07-.11.12-.04-.05.15-.07-.11.12.06-.06-.05.07h0s.06-.07.06-.07l-.05.07h0s0,0,0,0h0s0-.01,0-.01h0s-.09-.03-.21-.04c-.13-.02-.3-.03-.5-.03-1.26,0-3.86.35-7.38.96-12.33,2.14-36.16,7.49-56.9,12.3-10.37,2.41-19.97,4.68-26.97,6.35-3.5.84-6.36,1.52-8.34,2-1.98.48-3.08.74-3.08.74l-.08-.31.29-.13s.47,1.08,1.38,3.12c6.8,15.31,37.95,84.58,76.35,155.37,19.2,35.39,40.21,71.17,60.9,100.76,20.68,29.59,41.04,53.01,58.87,63.67l-.16.27.03-.32s.34.03,1,.09c4.59.41,24.42,2.06,47.4,2.06,15.01,0,31.37-.7,45.69-2.92,14.32-2.21,26.62-5.94,33.47-11.91,3.17-2.75,7.08-9.67,11.38-19.62,15.09-34.84,35.41-106.86,51.94-170.15,8.27-31.65,15.59-61.12,20.85-82.67,2.63-10.78,4.74-19.58,6.19-25.68.73-3.05,1.29-5.43,1.67-7.05.38-1.62.58-2.47.58-2.47l.31.07-.08.31-115.27-31.35.08-.31.32.05s-7.33,47.53-18.19,95.16c-5.43,23.82-11.75,47.65-18.48,65.6-3.37,8.98-6.84,16.48-10.37,21.78-1.77,2.65-3.55,4.75-5.35,6.22-1.8,1.46-3.64,2.29-5.5,2.33-.08,0-.16,0-.25,0-3.69,0-8.22-2.08-13.43-5.76-9.12-6.45-20.32-17.87-32.35-32.13-36.09-42.77-79.62-111.01-95.86-146.45l.29-.13.29-.13c12.34,26.93,40.55,72.96,69.22,112.24,14.34,19.64,28.79,37.59,41.43,50.63,6.32,6.52,12.19,11.8,17.35,15.45,5.16,3.65,9.62,5.65,13.07,5.64.08,0,.15,0,.23,0,1.68-.04,3.38-.79,5.11-2.19,3.25-2.63,6.54-7.56,9.77-14.16,11.32-23.12,21.93-66.7,29.69-104.46,3.88-18.88,7.06-36.32,9.26-49.03,1.1-6.36,1.96-11.53,2.54-15.12.29-1.79.51-3.19.66-4.14.15-.95.23-1.45.23-1.45l.05-.35,115.91,31.53-.07.3s-16.67,71.29-36.59,145.42c-9.96,37.06-20.74,74.84-30.66,104.77-4.96,14.96-9.7,27.97-14.02,37.95-4.33,9.98-8.21,16.93-11.55,19.84-7.04,6.11-19.42,9.83-33.79,12.06-14.38,2.22-30.76,2.92-45.79,2.92-26.3,0-48.46-2.16-48.46-2.16h-.07s-.06-.04-.06-.04c-19.18-11.48-41.09-37.41-63.21-69.86-66.35-97.33-134.54-253.35-134.54-253.35l-.15-.35.37-.09s23.06-5.59,47.44-11.18c12.19-2.8,24.7-5.59,34.83-7.69,5.06-1.05,9.53-1.92,13.07-2.54,3.54-.61,6.12-.96,7.49-.97.3,0,.54.02.73.06.1.02.19.05.28.09.09.05.18.12.24.24l-.29.13Z"/>
  <path class="cls-6" d="m1296.12,724.97s98.15,163.66,148.57,170.96c50.42,7.31,60.42-85.48,60.42-85.48,0,0,2.42,110.43-60.42,99.42-62.84-11.01-148.57-184.9-148.57-184.9Z"/>
  <path class="cls-6" d="m1255.44,691.55s83.25,183.19,164.39,234.34c0,0-84.74-35.36-164.39-234.34Z"/>
  <path class="cls-6" d="m1541.68,787.3c2.14,38.17-1.09,78.27-10.86,115.21-5.8,21.93-14.57,44.66-30.65,61.2-37.9,38.97-105.35,25.95-135.59-14.92-12.44-16.81-24.16-34.15-35.12-51.95,16.55,26.88,41.04,56.3,69.33,71.71,35.69,19.45,68.51,4.56,97.15-19.89,6.91-5.9,12.43-13.3,16.63-21.32,13.93-26.65,17.3-59.32,21.77-88.56,2.46-16.07,8.26-35.31,7.35-51.48Z"/>
  <path class="cls-11" d="m1535.18,462.62c-.3,10.76-4.41,23.68-2.16,34.2,4.91,22.93-4.48,58.1-24.52,93.46-6.76,11.93-16.74,22.28-27.78,30.48-7.47,5.55-15.78,11.46-25.28,11.83-9.82.39-19.71.04-29.62-3.3-6.98-2.36-14.59-3-21.06-6.62-30.94-17.33-54.97-30-72.84-139.76-.14-.84-.36-1.66-.68-2.44-1.88-4.7-8.79-22.81-8-33.5.92-12.37,28.22-34,31.51-57.42,3.3-23.42,49.55-58.37,87.89-50.3,37.92,7.98,81.54,17.83,85.09,49.62.07.65,1.44,6.35,1.63,6.97,1.54,5.18,6.79,31.08,5.81,66.77"/>
  <path class="cls-10" d="m1535.18,462.62h.24c-.24,8.51-2.83,18.31-2.83,27.18,0,2.41.19,4.75.67,6.97.87,4.04,1.29,8.46,1.29,13.19,0,22.21-9.3,51.26-25.84,80.44-6.78,11.97-16.79,22.34-27.84,30.55-7.47,5.55-15.82,11.5-25.42,11.88-1.98.08-3.97.13-5.97.13-7.87,0-15.8-.76-23.74-3.44-6.94-2.35-14.56-2.98-21.1-6.64-15.46-8.66-29.27-16.2-41.4-35.3-12.14-19.1-22.62-49.74-31.56-104.63-.13-.82-.35-1.62-.66-2.39-.89-2.23-2.91-7.46-4.71-13.49-1.8-6.03-3.37-12.86-3.37-18.31,0-.62.02-1.23.06-1.81.24-3.17,2.14-6.86,4.89-11.01,4.12-6.22,10.17-13.45,15.49-21.33,5.32-7.87,9.91-16.38,11.14-25.1,1.51-10.66,11.73-23.54,26-33.81,14.28-10.26,32.62-17.88,50.42-17.88,3.96,0,7.9.38,11.75,1.19,18.96,3.99,39.36,8.45,55.49,15.9,8.06,3.73,15.06,8.2,20.27,13.75,5.21,5.55,8.63,12.18,9.52,20.18.01.13.11.62.25,1.25.21.95.52,2.26.79,3.38.27,1.12.51,2.08.58,2.3.71,2.4,2.19,9.11,3.5,19.13,1.31,10.02,2.44,23.33,2.44,38.9,0,2.86-.04,5.8-.12,8.81h-.24s-.24-.01-.24-.01c.08-3,.12-5.94.12-8.8,0-15.54-1.13-28.84-2.44-38.84-1.31-10-2.79-16.71-3.49-19.06-.1-.33-.48-1.9-.86-3.49-.19-.79-.37-1.59-.51-2.22-.14-.64-.24-1.11-.26-1.3-.88-7.9-4.24-14.42-9.39-19.91-7.73-8.23-19.49-14.12-32.88-18.69-13.39-4.57-28.41-7.82-42.62-10.82-3.82-.8-7.72-1.18-11.66-1.18-17.66,0-35.93,7.58-50.14,17.8-14.21,10.21-24.35,23.07-25.81,33.48-1.66,11.79-9.34,23.08-16.69,32.96-3.68,4.94-7.28,9.54-10.01,13.66-2.73,4.12-4.59,7.77-4.81,10.78-.04.57-.06,1.16-.06,1.77,0,5.36,1.56,12.17,3.35,18.17,1.79,6.01,3.8,11.23,4.69,13.45.32.8.55,1.64.69,2.49,8.93,54.87,19.41,85.44,31.49,104.45,12.08,19,25.76,26.47,41.23,35.14,6.41,3.59,13.99,4.24,21.02,6.6,7.87,2.66,15.74,3.41,23.59,3.41,1.98,0,3.97-.05,5.95-.13,9.4-.37,17.68-6.24,25.15-11.79,11.01-8.18,20.97-18.51,27.71-30.4,16.51-29.13,25.78-58.13,25.78-80.2,0-4.7-.42-9.09-1.28-13.09-.48-2.27-.68-4.64-.68-7.07,0-8.96,2.6-18.76,2.83-27.19h.24"/>
  <path class="cls-33" d="m1334.79,499.37c-2.53-68.43,32.03-79.11,32.03-79.11,0,0-31.72,149,64.39,209.03-7.29-1.09-20.16-5.78-26.63-9.4-29.31-16.42-48.47-26.31-69.79-120.52Z"/>
  <path class="cls-21" d="m1474.89,326.43s38.68,14.13,27.74,29.06c-85.06,115.99-146.78,37.13-158.91,99.53,0,0-5.71,22.82-5.71,27.86,0,8.84-2.52-5.04,1.97,44.37,0,0-3.89-45.02-9.94-50.07,0,0,31.31,101.98,24.7,105,0,0-99.44-113.09-39.3-226.18,24.69-46.43,102.98-78.07,135.52-56.27,5.87,3.93,21.62,18.06,23.92,26.71Z"/>
  <path class="cls-33" d="m1439.16,489.34s-8.64-24.8-28.05-24.19c-19.41.61-25.07,22.48-25.07,22.48l53.12,1.71"/>
  <path class="cls-13" d="m1438.57,489.79s-5.21-8.55-13.41-11.66c-6.19-2.35-12.82-3.54-19.4-2.27-3.71.72-7.25,2.17-10.47,4.14-1.62.99-3.16,2.12-4.63,3.33-1.36,1.11-2.39,2.53-3.73,3.65-1.94,1.61-6.6.43-6.6.43l10.93,3.88,47.32-1.5"/>
  <path class="cls-34" d="m1437.72,488.46s3.49,3.22.27,3.64c-1.24.16-2.37-.03-3.53-.23-1.88-.32-3.84-.63-6.51.55-4.31,1.92-24.8,10.07-38.49-2.65,0,0,16.94-23.14,48.26-1.31"/>
  <path class="cls-13" d="m1437.72,488.46l.05-.05s.41.38.83.9c.41.52.83,1.17.83,1.75,0,.27-.1.52-.33.71-.23.19-.58.33-1.1.4-.32.04-.64.06-.95.06-1.78,0-3.38-.58-5.29-.58-1.12,0-2.34.2-3.77.83-2.51,1.12-10.5,4.34-19.44,4.34-6.44,0-13.37-1.67-19.12-7.01l-.04-.04.03-.05s7.84-10.71,22.71-10.71c7.02,0,15.59,2.38,25.64,9.39h0s0,0,0,0l-.05.05-.04.06c-10.03-6.99-18.58-9.36-25.56-9.36-7.4,0-13.05,2.66-16.85,5.33-1.9,1.33-3.34,2.67-4.3,3.66-.48.5-.84.92-1.09,1.21-.24.29-.36.46-.36.46l-.05-.04.05-.05c5.71,5.31,12.61,6.97,19.02,6.97,8.91,0,16.89-3.22,19.39-4.33,1.45-.64,2.69-.85,3.83-.85,1.93,0,3.54.58,5.29.58.31,0,.62-.02.94-.06.5-.07.83-.2,1.03-.37.2-.17.28-.38.28-.61,0-.51-.4-1.16-.8-1.66-.2-.25-.41-.47-.56-.63s-.25-.25-.25-.25l.05-.05-.04.06.04-.06"/>
  <path class="cls-25" d="m1437.76,484.93s-14.91-25.62-40.38-11.2c0,0,22.48-11.57,40.38,11.2Z"/>
  <path class="cls-18" d="m1409.41,486.64c-.08-2.67.98-5.1,2.74-6.85,3.7-.85,7.96-1.11,12.79-.33,1.81,1.64,2.98,3.96,3.07,6.59.16,5.13-3.87,9.43-9,9.59-5.13.16-9.43-3.87-9.59-9"/>
  <path class="cls-13" d="m1413.31,485.15c.09,2.96,2.57,5.28,5.52,5.19,2.96-.09,5.28-2.57,5.18-5.52-.09-2.96-2.57-5.28-5.52-5.18-2.96.09-5.28,2.57-5.19,5.52"/>
  <path class="cls-14" d="m1418.2,489.52c.03.9.78,1.6,1.67,1.57.9-.03,1.6-.78,1.57-1.67-.03-.9-.78-1.6-1.67-1.57-.9.03-1.6.78-1.57,1.67Z"/>
  <path class="cls-13" d="m1412.94,477.89c2.68,0,5.5.35,8.42,1.17-.71-.04-1.41-.07-2.1-.07-1.29,0-2.52.07-3.71.21-1.18-.13-2.32-.19-3.42-.19-14.4,0-22.2,10.04-22.69,10.68l-.85-2s10.12-9.81,24.35-9.81"/>
  <path class="cls-24" d="m1412.12,479.16c.91,0,1.85.04,2.81.13-.96.13-1.89.3-2.79.51-.76.76-1.39,1.65-1.86,2.63-6.82.38-13.5,2.11-20.64,7.22.06-.07.13-.17.23-.28.24-.29.6-.71,1.09-1.21.96-1,2.4-2.33,4.3-3.66,3.8-2.67,9.45-5.33,16.85-5.33"/>
  <path class="cls-13" d="m1412.12,479.02c1.1,0,2.24.06,3.42.19-.2.02-.41.05-.61.08-.96-.09-1.9-.13-2.81-.13-7.4,0-13.05,2.66-16.85,5.33-1.9,1.33-3.34,2.67-4.3,3.66-.48.5-.84.92-1.09,1.21-.09.11-.17.21-.23.28-.06.05-.13.09-.19.14l-.03-.07c.49-.64,8.29-10.68,22.69-10.68"/>
  <path class="cls-13" d="m1426.18,480.83c3.28,1.49,6.66,3.62,10.09,6.57-3.21-2.12-6.26-3.77-9.15-5.02-.26-.55-.57-1.06-.93-1.54"/>
  <path class="cls-24" d="m1427.2,482.56c3.11,1.36,6.4,3.17,9.87,5.54.48.43.97.88,1.45,1.35.02.03.04.06.07.08-.58-.36-5.09-3.08-10.77-5.05-.14-.67-.35-1.32-.62-1.92"/>
  <path class="cls-13" d="m1438.52,489.44s.04.06.07.08c.04.03.06.04.06.04-.04-.04-.09-.08-.13-.12m-11.41-7.07c.03.06.06.12.09.19,3.11,1.36,6.4,3.17,9.87,5.54-.27-.24-.54-.47-.8-.7-3.21-2.12-6.26-3.77-9.15-5.02"/>
  <path class="cls-17" d="m1419.26,478.99c.69,0,1.39.02,2.1.07,1.58.44,3.19,1.03,4.82,1.77.36.48.67,1,.93,1.54.03.06.06.12.09.19.27.61.48,1.25.62,1.92-1.31-.45-2.68-.86-4.07-1.2-.71-2.13-2.73-3.66-5.08-3.66-.06,0-.12,0-.17,0-1.93.06-3.59,1.14-4.49,2.7-.13,0-.27,0-.4,0-1.11,0-2.22.03-3.32.09.46-.98,1.1-1.87,1.86-2.63.9-.21,1.82-.38,2.79-.51.2-.03.4-.05.61-.08,1.19-.14,2.43-.21,3.71-.21"/>
  <path class="cls-13" d="m1418.67,479.63c2.35,0,4.36,1.52,5.08,3.66-1.79-.43-3.62-.73-5.43-.82-1.45-.07-2.89-.12-4.31-.13.89-1.56,2.55-2.64,4.49-2.7.06,0,.12,0,.17,0"/>
  <path class="cls-33" d="m1481.89,488.45s6.64-23.23,23.67-23.27c17.02-.04,22.79,20.02,22.79,20.02l-46.46,3.24"/>
  <path class="cls-13" d="m1482.42,488.85s4.24-8.07,11.31-11.21c5.34-2.37,11.1-3.68,16.91-2.71,3.28.55,6.43,1.78,9.33,3.5,1.46.87,2.84,1.87,4.18,2.94,1.23.99,2.19,2.27,3.4,3.26,1.76,1.43,5.8.19,5.8.19l-9.43,3.93-41.5.1"/>
  <path class="cls-34" d="m1483.12,487.6s-2.94,3.09-.1,3.38c1.09.11,2.08-.11,3.1-.33,1.63-.35,3.34-.7,5.71.31,3.85,1.64,22.1,8.54,33.61-3.66,0,0-15.7-20.89-42.32.3"/>
  <path class="cls-13" d="m1483.12,487.6l.05.05s-.08.09-.21.23c-.37.44-1.12,1.42-1.11,2.13,0,.23.07.42.25.58.18.16.47.28.93.32.2.02.4.03.59.03,1.7,0,3.21-.71,5.12-.72.92,0,1.94.17,3.11.67,2.13.91,8.66,3.42,16.01,3.42,5.93,0,12.39-1.63,17.52-7.06l.05.05-.05.04s-.11-.14-.32-.39c-1.49-1.75-8.12-8.78-18.96-8.78-6.28,0-13.99,2.36-22.94,9.48l-.04-.05.05.05-.05-.05-.04-.05c8.96-7.14,16.7-9.51,23.02-9.51,12.46,0,19.39,9.22,19.39,9.22l.03.05-.04.04c-5.16,5.46-11.66,7.11-17.62,7.11-7.38,0-13.93-2.52-16.07-3.43-1.16-.49-2.15-.66-3.06-.66-1.87,0-3.37.71-5.12.72-.2,0-.4,0-.61-.03-.47-.05-.79-.17-1-.36-.21-.18-.3-.43-.29-.68,0-.53.34-1.14.68-1.62.34-.48.67-.83.68-.84h0s0,0,0,0l.04.05"/>
  <path class="cls-25" d="m1482.95,484.33s12.1-24.18,34.95-11.63c0,0-20.12-10-34.95,11.63Z"/>
  <path class="cls-18" d="m1517.29,484.87c-.03-2.48-1.05-4.69-2.65-6.26-3.27-.67-7.02-.78-11.21.1-1.52,1.57-2.46,3.76-2.44,6.2.05,4.76,3.74,8.6,8.24,8.59,4.5-.01,8.11-3.88,8.06-8.63"/>
  <path class="cls-13" d="m1513.82,483.61c.03,2.74-2.05,4.97-4.64,4.97-2.59,0-4.72-2.21-4.75-4.95-.03-2.74,2.05-4.97,4.64-4.97,2.59,0,4.72,2.21,4.75,4.95"/>
  <path class="cls-14" d="m1509.71,487.81c0,.83-.62,1.51-1.41,1.51-.79,0-1.43-.67-1.44-1.5,0-.83.62-1.51,1.41-1.51.79,0,1.43.67,1.44,1.5Z"/>
  <path class="cls-13" d="m1505.35,477.02c3.3,0,6.35.63,9.05,1.54-1.57-.31-3.25-.48-5.03-.48-.43,0-.87.01-1.31.03-.64-.05-1.29-.08-1.96-.08-6.01,0-13.3,2.15-21.71,8.5,7.34-7.17,14.61-9.51,20.97-9.51"/>
  <path class="cls-24" d="m1506.1,478.17c.29,0,.58,0,.86.01-1.14.1-2.32.27-3.53.52-.71.74-1.3,1.61-1.72,2.58-.6.04-1.21.09-1.82.15-8.14.73-16.63,6.57-17.47,7.16.02-.04.05-.07.07-.1.39-.42.77-.83,1.16-1.22,8.74-6.83,16.28-9.1,22.45-9.1"/>
  <path class="cls-13" d="m1482.49,488.49c-.05.05-.09.1-.14.15,0,0,.02-.02.07-.05.02-.04.05-.07.07-.1m23.61-10.46c-6.01,0-13.3,2.15-21.71,8.5-.25.24-.5.49-.74.74,8.74-6.83,16.28-9.1,22.45-9.1.29,0,.58,0,.86.01.37-.03.73-.06,1.09-.07-.64-.05-1.29-.08-1.96-.08"/>
  <path class="cls-13" d="m1514.69,478.66c6.94,2.43,11.43,6.69,11.43,6.69l-.66,1.87c-.33-.42-3.68-4.6-9.64-7.18-.33-.5-.71-.96-1.13-1.38"/>
  <path class="cls-24" d="m1515.96,480.25c5.02,2.22,8.14,5.56,9.1,6.69.07.08.13.16.18.22-2.81-1.96-5.52-3.33-8.18-4.26-.22-.96-.6-1.85-1.1-2.65"/>
  <path class="cls-13" d="m1515.83,480.04c5.96,2.57,9.31,6.75,9.64,7.18l-.03.08c-.06-.05-.13-.09-.19-.14-.05-.06-.11-.13-.18-.22-.96-1.13-4.08-4.48-9.1-6.69-.04-.07-.09-.14-.13-.21"/>
  <path class="cls-17" d="m1509.37,478.08c1.78,0,3.46.18,5.03.48.1.03.2.07.29.1.42.42.8.88,1.13,1.38.04.07.09.14.13.21.5.8.87,1.69,1.1,2.65-1.19-.42-2.37-.75-3.54-1-.68-1.89-2.41-3.24-4.43-3.24h-.01c-1.73,0-3.24,1-4.03,2.48-1.1.02-2.22.07-3.33.15.42-.97,1.01-1.84,1.72-2.58,1.22-.25,2.39-.43,3.53-.52.37-.03.73-.06,1.09-.07.44-.02.88-.03,1.31-.03"/>
  <path class="cls-13" d="m1509.09,478.66c2.02,0,3.75,1.35,4.43,3.24-2.56-.56-5.1-.77-7.66-.77-.27,0-.55,0-.82,0,.8-1.48,2.3-2.47,4.03-2.48h.01"/>
  <path class="cls-21" d="m1457.28,357.53s7.28-11.91,36.96,6.06c46.72,28.29,37.4,75.48,38.78,133.23,0,0,51.25-128.38-41.99-187.75-14.84-9.45-28.64-8.82-46.23-9.31-9.43-.27-18.84.89-23.43,5.65l35.91,52.12Z"/>
  <path class="cls-32" d="m1348.34,533.25c-.16,1.08-4.3,6.48-4.72,7.37-1.67,3.57-9.02,6.21-14.04.14-6.93-8.37-6.35-12.26-11.68-20.9-6.64-10.73-9.36-17.77-10.9-27.31-1.54-9.55-.51-20.84,8.69-24.34,9.2-3.5,17.02,3.64,17.02,3.64,0,0,1.45,1.49,3.04,4.47"/>
  <path class="cls-13" d="m1348.57,533.29c-.03.19-.12.4-.26.66-.47.91-1.5,2.41-2.46,3.79-.48.69-.95,1.35-1.31,1.88-.36.53-.64.95-.71,1.11-1.01,2.14-3.86,3.89-7.1,3.89-2.46,0-5.13-1.03-7.34-3.7-3.48-4.2-5.08-7.3-6.47-10.41-1.39-3.11-2.57-6.22-5.23-10.52-6.64-10.74-9.39-17.83-10.93-27.4-.37-2.28-.59-4.66-.59-7.02,0-3.77.57-7.48,2.03-10.6,1.46-3.11,3.83-5.64,7.4-6.99,1.84-.7,3.63-.98,5.31-.98,6.86,0,11.94,4.65,11.96,4.66h0s0,0,0,0c.01.01,1.48,1.52,3.08,4.52l-.42.23c-.79-1.48-1.54-2.58-2.1-3.32-.28-.37-.51-.64-.66-.83-.08-.09-.14-.16-.18-.2l-.06-.06.17-.17-.16.18-.05-.05c-.56-.49-5.36-4.5-11.58-4.49-1.63,0-3.36.27-5.14.95-3.44,1.31-5.71,3.72-7.14,6.75-1.42,3.02-1.99,6.67-1.99,10.39,0,2.33.22,4.68.58,6.94,1.54,9.52,4.24,16.5,10.87,27.23,2.68,4.33,3.88,7.49,5.26,10.58,1.38,3.09,2.95,6.13,6.4,10.3,2.13,2.57,4.65,3.52,6.97,3.53,3.06,0,5.78-1.7,6.67-3.62.06-.14.18-.32.33-.56.54-.83,1.61-2.3,2.55-3.69.47-.69.92-1.36,1.25-1.91.17-.27.3-.52.4-.72.1-.2.16-.36.16-.43l.47.07h0Z"/>
  <path class="cls-23" d="m1331.7,484.52c-3.01-5.61-9.61-13.62-14.86-12.3-5.24,1.33-8.3,8.33-7.61,16.45.68,8.12,4.97,15.02,6.19,14.18,2.14-1.48-2.27-11.13-1.56-16.37.71-5.24,3.98-9.26,7.93-8.96,1.81.14,4.78,1.98,2.84,4.69-1.94,2.71-.4,7.06,2.23,5.45,2.63-1.61,5.53-.28,3.09,4.03-2.44,4.31-9.2,5.11-4.91,15.46,1.73,4.19,5.87,10.44,10.73,12.63,2.82,1.27,6.42-1.08,4.52-4.04-1.9-2.96-6.29-8.97-6.6-13.25-.32-4.28.63-4.57,1.77-6.44,1.13-1.87-.73-5.93-3.75-11.54Z"/>
  <path class="cls-13" d="m1491.16,351.8s4.26,6.07,12.64,8.98c0,0-8.49-6.55-15.76-14.08,0,0,15.57,5.34,24.13,12.14,0,0-14.74-16.2-25.95-16.02,0,0,12.98.49,17.39,3.64,0,0-4.67-4.86-10.64-5.1,0,0,7.01-.73,12.98,2.91,0,0-15.33-7.83-27.25-7.53,0,0,11.3-.24,18.24,1.7,0,0-13.61-5.91-24.39-6.55,0,0,11.35-2.91,15.76,0,0,0-3.63-3.16-12.46-3.4,0,0,8.82-2.91,17.13,2.43,0,0-7.33-7.74-24.91-4.72,0,0,6.29-4.04,11.94-3.53,0,0-10.28-3.69-15.52-1.02,0,0,10.09-5.41,19.29,1.93,0,0-6.27-8.94-19.29-7.35,0,0,8.25-4.24,17.6,1.83,0,0-12.71-6.31-21.53-5.83,0,0,9.08-3.61,12.97-.03,0,0-7.79-6.04-17.39-3.37,0,0-6.75-4.13-17.65-2.43,0,0,9.08,1.46,12.46,3.4,0,0-7.79-3.88-17.91,3.4,0,0,9.96-1.82,22.58-.97,0,0-14.53-1.21-24.39,5.83,0,0,21.79-5.03,29.33-3.51,0,0-12.72-.37-21.28,7.39,0,0,11.87-5.62,21.28-3.79,0,0-10.66,1.24-17.01,9.68,0,0,12.6-8.07,17.01-6.37,0,0-13.22,3.92-18.55,9.73,0,0,15.4-7.99,23.74-6.82,0,0-12.67,2.88-18.42,9.02,0,0,13.09-5.73,22.84-5.14,0,0-13.25,2.08-19.08,6.74,0,0,11.56-5.26,20.64-4.18,0,0-18.39,1.56-25.95,10.3,0,0,17.13-9.51,29.58-6.8,0,0-15.57.97-26.21,9.23,0,0,18.94-8.25,25.95-6.55,0,0-8.11,1.52-15.97,5.25,0,0,16.09-4.38,22.46-1.85,0,0-9.13.18-18.97,7.98,0,0,15.59-6.04,20.52-3.85,0,0-10.64,1.46-16.35,5.34,0,0,11.77-4.9,17.59-2.96,0,0-12.4.53-25.12,8.06,0,0,15.18-5.79,25.12-5.82,0,0-8.77.48-16.55,6.31,0,0,8.3-3.16,12.2-2.18,0,0-3.89.73-10.64,7.53,0,0,14.89-10.27,18.35-9.63,0,0-5.37,5.26-11.08,9.63,0,0,7.79-5.1,11.16-7.04,0,0-.52,7.04-7.27,11.65,0,0,8.03-1.17,10.64-13.6Z"/>
  <path class="cls-21" d="m1349.7,438.8s-13.53,58.64-1.46,67.01c12.07,8.37-1.88,21.82,4.83,34.88,6.71,13.06,16.56,17.5,16.56,17.5,0,0-34.41-11.54-24.06-33.4,10.34-21.86-10.9,2.19-8.93-45.79,2.07-50.34,13.06-40.19,13.06-40.19Z"/>
  <path class="cls-31" d="m1488.39,529.95s-.22,7.83-7.89,10.38c-.76.25-2.19.35-3.88.35-3.89,0-9.19-.52-11.04-.86-8.47-1.56-15.24-.19-17.78-1.63-2.05-1.16-2.46-4.05-2.46-6.61,0,0,2.62,3,6.46,3.73,1.02.2,1.99.27,2.92.27,1.92,0,3.64-.34,5.2-.68,1.55-.34,2.94-.68,4.2-.68.23,0,.46.01.69.04,2.83.32,5.71,1.64,9.89,1.64,7.84,0,5.36-3.3,13.71-5.96"/>
  <path class="cls-30" d="m1479.26,474.82c-1.16,2.15-1.99,4.47-2.63,6.84-.64,2.37-.99,4.82-1.09,7.27-.12,2.46.18,4.94.77,7.32.55,2.41,1.67,4.64,2.95,6.7-.25-.56-.5-1.11-.76-1.66l-.38-.82-.29-.86c-.19-.57-.41-1.14-.59-1.71l-.41-1.76c-.16-.58-.21-1.19-.3-1.78-.08-.6-.2-1.19-.21-1.79l-.11-1.8.03-1.81c.08-2.41.41-4.81.92-7.17.26-1.18.56-2.36.92-3.52.33-1.17.75-2.31,1.19-3.45Z"/>
  <path class="cls-30" d="m1483.1,538.8c1.52-.73,2.93-1.8,3.93-3.21,1.04-1.4,1.57-3.14,1.68-4.87.09-1.74-.2-3.46-.76-5.08-.56-1.61-1.31-3.16-2.31-4.52.38.76.73,1.52,1.02,2.31.31.78.58,1.57.79,2.37.42,1.6.67,3.25.58,4.89-.09,1.63-.56,3.23-1.43,4.62-.43.69-.95,1.34-1.56,1.91-.58.61-1.26,1.09-1.94,1.6Z"/>
  <path class="cls-30" d="m1449.24,526.97c-1.1.72-2.11,1.6-2.96,2.63-.85,1.02-1.59,2.21-1.85,3.59-.12.69-.09,1.42.14,2.1.24.67.65,1.27,1.14,1.74,1.01.94,2.26,1.49,3.52,1.84-1.17-.59-2.29-1.3-3.14-2.21-.85-.92-1.24-2.14-1-3.35.21-1.21.86-2.34,1.59-3.38.75-1.04,1.61-2.03,2.54-2.95Z"/>
  <path class="cls-29" d="m1463.11,538.03s-6.65-1.07-10.68-1.9c-4.04-.83-2.66,5.22,10.68,1.9Z"/>
  <path class="cls-19" d="m1433.15,464.69c-7.7-8.03-20.96-20.31-57.54,8.29,0,0,27.92-41.37,57.59-21.84,4.7,3.09,5.5,7.47,5.73,10.4.26,3.38-3.51,5.51-5.78,3.14Z"/>
  <path class="cls-19" d="m1482.44,458.92c1.12,1.71,3.48,1.86,4.96.48,5.38-5.04,21.04-11.23,32.28-5.01,14.52,8.04,15.62,14.93,15.62,14.93,0,0-2.36-15.02-17.4-23.42-10.56-5.9-30.55-1.72-34.8,5.92-1.92,3.44-1.59,5.68-.66,7.1Z"/>
  <path class="cls-27" d="m1484.86,569.83s-1.94,15.66-18,17.73c-16.06,2.08-28.57-9.39-40.6-20.39,0,0,41.96,3.68,58.59,2.65Z"/>
  <path class="cls-28" d="m1430.49,567.83c-1.33-.29-2.66-.63-3.98-.99,8.39-.78,15.72-1.74,22-2.87,6.27-1.15,10.65-1.67,13.16-1.55,2.51.2,5.2,1.56,8.07,4.09,3.9-3.2,8.07-4.6,12.49-4.2,4.43.47,5.94,2.94,4.53,7.41-5.3,1.99-12.6,2.84-21.89,2.54-10.1-.37-21.56-1.84-34.38-4.42"/>
  <path class="cls-15" d="m1488.39,568.75c-.59.37-1.23.66-1.88.9l-.98.36-1,.3c-.66.21-1.35.36-2.03.51l-1.02.23-1.03.16c-.69.1-1.37.24-2.06.32l-2.08.22-1.04.11-1.04.05-2.09.11c-5.57.19-11.14-.1-16.69-.61-1.39-.14-2.77-.31-4.16-.46-1.38-.17-2.78-.28-4.15-.51l-4.14-.62c-1.38-.21-2.76-.4-4.13-.66-2.74-.5-5.5-.94-8.24-1.5l-8.22-1.64,8.15,1.97c1.36.34,2.73.58,4.1.87l4.11.82c.69.13,1.37.29,2.06.4l2.07.33,4.14.66c1.38.24,2.77.36,4.16.55,1.39.16,2.78.35,4.17.49,5.58.46,11.18.76,16.78.45l2.1-.15,1.05-.08,1.04-.13,2.09-.27c.69-.1,1.38-.25,2.07-.37l1.03-.2,1.02-.27c.68-.18,1.36-.34,2.02-.58l1-.33.97-.4c.64-.28,1.27-.6,1.84-1Z"/>
  <path class="cls-26" d="m1463.72,456.22c0,1.78,1.06,3.22,2.37,3.22s2.37-1.44,2.37-3.22-1.06-3.22-2.37-3.22-2.37,1.44-2.37,3.22Z"/>
  <path class="cls-16" d="m1436.38,368.34s-35.91,33.69-88.05,46.86c0,0-14.99,6.58-18.55,26.03,0,0-6.03-22.47,28.22-34.25,34.25-11.78,68.23-29.59,78.37-38.64Z"/>
  <path class="cls-16" d="m1434.19,343.13s-39.73,36.99-77.55,52.34c0,0,53.24-17.54,77.55-52.34Z"/>
  <path class="cls-16" d="m1368.7,366.97c.7-.43-49.6,40.56-47.41,83.58,0,0-10.41-47.95,47.41-83.58Z"/>
  <path class="cls-3" d="m1229.49,955.31s-46.52-19.62-95.82-11.1l.78-10.91s53.34-5.83,96.4,14.13l-1.36,7.87Z"/>
  <path class="cls-3" d="m1232.48,937.25s-48.2-19.81-97.51-11.29l1.04-10.91s54.8-5.62,97.86,14.34l-1.38,7.86Z"/>
  <path class="cls-20" d="m1494.69,2572.03s-4.5,55.72-77.83-12.69c0,0,9.97,57.41,15.83,69.86,7.09,15.07,33.27,48.46,58.58,49.54,25.31,1.08,45.37-38.58,3.42-106.71Z"/>
  <path class="cls-13" d="m1494.69,2572.03l.32.03s-.44,5.4-3.24,10.82c-1.41,2.71-3.41,5.42-6.26,7.47-2.85,2.04-6.55,3.4-11.3,3.4-11.67,0-29.64-8.13-57.56-34.17l.22-.23.31-.05s.16.9.44,2.49c.99,5.58,3.56,19.69,6.52,33.77,1.48,7.04,3.05,14.07,4.58,20.02,1.52,5.95,3,10.82,4.27,13.5,3.52,7.49,11.83,19.59,22.39,29.92,10.56,10.34,23.4,18.9,35.91,19.43.33.01.67.02,1,.02,7.05,0,13.61-3.22,18.44-9.43,4.82-6.2,7.9-15.4,7.9-27.32,0-17.56-6.67-41.03-24.2-69.5l.27-.17.32.03-.32-.03.27-.17c17.57,28.54,24.3,52.11,24.3,69.83,0,12.03-3.1,21.37-8.03,27.71-4.93,6.34-11.69,9.67-18.94,9.67-.34,0-.68,0-1.02-.02-12.79-.56-25.71-9.23-36.33-19.61-10.62-10.4-18.95-22.52-22.52-30.11-1.48-3.16-3.2-9.09-4.96-16.23-5.28-21.42-10.89-53.71-10.89-53.71l-.16-.94.69.65c27.86,26,45.76,34.01,57.12,34,4.63,0,8.18-1.32,10.93-3.28,4.12-2.95,6.44-7.4,7.72-11.13.64-1.86,1.02-3.54,1.24-4.75.11-.6.18-1.09.22-1.43.02-.17.04-.3.04-.38s.01-.13.01-.13l.08-.97.51.83-.27.17Z"/>
</svg>