<?xml version="1.0" encoding="UTF-8"?>
<svg id="Design" xmlns="http://www.w3.org/2000/svg" viewBox="0 0 5266.56 2574.76">
  <defs>
    <style>
      .cls-1, .cls-2, .cls-3, .cls-4, .cls-5, .cls-6, .cls-7, .cls-8, .cls-9, .cls-10, .cls-11, .cls-12, .cls-13, .cls-14, .cls-15, .cls-16, .cls-17, .cls-18, .cls-19, .cls-20, .cls-21, .cls-22, .cls-23, .cls-24, .cls-25, .cls-26, .cls-27, .cls-28, .cls-29, .cls-30, .cls-31, .cls-32, .cls-33, .cls-34, .cls-35, .cls-36, .cls-37, .cls-38, .cls-39, .cls-40, .cls-41 {
        stroke-width: 0px;
      }

      .cls-2 {
        fill: #777678;
      }

      .cls-3 {
        fill: #5e5e5e;
      }

      .cls-4 {
        fill: #504147;
      }

      .cls-5 {
        fill: #837e79;
      }

      .cls-6 {
        fill: #477eb5;
      }

      .cls-7 {
        fill: #294786;
      }

      .cls-8 {
        fill: #4b2a26;
      }

      .cls-9 {
        fill: #565353;
      }

      .cls-10 {
        fill: #5c5755;
      }

      .cls-11 {
        fill: #83211c;
      }

      .cls-12 {
        fill: #9c352d;
      }

      .cls-13 {
        fill: #8a3c30;
      }

      .cls-14 {
        fill: #534c9d;
      }

      .cls-15 {
        fill: #6f6a67;
      }

      .cls-16 {
        fill: #3957a1;
      }

      .cls-17 {
        fill: #583e4b;
      }

      .cls-18 {
        fill: #3e3b3b;
      }

      .cls-19 {
        fill: #3f373c;
      }

      .cls-20 {
        fill: #372127;
      }

      .cls-21 {
        fill: #415eb0;
      }

      .cls-22 {
        fill: #aa2422;
      }

      .cls-23 {
        fill: #ae3625;
      }

      .cls-24 {
        fill: #d5900e;
      }

      .cls-25 {
        fill: #d6433c;
      }

      .cls-26 {
        fill: #c1704b;
      }

      .cls-27 {
        fill: #a55c48;
      }

      .cls-28 {
        fill: #bcbbbb;
      }

      .cls-29 {
        fill: #bd6bf1;
      }

      .cls-30 {
        fill: #ad6951;
      }

      .cls-31 {
        fill: #b8603f;
      }

      .cls-32 {
        fill: #2f4d97;
      }

      .cls-33 {
        fill: #9d3730;
      }

      .cls-34 {
        fill: #fdefe3;
      }

      .cls-35 {
        fill: #f2b02d;
      }

      .cls-36 {
        fill: #ffa12b;
      }

      .cls-37 {
        fill: #e5d8d8;
      }

      .cls-38 {
        fill: #e6a73d;
      }

      .cls-39 {
        fill: #ffd04f;
      }

      .cls-40 {
        fill: #fcb766;
      }

      .cls-41 {
        fill: #67575e;
      }
    </style>
  </defs>
  <rect class="cls-28" x="223.75" y="354.59" width="4879.28" height="1628.96"/>
  <g>
    <path class="cls-34" d="m2938.56,1970.47c-39.06-.08-78.13-.17-117.19-.26-23.24-63.98-46.49-127.96-69.74-191.93h100.45c28.83,64.07,57.65,128.13,86.48,192.19Z"/>
    <path class="cls-34" d="m786.85,1970.78c-38.61-.11-77.22-.21-115.84-.32,70.44-64.06,140.88-128.13,211.32-192.19h100.45c-65.31,64.17-130.62,128.33-195.93,192.51Z"/>
    <path class="cls-34" d="m1094.3,1970.4c-38.65.02-77.29.05-115.93.07,57-64.06,114-128.13,171.01-192.19h100.45c-51.84,64.04-103.68,128.08-155.52,192.12Z"/>
    <path class="cls-34" d="m1401.56,1970.59c-38.58-.04-77.17-.08-115.76-.12,43.54-64.06,87.07-128.13,130.61-192.19h100.45c-38.43,64.1-76.87,128.21-115.3,192.31Z"/>
    <path class="cls-34" d="m1708.89,1970.47h-116.2c30.25-64.06,60.51-128.13,90.77-192.19h100.45c-25.01,64.07-50.01,128.13-75.02,192.19Z"/>
    <path class="cls-34" d="m2016.37,1970.35c-38.62.04-77.24.07-115.85.11,16.66-64.06,33.32-128.12,49.97-192.18h100.45c-11.52,64.03-23.05,128.05-34.57,192.07Z"/>
    <path class="cls-34" d="m2325.3,1970.47h-115.8c2.69-64.06,5.36-128.13,8.05-192.19h100.45c2.43,64.07,4.86,128.13,7.3,192.19Z"/>
    <path class="cls-34" d="m2631.12,1970.47c-38.81-.08-77.63-.17-116.45-.26-10.03-63.98-20.06-127.96-30.09-191.93h100.45c15.36,64.07,30.72,128.13,46.08,192.19Z"/>
    <path class="cls-34" d="m3553.44,1970.47c-38.55-.08-77.1-.17-115.64-.25-50.7-63.98-101.39-127.96-152.08-191.94h100.45c55.75,64.07,111.51,128.13,167.27,192.19Z"/>
    <path class="cls-34" d="m3860.87,1970.47c-38.48-.02-76.96-.04-115.44-.07-64.23-64.04-128.45-128.08-192.68-192.12h91.02c72.37,64.07,144.73,128.13,217.1,192.19Z"/>
    <path class="cls-34" d="m3246,1970.47c-38.93-.08-77.87-.17-116.8-.26-36.84-63.98-73.69-127.96-110.53-191.93h100.45c42.29,64.07,84.58,128.13,126.87,192.19Z"/>
  </g>
  <rect class="cls-40" x="240.8" y="1704.11" width="4847.32" height="39.85"/>
  <g>
    <path class="cls-34" d="m914.42,1441.31H240.8v-17.08h703.48c-9.95,5.69-19.9,11.38-29.86,17.08Z"/>
    <path class="cls-34" d="m1294.24,1441.31h-282.59c9.22-5.69,18.44-11.38,27.66-17.08h276.18c-7.08,5.69-14.17,11.38-21.25,17.08Z"/>
    <path class="cls-34" d="m1673.39,1441.31h-306.11c6.53-5.69,13.06-11.38,19.59-17.08h299.16c-4.21,5.69-8.43,11.38-12.65,17.08Z"/>
    <path class="cls-34" d="m2052.53,1441.31h-306.11c3.66-5.69,7.33-11.38,11-17.08h299.16c-1.35,5.69-2.7,11.38-4.05,17.08Z"/>
    <path class="cls-34" d="m2431.67,1441.31h-306.1c.8-5.69,1.6-11.38,2.39-17.08h299.16c1.51,5.69,3.03,11.38,4.54,17.08Z"/>
    <path class="cls-34" d="m2810.81,1441.31h-306.1c-2.07-5.69-4.13-11.38-6.2-17.08h299.16c4.38,5.69,8.76,11.38,13.15,17.08Z"/>
    <path class="cls-34" d="m3186.35,1441.31h-306.1c-4.9-5.69-9.81-11.38-14.71-17.08h299.15c7.22,5.69,14.44,11.38,21.66,17.08Z"/>
    <path class="cls-34" d="m3565.5,1441.31h-306.1c-7.77-5.69-15.55-11.38-23.32-17.08h299.15c10.09,5.69,20.18,11.38,30.26,17.08Z"/>
    <path class="cls-34" d="m5089.66,1441.31h-1426.93c-10.82-5.69-21.64-11.38-32.46-17.08h1459.39v17.08Z"/>
  </g>
  <g>
    <path class="cls-4" d="m4242.25,1855.48s-2.12,11.26,1.93,16.17c4.08,4.89,19.18,8.13,55.44,0,36.27-8.15,55.42-17.53,76.61-22.03,21.19-4.47,26.39-22.73,21.35-32.14-5.04-9.43-155.33,37.99-155.33,37.99Z"/>
    <path class="cls-4" d="m4319.72,1898.9s-5.43,16.33,13.32,24.09c18.73,7.73,46.04,12.62,62.34,0,16.3-12.65,88.83-64.8,87.21-83.14-1.62-18.34-14.13-18.76-14.13-18.76l-148.75,77.81Z"/>
    <path class="cls-30" d="m4306.97,1447.39s-4.08,15.91,0,37.49c4.05,21.61,19.96,178.92,19.96,189.5s6.11,88.44,0,110.44c-6.11,22-13.87,33.83-35.45,44.42-21.61,10.61-52.99,13.04-50.53,23.23,2.43,10.19,22.13,17.95,44.29,13.45,22.13-4.47,53.12-15.08,70.62-18.73,17.53-3.68,47.68-19.15,41.57-39.95-6.11-20.77-14.26-43.61-12.23-63.99,2.04-20.38,26.07-164.63,19.57-207.82-6.53-43.22-15.63-77.65-15.63-77.65l-82.17-10.4Z"/>
    <path class="cls-4" d="m4264.02,1838.96s38.04-4.15,49.88,0c11.81,4.15,17.98,14.53,17.98,14.53l30.91-8.18s-20.33-32.82-45.2-37.68c0,0-9.8,3.27-19.99,11.42-10.19,8.15-33.57,19.91-33.57,19.91Z"/>
    <path class="cls-30" d="m4397.03,1450.66s-10.61,2.04-5.3,33.83c5.3,31.77,22,159.33,23.23,193.16,1.23,33.84,5.51,129.75-6.92,144.67-12.46,14.95-46.06,43.22-63.99,49.72-17.92,6.53-32.84,21.19-20.69,31.8,12.12,10.58,18.66,8.15,29.24,12.23,10.61,4.08,30.18,4.08,42.41-5.72,12.23-9.77,73.39-56.23,81.52-71.3,8.13-15.08-12.25-37.91-8.99-57.48,3.27-19.54,39.53-209.46,33-265.69-6.5-56.25-19.15-73.37-19.15-73.37l-84.34,8.15Z"/>
    <path class="cls-4" d="m4335.79,1911.49s19.1-21.42,13.27-41.65c0,0,13.27-18,30.8-20.95,0,0-4.73,17.45,30.26,10.92,34.98-6.5,58.34-10.92,58.34-10.92l-33.13,31.3s-54.4-7.81-95.26,32.55l-4.28-1.25Z"/>
    <path class="cls-9" d="m4291.53,1104.36s-9.2,147.54-12.54,194.36c-3.34,46.82-10.95,151.72-10.95,151.72,0,0,70.7,20.67,110.42,9.72l11.16-355.81h-98.08Z"/>
    <path class="cls-9" d="m4374.15,1368.96c-1.54,38.43,4.31,98.63,4.31,98.63,0,0,23.83,7.11,83.19-9.41,59.36-16.51,61.03-27.38,61.03-27.38,0,0-9.61-84.18-7.53-137.61,2.09-53.4,17.53-172.1,4.6-208.47-12.96-36.37-82.35-23.41-82.35-23.41l-76.08,29.68-32.5,18.39s46.87,221.12,45.33,259.58Z"/>
    <path class="cls-18" d="m4390.66,1459.56c-15.05-4.6-32.4-184.46-49.51-236.27,20.93,48.49,37.26,210.25,39.3,230.92,10.48,1.54,70.67,3.32,139.57-38.54-55.1,39.06-106.39,43.89-129.36,43.89Z"/>
    <path class="cls-18" d="m4483.28,1450.89c-.78-20.41-13.53-305.93-13.53-308.99,4.86,2.8,17.35,288.58,18.13,308.99h-4.6Z"/>
    <path class="cls-18" d="m4346.5,1452.17c-42.35,0-77.81-11.23-78.33-11.23,2.3-4.34,56.15,12.25,110.49,4.08-10.48,6.4-21.43,7.16-32.16,7.16Z"/>
    <path class="cls-30" d="m4322.13,807.03s-31.07,156.51-33.99,174.85c-2.93,18.37-56.46,85.67-65.87,103.36-4.08,7.71-26.26,20.61-21.21,36.21,5.07,15.57,44.18,18.73,50.32,0,12.65-38.56,55.91-54.95,71.98-92.18,16.04-37.23-3.4,73.45,17.04-6.87,20.46-80.32,19.07-213.25,13.22-247.59-5.85-34.3-15.42-2.85-31.48,32.22Z"/>
    <path class="cls-19" d="m4482.92,754.48s69.42,33.03,90.74,65.22c21.32,32.19,18.81,97.82,17.14,162.59-1.67,64.8,2.93,102-46.4,109.53-49.3,7.53-72.3-5.43-72.3-5.43l10.82-333.99v2.09Z"/>
    <path class="cls-27" d="m4302.82,695.57s5.09,18.81,3.37,29.68c-1.7,10.87-7.13,19.65-7.97,29.66-.84,10.03,7.53,35.53,11.7,33.86,4.15-1.67,36.34-38.43,51.39-52.65,15.05-14.21,21.32-40.55,21.32-40.55,0,0-26.08-10.87-36.03-32.61-9.96-21.74-43.79,32.61-43.79,32.61Z"/>
    <path class="cls-27" d="m4068.09,1169.26s3.66,23.96-.73,33.47c-4.36,9.48-22.26,15.34-22.26,15.34l19.36,33.63s47.45,3.61,47.81,2.51c.37-1.1,29.18-54.4,29.18-54.4,0,0-14.95,6.9-21.5-9.48-5.88-14.63,2.25-44.26,2.25-44.26l-54.11,23.2Z"/>
    <path class="cls-30" d="m4229.66,611.12s.42,20.9,7.11,32.19,11.7,18.81,11.29,28.85c-.42,10.03-2.22,12.36.52,14.24,4.86,3.4,12.85-1.28,16.62,4.15,3.76,5.43,10.87,22.16,23.41,22.57,12.54.42,40.21-32.53,49.77-58.58,5.2-14.24-7.58-66.83-7.58-66.83l-53.9-2.93-38.04,5.85-9.2,20.48Z"/>
    <path class="cls-20" d="m4304.28,635.53c3.14-6.01-1.46,7.79-10.24,4.02-8.78-3.76-5.85-24.98-13.79-24.19-7.94.78-9.62,6.22-18.81,2.04-9.2-4.18-7.11-7.84-17.56-2.04-10.45,5.8-5.85,9.35-18.81,10.92-12.96,1.57-21.74-10.97-16.3-23.52,5.43-12.54,7.11-15.89,18.81-24.66,11.71-8.78,9.2-15.89,24.25-17.14,15.05-1.25,25.5-8.36,40.13-2.93,14.63,5.43,14.21,4.18,27.15,9.2,12.96,5.02,15.89,5.85,22.99,17.56,7.11,11.71,12.54,17.66,12.96,30.57.42,12.91-4.6,25.03,0,33.6,4.6,8.57-.47,17.74-8.44,17.32-7.97-.42-20.88,2.67-28.4-13.22-7.5-15.89-5.98-23.8-13.93-17.53Z"/>
    <path class="cls-12" d="m4309.51,746.15l-11.29,8.75s-9.62,32.19-20.9,56.43c-11.29,24.25-5.43,46.82-3.34,56.44,2.09,9.62,4.08,63.12-3.4,87.79-7.47,24.64,2.98,81.49,13.85,103.23,10.87,21.74,0,39.71,1.26,45.99,1.25,6.27,40.68,15.05,71.12,11.7,30.44-3.34,129.1-33.44,147.49-34.28,18.39-.84-5.85-199.8-5.85-199.8l-65.21-169.28s-28.01-13.79-50.58-17.56c-22.58-3.76-73.13,50.58-73.13,50.58Z"/>
    <path class="cls-11" d="m4393.46,970.19c28.32-36.5,33.44-51.55,34.2-56.91l-44.16,21.16c-1.52-3.55,46.95-26.52,46.95-26.52,1.28,3.06,5.36,16.33-37,62.26Z"/>
    <path class="cls-11" d="m4349.06,1098.53c-10.71,0-21.69-1.02-32.14-3.58,42.59,6.9,89.3-7.92,94.4-13.01-1.28.26-5.36,0-17.87,2.04-9.96,1.78-19.88,2.56-29.34,2.56-43.11,0-76.53-15.57-76.79-15.57,2.04-3.32,49.75,19.65,105.63,9.43,19.39-4.08,21.43-1.52,21.95,0-4.1,8.68-33.7,18.13-65.84,18.13Z"/>
    <path class="cls-30" d="m4029.76,1110s5.85,19.33,8.05,33.21c2.17,13.87,10.95,21.61,19.33,27.59,8.41,6.01,23.36,10.01,36.53,5.28,13.14-4.75,24.82-16.07,29.92-34.33,5.12-18.26,0-57.59,0-57.59l-27.75-19.44-58.03,20.51-8.05,24.77Z"/>
    <path class="cls-20" d="m4120.32,1117.21s-7.68,1.54-6.22-13.79c1.46-15.34-7.5-15.42-15.89-13.43-8.41,1.99-1.7,2.72-16.54,4.18-14.82,1.46-22.47,5.85-30.49,10.19-8.02,4.34-10.53,10.06-19.99,10.58-9.46.52-18.97-9.09-17.87-20.77,1.1-11.68-.16-21.53,12.25-29.45,12.41-7.94,9.3-18.26,25-21.56,15.68-3.29,18.97-11.68,35.04-8.39,16.07,3.27,16.43,6.19,29.94,9.12,13.51,2.93,16.07,18.79,19.36,33.13,3.27,14.35,8.39,20.17,5.83,34.78-2.56,14.61-9.12,41.62-18.97,40.52,0,0-7.13-8.54-3.84-19.49,3.27-10.97,2.38-15.63,2.38-15.63Z"/>
    <path class="cls-30" d="m3993.62,1481.67s-2.56,9.49-6.22,22.26-6.56,38.72,3.11,44.18c9.67,5.49-.91-10.22.55-24.82,0,0,1.86,27.75,6.4,27.75s3.45-30.67,3.45-30.67c9.48,2.19,2.56,12.41,8.78,10.95,6.19-1.46,11.73-32.24,9.85-40.89-1.88-8.62-25.92-8.75-25.92-8.75Z"/>
    <path class="cls-30" d="m4219.58,1162.94s-8.73-16.41-13.46-25.92c-4.76-9.51-9.15-24.61,0-32.03,9.12-7.42,16.41-5.72,24.46,0,8.02,5.72,16.8,15.05,11.68,20.61-5.12,5.56-5.85,22.05-.37,33.7,5.49,11.65-22.31,3.63-22.31,3.63Z"/>
    <path class="cls-30" d="m4021.74,1734.69s10.22,69.73,4,97.12c-6.19,27.38-36.13,31.41-44.16,43.82-8.05,12.41,13.87,15.34,31.74,9.12,17.9-6.19,51.86-12.41,52.6-27.38.71-14.97-8.05-9.85-3.66-33.57,4.36-23.75,12.78-76.32,12.78-85.07s-53.3-4.02-53.3-4.02Z"/>
    <path class="cls-41" d="m4013.32,1884.74c17.9-6.19,51.86-12.41,52.6-27.38.47-9.77-3.06-11.08-4.36-17.35-23.28,11.57-37.52,11.86-45.54,9.75-11.47,12.2-28.64,16.88-34.44,25.87-8.05,12.41,13.87,15.34,31.74,9.12Z"/>
    <path class="cls-4" d="m4065.92,1857.36c-6.24,3.79-17.64,10.29-38.49,17.9-39.09,14.24-46.59,6.14-47.47,4.91-.39,8.44,17.95,9.93,33.36,4.57,17.9-6.19,51.86-12.41,52.6-27.38Z"/>
    <path class="cls-30" d="m4133.93,1737.2s23.46,66.47,22.63,94.53c-.81,28.09-29.42,37.78-34.91,51.5-5.49,13.74,16.57,12.38,32.92,2.85,16.36-9.54,48.49-22.16,46.32-37-2.17-14.81-9.77-8.13-10.06-32.24-.26-24.14-2.14-77.36-3.84-85.96-1.67-8.6-53.07,6.32-53.07,6.32Z"/>
    <path class="cls-41" d="m4154.57,1886.07c16.36-9.54,48.49-22.16,46.32-37-1.41-9.67-5.12-10.29-7.63-16.17-20.59,15.81-34.51,18.84-42.8,18.32-8.91,14.19-24.85,22.1-28.82,32.01-5.49,13.74,16.57,12.38,32.92,2.85Z"/>
    <path class="cls-4" d="m4200.89,1849.08c-5.38,4.91-15.31,13.51-34.3,24.98-35.61,21.5-44.55,15-45.65,13.95,1.25,8.36,19.52,6.3,33.63-1.93,16.36-9.54,48.49-22.16,46.32-37Z"/>
    <path class="cls-2" d="m4019.91,1494.08s-4.39,29.58-10.58,104.43c-6.22,74.83-12.8,150.78-12.8,150.78,0,0,40.18,24.82,90.56,0,0,0,4.02-79.61,8.75-109.53,4.75-29.94,8.05-61.71,8.05-61.71l14.24,171.97s31.41,9.85,64.98,0c33.6-9.88,30.41-11.5,30.41-11.5,0,0-16.28-87.06-14.71-140.75,1.83-62.81-3.66-88.73-12.78-108.82-9.12-20.07-166.12,5.12-166.12,5.12Z"/>
    <path class="cls-35" d="m4054.71,1213.89s6.09,27.54,32.37,27.54,46.38-40.21,46.38-40.21c0,0,8.75-2.51,31.38,1.52,11.71,9.12,3.66,61.32,8.41,130.69,4.75,69.37,18.63,161.39,18.63,161.39,0,0-40.42,3.29-67.85,8.39-27.46,5.12-85.88,5.12-108.14-2.53,0,0,8.05-84.71,10.95-126.33,2.93-41.65,2.93-155.54,2.93-155.54l24.95-4.91Z"/>
    <path class="cls-35" d="m4039.24,1231.21l-9.49-12.41s-13.85-1.1-20.8,23.36c-6.92,24.45,0,144.38-5.12,164-5.12,19.65-16.43,79.9-16.43,79.9,0,0,24.09,14.97,35.8,9.85,11.68-5.12,16.04-264.7,16.04-264.7Z"/>
    <path class="cls-35" d="m4167.09,1203.46s60.93,25.55,67.15,25.19l-20.82-69.34s16.8,1.49,27.38-6.92c0,0,23.36,44.13,32.14,81.02,8.75,36.87,1.83,38.98-15.34,40.84-17.17,1.88-84.63-5.43-90.51-9.46-5.88-4,0-61.32,0-61.32Z"/>
    <path class="cls-30" d="m4113.37,1112.67c13.17-.29,7.4,21.08,2.25,20.54-5.12-.55-2.25-20.54-2.25-20.54Z"/>
    <path class="cls-3" d="m4185.51,1749.92c-4.6-1.78-3.32-169.41-20.41-252.34,21.95,82.43,20.41,250.56,20.41,252.34Z"/>
    <path class="cls-3" d="m4172.23,1528.72c-26.02-.26-29.08-28.32-29.08-28.58,4.86.5,7.39,23.72,29.08,23.98v4.6Z"/>
    <path class="cls-3" d="m4101.82,1578.97l-14.03-30.1c4.08-2.04,18.11,28.06,18.11,28.06l-4.08,2.04Z"/>
    <path class="cls-3" d="m4149.29,1747.13c-19.65,0-32.16-5.09-33.18-5.36,1.78-4.34,42.61,11.47,94.66-15.57-22.71,17.35-44.65,20.93-61.48,20.93Z"/>
    <path class="cls-3" d="m4043.4,1751.2c-27.04,0-46.69-9.96-46.95-10.19,2.3-4.34,44.13,17.09,90.06-4.1-13.77,11.76-29.34,14.29-43.11,14.29Z"/>
    <path class="cls-24" d="m4223.29,1169.21c-6.64-5.36,7.13-1.28,18.6-12.75-4.08,10.95-12.49,12.75-18.6,12.75Z"/>
    <path class="cls-24" d="m4110.49,1458.81c-31.38-10.71-47.97-42.35-48.47-43.89,4.34-1.78,20.67,29.34,43.87,38.02,6.4-1.52-2.8-16.07-14.53-30.1,13.01,7.92,28.06,27.56,23.72,33.94-1.28,1.52-2.8,2.04-4.6,2.04Z"/>
    <path class="cls-24" d="m4086.51,1250.6c-34.44,0-41.07-34.7-41.07-34.96,4.83.26,10.71,30.36,41.07,30.36,32.92-.76,51.29-43.63,51.29-44.13,3.84,3.81-15.05,47.97-50.27,48.73h-1.02Z"/>
    <path class="cls-24" d="m4070.18,1501.92c-37.75,0-54.34-6.64-55.36-6.87,2.04-4.1,30.36,7.13,98.5-.26,66.34-7.66,76.03-11.23,76.29-11.5,1.52,4.6-7.42,8.18-75.8,16.1-16.83,2.04-31.38,2.53-43.63,2.53Z"/>
    <path class="cls-24" d="m4018.13,1501.16c2.56-32.66,8.18-59.44,9.43-92.62,1.02-32.66-6.87-132.68-6.87-133.7,4.83.5,12.49,100.78,11.47,133.7-1.28,33.68-6.9,60.72-14.03,92.62Z"/>
    <path class="cls-19" d="m4442,711.35s-31.56-17.66-41.18-11.21c-9.62,6.45-19.52,24.3-21.87,75.06-2.93,63.12,38.8,170.74,87.29,177.85,48.49,7.11-24.25-241.71-24.25-241.71Z"/>
    <path class="cls-30" d="m4439.07,872.79s24.43,68.56,22.47,85.7c-1.99,17.11-9.38,184.36-14.4,202.75-5.02,18.39-10.58,26.28-14.76,33.39-4.18,7.11-8.36,25.5-8.36,35.53s2.33,42.4,10.27,41.57c7.94-.84,1.44-27.56,4.36-45.02,0,0-3.53,49.8,7.94,46.92,7-1.75,4.05-30.62,4.52-42.48.29-7.71-1.1,42.48,10.43,39.56,7.71-1.96-3.16-25.27,3.08-41.86,6.27-16.62.58,4.05,2.66,17.01,2.09,12.96,9.62,8.83,9.62-3.11s4.26-18.99,6.77-34.04c2.51-15.05-3.63-19.52,1.38-37.89,5.02-18.39,50.98-170.09,49.3-201.89-1.67-31.77-9.2-98.24-21.29-123.32-12.12-25.08-73.99,27.17-73.99,27.17Z"/>
    <path class="cls-12" d="m4426.85,707.45c-26.02,11.1-23.8,38.51-23.15,68.3.68,31.95,33.29,112.09,33.29,112.09,0,0,52.67-7.53,85.28-41.8,0,0-26.34-67.72-35.12-90.72-8.78-22.97-31.74-60.04-60.3-47.87Z"/>
    <g>
      <path class="cls-20" d="m4261.59,641.25s-5.59-1.59-13.01,8.62c-3.29-3.32,6.87-13.53,13.01-8.62Z"/>
      <path class="cls-33" d="m4278.6,686.4s-1.57,6.98-7.71,12.75c-1.41-3.01,1.91-5.43,7.71-12.75Z"/>
    </g>
    <path class="cls-30" d="m4298.95,647.02s-3.97-21.45,5.75-21.74c12.2-.37,13.38,28.82,4.18,29.24-9.2.42-9.93-7.5-9.93-7.5Z"/>
    <g>
      <path class="cls-20" d="m4043.32,1121.58s2.01-5.96,15.62-6.3c-.97-4.94-16.25-2.14-15.62,6.3Z"/>
      <path class="cls-20" d="m4098.21,1111.73s-6.4-4.36-19.39-.26c-.71-4.99,17.24-7.92,19.39.26Z"/>
      <path class="cls-23" d="m4089.07,1152.3c-6.01,5.8-17.51,13.4-24.72,4.1,8.28,6.22,16.57-.58,24.72-4.1Z"/>
    </g>
    <path class="cls-1" d="m4260.07,653.82c1.23,1.52,1.25,3.53.05,4.52-1.2.99-3.16.6-4.42-.91-1.23-1.49-1.28-3.5-.08-4.49,1.2-1.02,3.19-.6,4.44.89Z"/>
    <path class="cls-1" d="m4057.06,1128.35c.08,1.96-1.12,3.58-2.69,3.63-1.54.05-2.87-1.46-2.95-3.4-.08-1.96,1.12-3.58,2.69-3.63s2.9,1.46,2.95,3.4Z"/>
    <path class="cls-1" d="m4091.34,1122.83c.08,1.93-1.15,3.55-2.69,3.63-1.57.05-2.9-1.46-2.98-3.42-.05-1.93,1.15-3.55,2.69-3.61,1.57-.08,2.9,1.46,2.98,3.4Z"/>
    <path class="cls-13" d="m4070.26,1128.45s.47,6.4,0,9.61c-.44,3.19,4.36,3.84,4.36,3.84l-4.36-13.45Z"/>
  </g>
  <g>
    <rect class="cls-34" x="4812.78" y="932.37" width="54.82" height="610.29" transform="translate(9680.38 2475.04) rotate(180)"/>
    <rect class="cls-17" x="4812.78" y="1542.66" width="54.82" height="416.84"/>
    <rect class="cls-37" x="4812.78" y="877.55" width="54.82" height="54.83"/>
    <path class="cls-34" d="m4588.18,366.16h484.92c7.3,0,13.23,5.93,13.23,13.23v484.92c0,7.3-5.93,13.23-13.23,13.23h-484.92c-7.3,0-13.23-5.93-13.23-13.23v-484.92c0-7.3,5.93-13.23,13.23-13.23Z" transform="translate(9661.27 1243.71) rotate(180)"/>
    <path class="cls-6" d="m4608.73,861.04h443.82c8.38,0,15.17-6.79,15.17-15.17v-448.02c0-8.38-6.79-15.18-15.17-15.18h-443.82c-8.38,0-15.17,6.8-15.17,15.18v448.02c0,8.38,6.79,15.17,15.17,15.17Z"/>
    <path class="cls-34" d="m4633.51,777.18h394.25c9.07,0,14.75-9.81,10.23-17.68-65.71-114.45-131.41-228.91-197.13-343.37-4.54-7.9-15.93-7.9-20.46,0-65.72,114.46-131.42,228.92-197.13,343.37-4.51,7.87,1.16,17.68,10.24,17.68Z"/>
    <g>
      <polygon class="cls-17" points="4927.3 763.02 4971.69 763.02 4942.47 716.93 4910.15 716.93 4927.3 763.02"/>
      <polygon class="cls-17" points="4799.45 763.02 4840.19 763.02 4835.41 716.93 4803.1 716.93 4799.45 763.02"/>
      <polygon class="cls-17" points="4667.95 763.02 4711.78 763.02 4728.08 716.93 4695.77 716.93 4667.95 763.02"/>
      <path class="cls-17" d="m4845.58,629.56l-19.03,19.19,53.26,92.25c4.13,6.67,12.93,8.39,18.82,4.31,5.29-3.66,7.1-11.22,3.76-17.35-18.94-32.8-37.88-65.6-56.82-98.4Z"/>
      <path class="cls-17" d="m4803.94,611.01v-79.8c.16-2.11.58-3.97,1.13-5.62,5.27-15.85,26.2-20.83,29.78-21.64,19.2,12.45,38.39,24.91,57.6,37.37,1.72.76,7,3.39,9.14,9.13.5,1.36.74,2.65.84,3.79.05,17.89.1,35.78.14,53.67.87,7.58-5.2,13.63-11.24,13.34-5.42-.25-10.52-5.6-10.26-12.36.05-12.65.1-25.29.14-37.93.11-.95.22-3.05-.84-5.34-1.51-3.23-4.29-4.58-5.06-4.92-8.7-4.4-17.42-8.8-26.13-13.21v62.94c-20.5,20.39-41.01,40.77-61.51,61.16-8.06,22.15-16.12,44.3-24.19,66.45-2.91,7.29-11.27,10.52-17.78,7.51-5.84-2.69-8.94-9.81-6.72-16.42,10.23-28.11,20.46-56.21,30.69-84.31,11.42-11.27,22.85-22.55,34.27-33.81Z"/>
      <path class="cls-17" d="m4796.64,564.36v30.91l-23.32,22.2c-4.92,5.14-12.79,5.11-17,.99-4.6-4.51-4.3-13.4,1.97-18.12,12.79-11.99,25.57-23.98,38.36-35.97Z"/>
      <path class="cls-17" d="m4845.67,476.55c-1.19,3.74-4.14,11.24-11.24,17.98-5.87,5.57-12.01,8.19-15.59,9.41-.5.31-2.89,1.75-6.04,1.12-3.06-.61-4.7-2.73-5.06-3.23-11.01-10.94-13.33-26.9-6.46-38.07,5.18-8.43,17.27-16.88,29.36-12.36,9.4,3.52,15.71,13.72,15.03,25.15Z"/>
    </g>
  </g>
  <g>
    <polygon class="cls-26" points="418.41 1004.96 435.53 1243.91 483.42 1158.05 436.59 1001.54 418.41 1004.96"/>
    <path class="cls-31" d="m560.36,1883.54c-.56,1.68,4.22,22.63,7.58,31.62,3.38,8.98,8.99,24.14-9.54,24.7-18.53.57-51.24.03-51.23-21.33,0-14.05,4.62-8.42,6.3-37.06.99-16.74,46.89,2.07,46.89,2.07Z"/>
    <path class="cls-25" d="m558.41,1924.91c6.44-.2,9.31-2.47,11.03-5.32,2.95,8.84,4.78,19.8-11.03,20.27-18.54.57-51.24.03-51.23-21.33,0-4.47.49-6.91,1.19-9.13,5.58,15.51,33.41,16.02,50.04,15.51Z"/>
    <path class="cls-31" d="m451.49,1859.91c-.56,1.68,4.22,22.65,7.58,31.62,3.37,8.98,8.98,24.14-9.55,24.7-18.53.57-51.23.03-51.23-21.33.01-14.05,4.62-8.42,6.31-37.06.99-16.74,46.89,2.07,46.89,2.07Z"/>
    <path class="cls-25" d="m449.52,1901.28c6.44-.2,9.33-2.47,11.03-5.32,2.96,8.84,4.79,19.8-11.03,20.27-18.53.57-51.23.03-51.23-21.33.01-4.45.5-6.91,1.19-9.13,5.6,15.51,33.43,16.01,50.04,15.51Z"/>
    <path class="cls-14" d="m459.65,1070.82s-8.5,83.51-11.31,108.77c-2.81,25.27-20.2,53.91-24.14,89.29-3.92,35.37,41.62,56.14,41.62,56.14l46.13-213.65-68.02-39.58,15.72-.96Z"/>
    <path class="cls-26" d="m644.54,764.14s6.41,14.54,2.25,30.87c-4.17,16.34-4.75,22.87-1.84,29.06,2.9,6.19,8.39,14.55,4.38,16.27-4.01,1.7-12.36,6.99-14.56,15.78-2.21,8.78-.49,21.14-14.91,21.68-14.42.54-22.31-12.98-28.44-3.69-6.14,9.3-8.25,30.88,5.43,42.22,13.67,11.32,6.42,91.49,6.42,91.49l-67.19-.39-52.01-27.41-.66-70.96,16.39-8.1s26.86,10.54,36.12-4.3c9.24-14.84,2.21-89.85,2.21-89.85l21.74-45.17,84.67,2.48Z"/>
    <path class="cls-8" d="m585.43,707.25s22.56,7.67,40.74,14.24c18.16,6.56,42.17,35.99,25.2,52.41-16.98,16.42-46.41,6.58-56.23,15.76-9.83,9.2-15.09,11.97-18.42,27.91-3.34,15.96,2.28,25.26-10.36,35.8-12.64,10.54-1.93,14.61-16.46,26.6-11.02,9.08-7.61,25.41-31.6,24.56-24-.84-29.39,1.82-29.39,1.82,0,0-10.25-35.02,12.73-50.8,0,0-.22-23.62,13.78-38.16,0,0-10.76-28.01,4.51-60.86,15.27-32.87,36.25-59.42,65.48-49.29Z"/>
    <path class="cls-32" d="m653.92,954.99l5.05,5s-29.75,98.88-32,158.4c-2.25,59.52,35.31,300.96,38.12,381.82,2.81,80.86,38.17,367.78,38.17,367.78,0,0-19.65,28.64-74.11,27.51-54.47-1.12-21.33,12.92-84.79,5.05-63.44-7.86-125.77-19.64-138.13-38.17-12.36-18.53-58.39-3.94-92.64-19.1l24.14-93.77,211.7-589.01,93.27-205.51h11.23Z"/>
    <path class="cls-29" d="m406.23,1840.13c12.36,18.53,74.68,30.33,138.13,38.19,63.46,7.86,30.33-6.17,84.79-5.05,44.4.92,65.4-17.75,71.75-24.74,1.44,11.95,2.36,19.48,2.36,19.48,0,0-19.65,28.64-74.11,27.51-54.47-1.12-21.33,12.92-84.79,5.05-63.44-7.86-125.77-19.64-138.13-38.17-12.36-18.54-58.39-3.94-92.64-19.1l5.28-20.5c33.55,11.76,75.62-.27,87.36,17.34Z"/>
    <path class="cls-36" d="m406.23,1856.35c12.36,18.54,74.68,30.33,138.13,38.19,63.46,7.86,30.33-6.17,84.79-5.05,49.92,1.03,70.38-22.68,73.48-26.7.63,5.21-19.02,33.84-73.48,32.71-54.47-1.12-21.33,12.92-84.79,5.05-63.44-7.86-125.77-19.64-138.13-38.17-12.36-18.54-58.39-3.94-92.64-19.1,35.52,8.63,80.45-5.21,92.64,13.07Z"/>
    <path class="cls-29" d="m503.63,902.4s-17.03,25.65-9.73,48.67c7.3,23.01,27.63,30.37,50.6,41.01,22.95,10.64-41.62,137.95-41.62,137.95,0,0,42.77,93.43,9.08,82.2-33.69-11.23-66.43-18.81-66.43-18.81l-4.4-191.87v25.03s-24.14,3.09-40.99-14.87c0,0,12.26-59.76,31.18-78.33,25.27-24.78,35.83-37.67,72.32-30.98Z"/>
    <path class="cls-21" d="m594.89,916.92s10.67,9.69,23.02,16.42c12.36,6.74,36.01,21.65,36.01,21.65,0,0-71.92,142.62-88.46,223.48-16.53,80.86-13.24,312.75-21.66,349.25-8.42,36.5-66.63,210.35-128.95,242.91-62.33,32.57-76,28.85-91.16,10.32,0,0-6.73-8.98,9.55-64.56,16.28-55.6,53.35-275.7,58.96-302.66,5.61-26.95,32-144.86,32-144.86,0,0-11.72,31.69,12.98-30.2,24.71-61.89,128.98-319.4,157.7-321.76Z"/>
    <path class="cls-38" d="m452.35,982.5c-4.45,5.93-10.26,11.04-13.59,17.63,5.1,1.4,2.36-15.37,2.36-15.37l-2.75,16.77-1.91,11.69,7.04-10.29c4.16-6.1,5.82-13.67,8.85-20.43Z"/>
    <path class="cls-16" d="m370.71,1532.43c10.32-56.76,18.99-106.73,21.49-118.69,5.61-26.95,32-144.86,32-144.86,0,0-11.72,31.69,12.98-30.2,6.58-16.48,18.82-46.87,33.75-82.57l59.07-134.15s-36.72,164.39-57.34,289.6c-9.51,57.79,26.22,193.7-33.86,227.39-30.3,16.99-53,7.27-68.09-6.52Z"/>
    <path class="cls-26" d="m586.89,812.26s1.42-21.98-10.47-18.64c-11.9,3.34-4.66,37.46,3.69,33.96,8.35-3.5,6.79-15.32,6.79-15.32Z"/>
    <path class="cls-39" d="m567.82,839.9c2.18,7.76,10.23,12.29,18,10.12,7.76-2.18,12.3-10.25,10.12-18.01-2.18-7.76-10.24-12.29-18-10.11s-12.3,10.23-10.12,18Zm5.4-1.51c-1.34-4.79,1.45-9.75,6.23-11.09,4.77-1.34,9.75,1.45,11.08,6.23,1.34,4.78-1.45,9.73-6.23,11.07-4.78,1.34-9.75-1.44-11.09-6.21Z"/>
    <path class="cls-36" d="m565.47,1178.47c-16.54,80.86-13.25,312.75-21.67,349.25-8.42,36.5-39.97,174.4-105.39,232.4-54.69,48.5-99.56,39.36-114.71,20.83,0,0-2.3-3.43-.81-17.7,30.63,25.36,81.2,20.91,130.55-51.68,67.79-99.75,57.96-332.3,95.99-513.17,30.72-146.03,79.91-225.22,97.74-250.34,3.8,3.84,6.76,6.93,6.76,6.93,0,0-71.92,142.62-88.45,223.48Z"/>
    <path class="cls-29" d="m434.48,1756.02c65.41-58,96.97-195.9,105.39-232.4,8.42-36.5,5.12-268.4,21.67-349.26,16.5-80.72,88.18-222.94,88.44-223.42,3.95,4.06-67.97,146.69-84.5,227.54-16.54,80.86-13.25,312.75-21.67,349.25-8.42,36.5-39.97,174.4-105.39,232.4-54.69,48.5-99.56,39.36-114.71,20.83,17.3,15.2,59.56,20.47,110.78-24.94Z"/>
    <path class="cls-7" d="m597.47,1846.52c-9.77-82.56-17.73-165.34-23.11-248.25-6.83-82.73-12.76-165.9-7.26-248.92-12.71,166.25,7.83,332.75,30.37,497.17Z"/>
    <path class="cls-7" d="m408.12,1822.79c6.38-12.68,9.84-26.11,10.29-40.31-6.41,12.68-9.8,26.12-10.29,40.31Z"/>
    <path class="cls-7" d="m459.65,1276.36c-1.14,39.58-3.76,79.17-9.09,118.27-2.19,19.53-4.13,39.32-9.82,58.14-2.97,9.09-6.38,19.13-14.07,24.57-9.02,6.45-18.01-3.59-24.42-9.88,6.03,6.42,14.67,17.48,25.1,11.09,8.67-5.57,12.51-15.79,16.01-24.92,6.66-18.92,9.56-38.72,12.62-58.36,3.56-39.61,4.34-79.29,3.66-118.9Z"/>
    <path class="cls-7" d="m497.76,1525.14c-10.16,39.97-24.43,79.04-44.02,114.99-17.91,34.21-46.17,75.54-90.63,70.66,44.43,7.04,75.94-34.03,95.46-68.08,18.29-37.43,30.79-77.15,39.19-117.58Z"/>
    <path class="cls-8" d="m540.41,843.83l19.69,17.62s2.43,15.69-6.1,28.47c-8.52,12.78,3.49,26.68-3.57,37.49-7.08,10.81-24.97,25.26-20.08,42.85,4.9,17.59-10.72,16.5-18.39,31.29-7.67,14.77-4.57,34.75-15,48.91-10.43,14.16-28.06,6.26-48,4.69-19.94-1.55-34.15-.14-44.09-16.28-9.94-16.15-3.55-41.72,12.79-60.18,16.34-18.47,7.16-26.78,23.47-45.35,16.29-18.57,9.9-18.36,21.98-36.57,12.08-18.22,11.57-22.84,23.54-37.94,11.97-15.08,20.47-45.78,25.8-76.23,5.33-30.45,27.97,61.22,27.97,61.22Z"/>
    <path class="cls-8" d="m623.05,784.28s-16.2,2.62-12.96,32.49c2.25,20.66,1.12,40.24-5.68,47.26-6.79,7.02-10.71,17.41-4.97,36.29,5.74,18.88-2.15,33.62-12.44,44.99-10.28,11.36-16.39,23.34-15.11,42.21,1.27,18.86,4.04,61.61-22.46,71.23-26.49,9.62-31.39,9.52-69.16-.12-37.77-9.64,0-120.58,0-120.58,0,0,61.66-110.68,63.07-116.68,1.42-6,24.29-40.34,29.54-46.61,5.26-6.27,50.17,9.52,50.17,9.52Z"/>
    <path class="cls-22" d="m635.94,852.85s-4.86-1.03-9.7-4.05c0,0,3.62,9.66,7.48,13.12l2.22-9.08Z"/>
    <polygon class="cls-15" points="639.03 1391.77 694.79 1373.27 709.7 1566.51 597.42 1606.27 596.79 1404.59 639.03 1391.77"/>
    <polygon class="cls-5" points="657.78 1396.81 713.54 1378.31 743.37 1578.59 631.08 1618.34 615.54 1409.63 657.78 1396.81"/>
    <polygon class="cls-10" points="631.08 1618.34 623.05 1602 597.42 1606.27 596.79 1404.59 615.54 1409.63 631.08 1618.34"/>
    <path class="cls-10" d="m681.33,1399.2c.21-1.35,5.11-33.68-5.86-44.04-3.27-3.13-7.22-4.09-12.06-3,4.23,3,7.29,3.69,9.41,5.72,7.97,7.51,6.13,31.92,4.71,40.77l3.81.54Z"/>
    <path class="cls-10" d="m648.95,1410.25c3.34-1.76-13.71-44.85,6.88-54.4-25.5,7.64-7.64,52.5-6.88,54.4Z"/>
    <path class="cls-26" d="m678.13,1084.02s-4.58,42.81-2.29,83.12c2.29,40.29-2.23,122.21-3.92,156.04-1.7,33.85,14.13,45.67.35,51.14-5.86,2.33-30.56,16.24-26.9-20.64,3.38-33.89-11.23-134.62-11.23-187.01,0-42.81-2.11-82.5-2.11-82.5l46.1-.15Z"/>
    <path class="cls-29" d="m658.98,959.99s4.5,1.17,15.72,27c11.24,25.83,12.37,122.06,12.37,122.06,0,0-34.6,19.79-59.86,4.62,0,0,10.43-128.97,31.76-153.68Z"/>
    <path class="cls-1" d="m636,806.65c-.52,2.28.12,4.36,1.44,4.65,1.31.31,2.81-1.3,3.32-3.56.52-2.26-.13-4.34-1.44-4.65-1.31-.29-2.79,1.3-3.32,3.56Z"/>
  </g>
</svg>